<svg width="37" height="50" viewBox="0 0 37 50" fill="none" xmlns="http://www.w3.org/2000/svg">
<path fill-rule="evenodd" clip-rule="evenodd" d="M18.0267 0.121521C17.1821 0.590935 17.5355 1.939 18.5032 1.939C18.9969 1.939 19.4775 1.46177 19.4775 0.971546C19.4775 0.238068 18.6691 -0.235547 18.0267 0.121521ZM12.6219 0.958553C7.9793 2.49077 4.03998 5.95164 1.8868 10.3894C-1.52376 17.419 -0.235104 25.7247 5.14078 31.3629C5.63077 31.8769 6.03171 32.3206 6.03171 32.349C6.03171 32.3776 4.69444 34.7658 3.05999 37.6561C1.42555 40.5465 0.0882768 43.0147 0.0882768 43.141C0.0882768 43.5109 0.347937 43.9097 0.678333 44.0469C0.955725 44.162 1.31652 44.1059 4.43711 43.4612C6.3357 43.0691 7.90525 42.7651 7.92503 42.7858C7.94471 42.8066 8.46579 44.2529 9.08273 45.9999C10.4089 49.7549 10.3802 49.6871 10.7226 49.8647C11.1558 50.0893 11.4749 50.0373 11.817 49.6864C11.9872 49.5117 13.5503 46.8524 15.2905 43.7766C17.0307 40.7009 18.4764 38.1843 18.5032 38.1843C18.53 38.1843 19.9757 40.7009 21.7158 43.7766C23.456 46.8524 25.0191 49.5117 25.1893 49.6864C25.5314 50.0373 25.8505 50.0893 26.2837 49.8647C26.6262 49.6871 26.5974 49.7549 27.9236 45.9999C28.5406 44.2529 29.0623 42.8058 29.083 42.7842C29.1036 42.7626 30.6728 43.0667 32.5699 43.46C35.6933 44.1075 36.0484 44.163 36.3271 44.0473C36.6587 43.9095 36.9181 43.5112 36.9181 43.1397C36.9181 43.0127 35.5808 40.5465 33.9463 37.6593C32.3119 34.7721 30.9746 32.3773 30.9746 32.3375C30.9746 32.2978 31.199 32.0472 31.4734 31.7805C34.4164 28.9197 36.3846 24.8795 36.8729 20.6966C37.7916 12.8287 33.665 5.29709 26.5414 1.84013C25.2467 1.21177 23.3748 0.571299 22.8333 0.571299C22.059 0.571299 21.5949 1.61124 22.1362 2.1336C22.2623 2.25523 22.919 2.53336 23.6487 2.77417C26.163 3.60359 28.3055 4.92899 30.1952 6.82364C31.5886 8.22075 32.44 9.41006 33.3075 11.171C35.3157 15.2473 35.6122 19.588 34.1748 23.871C32.1225 29.987 26.683 34.3502 20.2364 35.0516C14.1875 35.7098 8.17368 32.8873 4.7491 27.7829C1.95227 23.6143 1.20876 18.3316 2.73408 13.4668C3.12985 12.2043 4.23192 10.0015 5.03117 8.87519C5.86948 7.69389 7.6681 5.89165 8.85932 5.03938C10.027 4.20401 12.206 3.11893 13.5341 2.71155C14.7047 2.35253 14.8448 2.28053 14.9887 1.96411C15.1765 1.55057 15.1134 1.16283 14.8082 0.856855C14.4213 0.469014 14.0534 0.486111 12.6219 0.958553ZM16.7494 3.99123C13.0737 4.49855 9.98078 6.15142 7.5086 8.92931C5.83031 10.8152 4.60373 13.3587 4.11909 15.9579C3.85008 17.4006 3.87405 19.9882 4.16937 21.3799C4.86475 24.6567 6.36795 27.2669 8.85493 29.5164C10.7029 31.1877 13.0444 32.3561 15.6776 32.9207C17.1526 33.2371 19.8537 33.2371 21.3287 32.9207C27.2431 31.6525 31.574 27.31 32.8389 21.3799C33.0209 20.5265 33.0578 20.0504 33.0578 18.5468C33.0578 17.0432 33.0209 16.567 32.8389 15.7137C31.5778 9.80132 27.2184 5.41755 21.3775 4.18818C20.2669 3.9544 17.7823 3.8487 16.7494 3.99123ZM21.1339 6.12865C23.6513 6.70182 25.5582 7.74801 27.3828 9.55728C29.2439 11.4026 30.3709 13.484 30.9401 16.1271C31.1827 17.2532 31.1827 19.8403 30.9401 20.9664C30.3707 23.6105 29.2431 25.6926 27.3828 27.5352C25.5322 29.3683 23.5816 30.422 20.939 31.0165C19.8835 31.2539 17.1797 31.2545 16.0899 31.0177C13.4879 30.4519 11.4606 29.3531 9.57487 27.4863C7.75667 25.6862 6.63277 23.6015 6.07 20.9852C5.82164 19.8308 5.82154 17.2634 6.06971 16.1096C6.63521 13.4809 7.69333 11.5081 9.53648 9.64628C11.4445 7.719 13.8418 6.44713 16.3109 6.05236C16.686 5.99237 17.1026 5.92438 17.2365 5.90132C17.819 5.80099 20.3404 5.94802 21.1339 6.12865ZM17.995 9.22239C17.7909 9.33347 17.4479 9.93106 16.4971 11.8318C15.819 13.1877 15.2515 14.3114 15.2363 14.3288C15.221 14.3462 13.9813 14.5459 12.4814 14.7725C10.774 15.0305 9.69023 15.2378 9.58296 15.327C9.33869 15.5301 9.15025 16.0333 9.21524 16.3088C9.24584 16.4386 10.1635 17.445 11.2606 18.552L13.2503 20.5598L12.8036 23.234C12.558 24.7049 12.3829 26.0268 12.4147 26.1718C12.4464 26.3168 12.5822 26.5388 12.7164 26.6653C13.1688 27.0913 13.4614 27.0017 16.0392 25.6475C17.3367 24.966 18.4494 24.4084 18.5119 24.4084C18.5744 24.4084 19.6832 24.9661 20.9758 25.6478C23.5448 27.0026 23.8367 27.0922 24.2899 26.6653C24.4241 26.5388 24.5599 26.3168 24.5917 26.1718C24.6234 26.0268 24.4484 24.7049 24.2027 23.234L23.756 20.5598L25.7669 18.5418C27.5961 16.7062 27.7787 16.4927 27.7876 16.1795C27.7989 15.7773 27.5503 15.3499 27.2353 15.2297C27.1135 15.1833 25.943 14.9857 24.6341 14.7906C23.3252 14.5955 22.132 14.4118 21.9825 14.3823C21.7374 14.334 21.587 14.081 20.4576 11.8174C19.4615 9.82125 19.1517 9.28198 18.9467 9.18839C18.6101 9.03453 18.3212 9.04488 17.995 9.22239ZM19.4522 14.098C19.99 15.1785 20.4389 15.9588 20.5715 16.0442C20.6932 16.1225 21.5601 16.3004 22.4979 16.4396C23.4357 16.5788 24.3331 16.7197 24.492 16.7528C24.7772 16.8123 24.7615 16.832 23.3055 18.2453C22.476 19.0505 21.8034 19.7838 21.7693 19.9201C21.7359 20.0534 21.8573 21.0518 22.0391 22.1389C22.2209 23.2259 22.3498 24.1153 22.3258 24.1153C22.3016 24.1153 21.4746 23.6976 20.488 23.1872C19.5014 22.6767 18.6101 22.2591 18.5073 22.2591C18.4045 22.2591 17.5117 22.6767 16.5234 23.1872C15.5351 23.6976 14.7062 24.1153 14.6815 24.1153C14.6569 24.1153 14.7854 23.2259 14.9672 22.1389C15.149 21.0518 15.27 20.0518 15.2361 19.9165C15.2009 19.7758 14.5448 19.0603 13.7004 18.2418C12.2498 16.8358 12.2308 16.812 12.5147 16.7552C12.6734 16.7233 13.5706 16.582 14.5084 16.4409C15.4462 16.2998 16.3132 16.1208 16.4349 16.043C16.5681 15.9579 17.0136 15.1839 17.5542 14.098C18.048 13.1061 18.475 12.2944 18.5032 12.2944C18.5313 12.2944 18.9584 13.1061 19.4522 14.098ZM9.00342 34.4599C11.0916 35.7299 13.9411 36.7179 16.2416 36.9698C16.5787 37.0066 16.8417 37.0676 16.8262 37.1052C16.7147 37.3759 11.4395 46.5843 11.3965 46.5832C11.3665 46.5824 11.0168 45.6482 10.6195 44.5072C9.39335 40.9862 9.36734 40.9263 8.99348 40.7475C8.67575 40.5956 8.57072 40.6098 5.83811 41.1748C4.28336 41.4962 3.01128 41.7463 3.01128 41.7306C3.01128 41.7086 7.34667 34.0188 7.5617 33.6595C7.58752 33.6162 7.7252 33.6586 7.86764 33.7537C8.00999 33.8487 8.52113 34.1665 9.00342 34.4599ZM31.7448 37.72C32.9824 39.9101 33.9951 41.7144 33.9951 41.7298C33.9951 41.7451 32.7236 41.4947 31.1696 41.1733C28.4343 40.6078 28.3336 40.5941 28.0142 40.7469C27.6387 40.9264 27.6139 40.9839 26.3869 44.5072C25.9896 45.6482 25.6399 46.5824 25.6099 46.5832C25.5669 46.5843 20.2917 37.3759 20.1801 37.1052C20.1646 37.0676 20.4277 37.0066 20.7647 36.9698C23.217 36.7013 26.1757 35.6315 28.4414 34.1938C28.9505 33.8707 29.3957 33.636 29.4308 33.6722C29.466 33.7084 30.5072 35.5299 31.7448 37.72Z" fill="#FF4C13"/>
</svg>
