<svg width="40" height="40" viewBox="0 0 40 40" fill="none" xmlns="http://www.w3.org/2000/svg">
<path fill-rule="evenodd" clip-rule="evenodd" d="M18.4278 0.0220636C12.6556 0.545415 7.42409 3.42127 3.99961 7.95359C2.89879 9.41048 1.82255 11.3892 1.17528 13.146C0.781277 14.2156 0.31975 16.078 0.147 17.296C-0.048752 18.6758 -0.049065 21.4483 0.146452 22.7313C0.8078 27.072 2.69921 30.9117 5.6685 33.9417C7.32465 35.6316 8.91336 36.8071 10.9003 37.8125C15.8849 40.3348 21.6785 40.6929 26.8509 38.7982C28.6626 38.1345 30.9435 36.8566 32.4588 35.6563C33.2684 35.0151 34.859 33.4415 35.5237 32.6243C39.3796 27.8835 40.8541 21.6034 39.5173 15.6146C39.2077 14.2279 39.0834 13.8791 38.7961 13.592C38.5469 13.3429 38.5066 13.3296 38.1024 13.3631C37.6137 13.4037 37.3403 13.6015 37.2044 14.0131C37.1347 14.2241 37.166 14.4395 37.3948 15.324C37.8174 16.9579 37.9868 18.2967 37.9854 19.9941C37.9832 22.8325 37.452 25.2144 36.2632 27.716C34.9103 30.5626 32.8361 33.0163 30.2809 34.7923C27.2399 36.9061 23.7622 37.9942 20.0317 37.9989C18.5118 38.0009 17.8101 37.9348 16.4328 37.6599C10.9613 36.568 6.23002 32.9264 3.80683 27.9421C2.08214 24.3946 1.55396 20.5368 2.26827 16.7057C2.81164 13.792 4.10006 10.9885 5.94821 8.69889C6.57646 7.92059 7.95556 6.53174 8.67848 5.94918C10.1718 4.74607 12.4276 3.52192 14.2553 2.92294C16.4494 2.20384 18.1246 1.96461 20.5254 2.02741C22.2078 2.07136 23.2823 2.2241 24.8281 2.63906C25.5828 2.84161 25.7517 2.86351 25.9795 2.78835C26.4023 2.64883 26.6428 2.30379 26.6428 1.83659C26.6428 1.49741 26.608 1.40896 26.3879 1.18889C26.2231 1.02419 25.967 0.885687 25.6642 0.797393C24.9091 0.577323 23.5908 0.293906 22.7189 0.164163C21.9401 0.0483406 19.1554 -0.0439419 18.4278 0.0220636ZM32.3855 2.2327C32.2177 2.35689 30.7546 3.79102 29.1343 5.41958C26.6536 7.91285 26.1748 8.43002 26.103 8.69341C26.0535 8.8754 26.0176 9.7409 26.0174 10.7631L26.0169 12.5199L22.581 15.9638C19.5813 18.9705 19.1382 19.4447 19.0908 19.7003C19.0178 20.0937 19.0958 20.361 19.3607 20.6258C19.6253 20.8903 19.8926 20.9683 20.2865 20.8961C20.5426 20.8491 21.0123 20.4106 24.0238 17.4073L27.4683 13.9723L29.2267 13.9718C30.2499 13.9716 31.1159 13.9358 31.298 13.8863C31.5615 13.8145 32.0789 13.3359 34.5732 10.8562C36.2024 9.23655 37.6372 7.77411 37.7614 7.60636C38.0198 7.25748 38.06 6.83173 37.8692 6.46299C37.6639 6.06602 37.5327 6.03748 35.7185 5.99532L34.0363 5.95622L33.9972 4.2748C33.9551 2.46137 33.9265 2.33022 33.5294 2.12493C33.1605 1.93427 32.7345 1.97439 32.3855 2.2327ZM32.1832 7.4659C32.4027 7.85059 32.7101 7.94984 33.6837 7.95015L34.5828 7.95046L32.5889 9.9447L30.595 11.9389H29.323H28.0511V10.6687V9.39836L30.0266 7.42211L32.0022 5.44577L32.0413 6.36578C32.0645 6.91142 32.1222 7.35899 32.1832 7.4659ZM17.9996 6.11951C12.7947 6.92793 8.56629 10.4491 6.85976 15.3963C5.65301 18.8945 5.88929 22.7222 7.51759 26.055C10.5606 32.2835 17.7626 35.34 24.3739 33.2088C25.3732 32.8867 26.9083 32.1382 27.8164 31.5302C30.8805 29.4791 33.0261 26.2649 33.7685 22.614C33.937 21.7856 34.0629 19.3912 33.9654 18.8716C33.848 18.2459 33.1836 17.8388 32.6505 18.0657C32.5091 18.1259 32.3078 18.2679 32.2033 18.3812C32.0184 18.5817 32.013 18.6238 31.9989 19.975C31.9879 21.0224 31.9448 21.5574 31.823 22.1569C30.8397 26.9937 27.2889 30.5936 22.4503 31.6595C21.7965 31.8035 21.4229 31.8308 20.0708 31.8335C18.6995 31.8363 18.3562 31.812 17.7034 31.666C15.2471 31.1167 13.3366 30.0809 11.6152 28.3653C9.88335 26.6392 8.77049 24.5584 8.28182 22.1327C8.06956 21.0791 8.09107 18.5884 8.32133 17.5432C8.5677 16.4252 8.90522 15.4765 9.4018 14.5061C11.1011 11.1854 14.1073 8.92459 17.8289 8.16866C18.4303 8.04658 18.9638 8.0038 20.0233 7.99277L21.4233 7.9783L21.6859 7.69184C22.0103 7.33796 22.0398 6.937 21.7709 6.53479C21.4575 6.06579 21.2036 5.99462 19.8752 6.00299C19.2298 6.00713 18.3857 6.05953 17.9996 6.11951ZM18.943 12.0216C16.3985 12.4139 14.1411 14.0137 12.9996 16.2337C11.0419 20.0412 12.3777 24.6945 16.0346 26.8065C17.4027 27.5966 18.763 27.9315 20.3447 27.8678C21.6332 27.8158 22.4262 27.6193 23.5524 27.0727C26.1739 25.8006 27.95 23.1079 27.9982 20.3325C28.0118 19.5505 28.0081 19.5329 27.7818 19.2958C27.2124 18.6996 26.3172 18.9074 26.0933 19.6878C26.0513 19.8342 26.0169 20.1333 26.0169 20.3525C26.0169 20.9051 25.756 21.8825 25.4325 22.5421C24.6735 24.0895 23.234 25.2744 21.5798 25.7133C20.8538 25.9059 19.5657 25.9419 18.8581 25.7892C16.6239 25.3072 14.8602 23.6286 14.2689 21.4213C14.0449 20.5853 14.0439 19.2501 14.2666 18.4194C14.8313 16.3129 16.5048 14.6621 18.6164 14.1286C18.9567 14.0427 19.4144 13.9721 19.6335 13.9718C20.4195 13.971 20.8556 13.727 21.0057 13.2042C21.1023 12.8673 20.9833 12.4871 20.6946 12.2106C20.4853 12.0103 20.3936 11.9809 19.9313 11.9666C19.6422 11.9576 19.1975 11.9823 18.943 12.0216Z" fill="#FF4C13"/>
</svg>
