<svg width="32" height="41" viewBox="0 0 32 41" fill="none" xmlns="http://www.w3.org/2000/svg">
<path fill-rule="evenodd" clip-rule="evenodd" d="M13.7674 0.644685C13.1158 0.905276 12.5205 1.56984 12.3365 2.24214C12.2425 2.58595 12.2404 2.58743 11.5711 2.83239C9.42167 3.61909 7.55414 5.48119 6.68349 7.70578C6.42558 8.3648 6.14935 9.47037 6.14851 9.84676C6.1479 10.123 6.11933 10.1569 5.59687 10.5021C4.43578 11.2692 4.22171 12.9079 5.13711 14.021L5.32949 14.2548L5.17606 14.4672C4.34986 15.6106 4.37155 17.1859 5.22883 18.2955C5.74732 18.9666 6.48378 19.354 7.45165 19.4648L7.92882 19.5194L8.0999 20.0387C8.49382 21.2343 9.28832 22.523 10.1878 23.425L10.6539 23.8926V24.9292V25.9658L9.22196 25.9661C7.59775 25.9664 6.85228 26.066 5.74755 26.4305C3.35832 27.2188 1.20409 29.4853 0.396449 32.0605C0.0238283 33.2488 0 33.5388 0 36.8838V40.0269L0.21178 40.2437L0.423484 40.4604L15.9617 40.4805L31.4999 40.5005L31.75 40.272L32 40.0434V36.8919C32 33.5381 31.9762 33.2492 31.6036 32.0605C30.7959 29.4853 28.6417 27.2188 26.2525 26.4305C25.1477 26.066 24.4023 25.9664 22.778 25.9661L21.3461 25.9658V24.9408V23.9158L21.8885 23.3585C22.767 22.456 23.6598 20.9485 23.974 19.8372L24.0638 19.5194L24.5447 19.4648C25.5154 19.3544 26.2518 18.9677 26.7712 18.2955C27.6276 17.187 27.6501 15.6105 26.8258 14.4697L26.6741 14.2598L26.9509 13.8889C27.2502 13.488 27.4558 12.9009 27.4558 12.4479C27.4558 11.6973 27.0169 10.8827 26.4026 10.4934C25.8875 10.1671 25.8521 10.1255 25.8515 9.84676C25.8507 9.47037 25.5744 8.3648 25.3165 7.70578C24.4459 5.48119 22.5783 3.61909 20.4289 2.83239C19.7596 2.58743 19.7575 2.58595 19.6635 2.24214C19.4765 1.55874 18.88 0.900509 18.2128 0.641091C17.8751 0.509819 17.6187 0.493176 15.9801 0.496458C14.3655 0.499661 14.0827 0.518571 13.7674 0.644685ZM17.8701 2.22495C18.2725 2.54883 18.2912 2.69143 18.2912 5.4508V7.99153L18.5012 8.22993C18.6332 8.37964 18.8138 8.48497 18.9872 8.5131C19.2199 8.551 19.3034 8.52108 19.5218 8.32159L19.7804 8.08522L19.8033 6.16936L19.8262 4.25341L20.3312 4.48525C21.7061 5.11637 22.9875 6.36329 23.6561 7.72055C23.8899 8.19532 24.2137 9.22666 24.2876 9.7326L24.3419 10.1038H16H7.65808L7.71238 9.7326C7.78631 9.22666 8.11005 8.19532 8.34391 7.72055C9.01323 6.36173 10.2938 5.11645 11.6726 4.48353L12.1814 4.24997V6.12075V7.99153L12.3914 8.22993C12.5234 8.37964 12.704 8.48497 12.8774 8.5131C13.1101 8.551 13.1936 8.52108 13.412 8.32159L13.6706 8.08522L13.7088 5.40251C13.7494 2.55219 13.7526 2.52859 14.1387 2.21792C14.3289 2.06484 14.4354 2.05555 16 2.05555C17.5868 2.05555 17.6688 2.06297 17.8701 2.22495ZM25.6617 11.9052C25.769 12.0149 25.8772 12.2337 25.9023 12.3914C25.9425 12.6452 25.9166 12.71 25.6775 12.9546L25.4073 13.2311L15.9703 13.2107L6.53327 13.1902L6.33829 12.9906C6.23099 12.8809 6.12277 12.6621 6.09772 12.5044C6.05747 12.2506 6.08336 12.1858 6.32248 11.9412L6.59269 11.6647L16.0297 11.6851L25.4667 11.7056L25.6617 11.9052ZM7.59905 16.3635V17.935L7.31265 17.8816C6.46064 17.7228 5.90862 16.7955 6.14079 15.9132C6.28582 15.3623 6.92132 14.8277 7.46539 14.7991C7.58851 14.7926 7.59905 14.9163 7.59905 16.3635ZM22.8735 16.2274C22.8735 17.1491 22.8327 17.9019 22.7596 18.3313C22.2896 21.0889 20.361 23.3442 17.7948 24.1374C17.1939 24.3232 16.9728 24.3506 16.0382 24.3554C15.1438 24.3599 14.8691 24.3316 14.358 24.1825C11.8864 23.4615 10.0682 21.5406 9.35064 18.8925C9.20699 18.3623 9.17644 18.0095 9.14581 16.5306L9.10992 14.792H15.9917H22.8735V16.2274ZM25.2232 15.0516C25.3604 15.1452 25.5666 15.3595 25.6814 15.5277C25.8581 15.7866 25.8902 15.9136 25.8902 16.3548C25.8902 16.796 25.8581 16.923 25.6814 17.1819C25.4245 17.5583 25.0652 17.8112 24.6874 17.8816L24.401 17.935V16.3548V14.7746L24.6874 14.828C24.8449 14.8574 25.086 14.958 25.2232 15.0516ZM12.7924 25.2618C13.6506 25.6968 14.7348 25.9189 16 25.9189C17.2652 25.9189 18.3494 25.6968 19.2076 25.2618C19.836 24.9433 19.8186 24.93 19.8186 25.7298V26.442L17.9284 28.4697C16.8887 29.585 16.021 30.4975 16 30.4975C15.979 30.4975 15.1113 29.585 14.0716 28.4697L12.1814 26.442V25.7298C12.1814 24.93 12.164 24.9433 12.7924 25.2618ZM13.1622 29.7511L15.2363 31.9737V35.4552V38.9367H12.1873H9.13833L9.11328 37.8752L9.08831 36.8138L8.82963 36.5775C8.61136 36.3781 8.52781 36.3482 8.29503 36.386C8.12166 36.4142 7.94104 36.5195 7.80907 36.6692C7.60271 36.9035 7.59905 36.9252 7.59905 37.9221V38.9367H6.83532H6.0716V33.4383V27.9399L6.51074 27.8151C6.75223 27.7465 7.0959 27.6671 7.27446 27.6386L7.59905 27.5867V30.1349V32.6831L7.80907 32.9215C7.94104 33.0713 8.12166 33.1766 8.29503 33.2047C8.52781 33.2426 8.61129 33.2127 8.82963 33.0132L9.08831 32.7768L9.1103 30.1526L9.13237 27.5285H10.1102H11.088L13.1622 29.7511ZM22.8735 30.1058V32.6831L23.0835 32.9215C23.2155 33.0713 23.3961 33.1766 23.5695 33.2047C23.8023 33.2426 23.8857 33.2127 24.1041 33.0132L24.3628 32.7768L24.3848 30.1823L24.407 27.5877L24.7285 27.639C24.9054 27.6672 25.2477 27.7465 25.4893 27.8151L25.9284 27.9399V33.4383V38.9367H25.1706H24.4128L24.3877 37.8752L24.3628 36.8138L24.1041 36.5775C23.8858 36.3781 23.8023 36.3482 23.5695 36.386C23.3961 36.4142 23.2155 36.5195 23.0835 36.6692C22.8772 36.9035 22.8735 36.9252 22.8735 37.9221V38.9367H19.8186H16.7637V35.4552V31.9737L18.8378 29.7511L20.912 27.5285H21.8927H22.8735V30.1058ZM4.54415 33.8968V38.9367H3.01671H1.48926L1.48957 36.6511C1.48995 33.6852 1.60435 32.9169 2.24107 31.6039C2.64233 30.7764 3.0203 30.249 3.71971 29.5406C4.09104 29.1646 4.42837 28.8569 4.46946 28.8569C4.51735 28.8569 4.54415 30.6644 4.54415 33.8968ZM28.2803 29.5406C28.9797 30.249 29.3577 30.7764 29.7589 31.6039C30.3956 32.9169 30.5101 33.6852 30.5104 36.6511L30.5107 38.9367H28.9833H27.4558V33.8968C27.4558 30.6644 27.4827 28.8569 27.5305 28.8569C27.5716 28.8569 27.909 29.1646 28.2803 29.5406ZM8.08691 34.0906C7.84649 34.19 7.59905 34.5521 7.59905 34.8047C7.59905 35.1175 7.95005 35.4928 8.29503 35.5489C8.52758 35.5867 8.61128 35.5568 8.82788 35.3588C9.04241 35.1627 9.08487 35.0697 9.08487 34.7954C9.08487 34.5234 9.0421 34.4278 8.83712 34.2404C8.58623 34.011 8.37934 33.9697 8.08691 34.0906ZM23.3614 34.0906C23.121 34.19 22.8735 34.5521 22.8735 34.8047C22.8735 35.1175 23.2245 35.4928 23.5695 35.5489C23.802 35.5867 23.8857 35.5568 24.1023 35.3588C24.3169 35.1627 24.3593 35.0697 24.3593 34.7954C24.3593 34.5234 24.3166 34.4278 24.1116 34.2404C23.8607 34.011 23.6538 33.9697 23.3614 34.0906Z" fill="white"/>
</svg>
