<svg width="40" height="41" viewBox="0 0 40 41" fill="none" xmlns="http://www.w3.org/2000/svg">
<path fill-rule="evenodd" clip-rule="evenodd" d="M37.0209 0.607067C36.8602 0.66453 36.6316 0.775072 36.513 0.852733C36.0204 1.1752 30.9727 4.98694 30.8469 5.13138C30.6102 5.4035 30.6725 5.79416 31.0281 6.26592C31.2029 6.49788 31.3347 6.71834 31.3211 6.75584C31.3074 6.79334 30.9103 7.11761 30.4386 7.4764C29.6995 8.03858 29.5484 8.19288 29.3446 8.59371C29.1136 9.04809 29.1083 9.08458 29.1083 10.1986C29.1083 10.9795 29.0768 11.3935 29.0085 11.5133C28.9537 11.6095 28.5615 11.9517 28.1369 12.2738L27.3651 12.8594L25.7568 10.7115C23.9685 8.32331 23.8631 8.22584 23.0807 8.23516C22.5904 8.24103 22.2739 8.38719 21.9963 8.73588C21.885 8.87555 20.5663 11.2798 19.0656 14.0785L16.3373 19.1672L8.38347 19.2064C4.00894 19.2279 0.372946 19.2738 0.303555 19.3085C0.017708 19.4513 -3.05176e-05 19.6833 -3.05176e-05 23.2846V26.8074L0.191811 26.9995L0.383574 27.1917H2.84867H5.3137V29.8926V32.5935H2.84867H0.383574L0.191811 32.7857L-3.05176e-05 32.9778V36.5329C-3.05176e-05 40.0109 0.00348591 40.0924 0.16196 40.2942L0.323872 40.5005H16.6771H33.0303L33.1791 40.3358C33.3195 40.1806 33.3292 39.9921 33.3501 37.0509L33.3722 33.9307L35.838 33.908L38.3037 33.8853L38.4923 33.6656L38.6808 33.4459V29.8926V26.3393L38.4923 26.1196L38.3037 25.8999L35.838 25.8772L33.3722 25.8544L33.3501 22.7193L33.328 19.5841L33.1087 19.3953C32.9123 19.226 32.8166 19.2064 32.1905 19.2064H31.4916V18.944C31.4916 18.7997 31.4516 18.562 31.4028 18.4156C31.3538 18.2693 30.6154 17.2125 29.7618 16.0674C28.908 14.9223 28.2096 13.9637 28.2096 13.9371C28.2096 13.9107 28.4822 13.6894 28.8152 13.4455C29.6478 12.8358 29.9849 12.5014 30.2285 12.0431C30.4274 11.6692 30.4367 11.599 30.4367 10.4773C30.4367 9.52267 30.4603 9.26965 30.5627 9.12466C30.6834 8.95407 32.0954 7.8528 32.1889 7.8564C32.2137 7.85742 32.357 8.03513 32.5075 8.25144C32.7897 8.65728 33.0857 8.87242 33.3616 8.87242C33.5621 8.87242 39.3798 4.5111 39.6084 4.18934C40.1442 3.43543 40.1296 2.55212 39.5677 1.72572C38.8597 0.684571 37.9373 0.279434 37.0209 0.607067ZM37.9208 1.91635C38.1118 2.01875 38.2956 2.22198 38.5326 2.59275C38.6569 2.78721 38.6846 2.91678 38.6459 3.12322C38.5991 3.3732 38.382 3.55631 36.0849 5.28411C34.7044 6.32244 33.5311 7.17585 33.4774 7.18055C33.3525 7.19167 32.2514 5.72926 32.3308 5.6577C32.8143 5.22133 37.4779 1.82655 37.5938 1.82655C37.6816 1.82655 37.8287 1.86695 37.9208 1.91635ZM24.769 11.6081C25.5885 12.7036 26.2495 13.6266 26.238 13.6591C26.2264 13.6916 25.6016 14.1791 24.8495 14.7424C24.0973 15.3058 23.438 15.8252 23.3843 15.8967C23.2141 16.1229 23.2685 16.4602 23.515 16.7072C23.7569 16.9496 24.0039 16.9917 24.2674 16.8354C24.3911 16.7619 26.5249 15.184 27.0128 14.8052C27.1269 14.7167 30.1962 18.7724 30.1354 18.9313C30.0881 19.0546 30.5319 18.9535 22.9092 20.5767C19.5427 21.2936 16.7384 21.8609 16.6773 21.8374C16.6162 21.814 16.5663 21.7424 16.5663 21.6784C16.5663 21.6143 18.0134 18.8635 19.7821 15.5656C22.367 10.7456 23.0254 9.57387 23.1385 9.59266C23.2169 9.60581 23.9379 10.497 24.769 11.6081ZM10.7056 23.199V25.8608H6.01698H1.3284V24.5299V23.199H2.10546C2.81038 23.199 2.90251 23.1818 3.09787 23.0135C3.39966 22.7534 3.39966 22.3137 3.09787 22.0537C2.90251 21.8854 2.81038 21.8681 2.10546 21.8681H1.3284V21.2027V20.5372H6.01698H10.7056V23.199ZM15.5504 20.5679C15.5504 20.5847 15.4809 20.752 15.3959 20.9397C14.9197 21.9912 15.6376 23.1985 16.7396 23.1992C16.9526 23.1993 20.9228 22.403 21.2353 22.2975C21.3116 22.2717 21.333 22.6587 21.333 24.0626V25.8608H16.6835H12.034V23.199V20.5372H13.7922C14.7592 20.5372 15.5504 20.551 15.5504 20.5679ZM32.0386 23.199V25.8608H27.3487H22.6587L22.6797 23.9237L22.7005 21.9867L26.0216 21.2708L29.3427 20.5549L30.6906 20.5461L32.0386 20.5372V23.199ZM5.0402 21.9586C4.63612 22.1799 4.55915 22.6851 4.88039 23.0068C5.07161 23.1985 5.07692 23.199 6.65815 23.1965C8.31798 23.1939 8.39886 23.1787 8.58297 22.8323C8.72948 22.5566 8.68924 22.3412 8.44543 22.097L8.21702 21.8681L6.70675 21.8705C5.76536 21.872 5.13764 21.9052 5.0402 21.9586ZM16.0008 29.873L15.9802 32.5544H11.3307H6.6812L6.66057 29.9715C6.64924 28.5509 6.6569 27.3443 6.67768 27.2902C6.70738 27.2126 7.703 27.1917 11.3684 27.1917H16.0213L16.0008 29.873ZM26.6467 29.8926V32.5935H21.9972H17.3477V29.8926V27.1917H21.9972H26.6467V29.8926ZM37.3523 29.8932V32.5948L32.6833 32.5746L28.0142 32.5544L27.9936 29.9715C27.9823 28.5509 27.9899 27.3443 28.0107 27.2902C28.0404 27.2126 29.0359 27.1917 32.7004 27.1917H37.3523V29.8932ZM10.687 36.5666L10.6665 39.2088L5.99745 39.229L1.3284 39.2492V36.5868V33.9244H6.018H10.7077L10.687 36.5666ZM21.333 36.5862V39.2479H16.6835H12.034V36.5862V33.9244H16.6835H21.333V36.5862ZM32.0386 36.5862V39.2479H27.35H22.6615V36.5862V33.9244H27.35H32.0386V36.5862Z" fill="white"/>
</svg>
