<svg width="40" height="37" viewBox="0 0 40 37" fill="none" xmlns="http://www.w3.org/2000/svg">
<path d="M2.552 29.1041V33.6875C2.552 33.8611 2.62145 34.0173 2.76033 34.1562C2.89922 34.2951 3.05547 34.3646 3.22909 34.3646H36.7707C36.9444 34.3646 37.1006 34.2951 37.2395 34.1562C37.3784 34.0173 37.4478 33.8611 37.4478 33.6875V29.1041H2.552ZM3.22909 7.59373H10.3645C10.1909 7.28123 10.0433 6.90797 9.92179 6.47394C9.80027 6.03991 9.7395 5.63192 9.7395 5.24998C9.7395 3.86109 10.2256 2.68922 11.1978 1.73435C12.1701 0.779494 13.3333 0.302063 14.6874 0.302063C15.5555 0.302063 16.3714 0.527757 17.1353 0.979146C17.8992 1.43053 18.5069 2.00345 18.9583 2.6979L19.9999 4.2604L20.9895 2.6979C21.4756 1.96873 22.0833 1.38713 22.8124 0.953105C23.5416 0.519077 24.3402 0.302063 25.2083 0.302063C26.5971 0.302063 27.769 0.770813 28.7239 1.70831C29.6787 2.64581 30.1562 3.82637 30.1562 5.24998C30.1562 5.5972 30.1041 5.96179 29.9999 6.34373C29.8957 6.72567 29.7569 7.14234 29.5833 7.59373H36.7707C37.6041 7.59373 38.3159 7.88887 38.9062 8.47915C39.4964 9.06942 39.7916 9.76387 39.7916 10.5625V33.6875C39.7916 34.5208 39.4964 35.2326 38.9062 35.8229C38.3159 36.4132 37.6041 36.7083 36.7707 36.7083H3.22909C2.39575 36.7083 1.68395 36.4132 1.09367 35.8229C0.503391 35.2326 0.208252 34.5208 0.208252 33.6875V10.5625C0.208252 9.76387 0.503391 9.06942 1.09367 8.47915C1.68395 7.88887 2.39575 7.59373 3.22909 7.59373ZM2.552 24.2083H37.4478V10.5625C37.4478 10.4236 37.3784 10.2847 37.2395 10.1458C37.1006 10.0069 36.9444 9.93748 36.7707 9.93748H23.6978L28.5416 16.7083L26.6666 18.1146L19.9478 8.84373L13.2291 18.1146L11.3541 16.7083L16.2499 9.93748H3.22909C3.05547 9.93748 2.89922 10.0069 2.76033 10.1458C2.62145 10.2847 2.552 10.4236 2.552 10.5625V24.2083ZM14.6874 7.80206C15.4166 7.80206 16.0329 7.55033 16.5364 7.04685C17.0398 6.54338 17.2916 5.94442 17.2916 5.24998C17.2916 4.52081 17.0398 3.90449 16.5364 3.40102C16.0329 2.89755 15.4166 2.64581 14.6874 2.64581C13.993 2.64581 13.394 2.89755 12.8905 3.40102C12.3871 3.90449 12.1353 4.52081 12.1353 5.24998C12.1353 5.94442 12.3871 6.54338 12.8905 7.04685C13.394 7.55033 13.993 7.80206 14.6874 7.80206ZM25.2083 7.80206C25.9374 7.80206 26.5537 7.55033 27.0572 7.04685C27.5607 6.54338 27.8124 5.94442 27.8124 5.24998C27.8124 4.52081 27.5607 3.90449 27.0572 3.40102C26.5537 2.89755 25.9374 2.64581 25.2083 2.64581C24.5138 2.64581 23.9148 2.89755 23.4114 3.40102C22.9079 3.90449 22.6562 4.52081 22.6562 5.24998C22.6562 5.94442 22.9079 6.54338 23.4114 7.04685C23.9148 7.55033 24.5138 7.80206 25.2083 7.80206Z" fill="#FF4C13"/>
</svg>
