<svg width="50" height="50" viewBox="0 0 50 50" fill="none" xmlns="http://www.w3.org/2000/svg">
<path fill-rule="evenodd" clip-rule="evenodd" d="M46.2762 0.138701C46.0753 0.210522 45.7896 0.348684 45.6413 0.445749C45.0255 0.848787 38.7159 5.61293 38.5587 5.79346C38.2627 6.13358 38.3407 6.62184 38.7851 7.21148C39.0036 7.5014 39.1684 7.77694 39.1514 7.82381C39.1343 7.87068 38.6379 8.27597 38.0483 8.72441C37.1244 9.42706 36.9355 9.61992 36.6808 10.1209C36.3921 10.6888 36.3854 10.7344 36.3854 12.1268C36.3854 13.1028 36.3461 13.6203 36.2607 13.77C36.1921 13.8902 35.7019 14.3179 35.1712 14.7205L34.2064 15.4524L32.196 12.7678C29.9606 9.78293 29.829 9.66111 28.8509 9.67276C28.2381 9.68009 27.8425 9.86278 27.4954 10.2986C27.3563 10.4732 25.7079 13.4781 23.8321 16.9762L20.4216 23.3363L10.4794 23.3852C5.01122 23.4121 0.466221 23.4696 0.379482 23.5129C0.0221731 23.6914 0 23.9813 0 28.4824V32.8854L0.239801 33.1256L0.479505 33.3658H3.56088H6.64216V36.7415V40.1173H3.56088H0.479505L0.239801 40.3575L0 40.5976V45.041C0 49.3881 0.00439553 49.4899 0.202488 49.7422L0.404879 50H20.8464H41.2878L41.4739 49.7941C41.6494 49.6001 41.6616 49.3646 41.6876 45.6884L41.7153 41.7887L44.7975 41.7602L47.8797 41.7318L48.1154 41.4572L48.351 41.1827V36.7415V32.3004L48.1154 32.0258L47.8797 31.7513L44.7975 31.7229L41.7153 31.6944L41.6876 27.7759L41.66 23.8573L41.3859 23.6213C41.1405 23.4098 41.0208 23.3852 40.2382 23.3852H39.3646V23.0573C39.3646 22.877 39.3145 22.5798 39.2535 22.3969C39.1923 22.214 38.2693 20.8932 37.2022 19.462C36.1351 18.0308 35.262 16.8326 35.262 16.7994C35.262 16.7664 35.6027 16.4899 36.0191 16.185C37.0598 15.4229 37.4811 15.0049 37.7857 14.4321C38.0343 13.9648 38.0459 13.8771 38.0459 12.4751C38.0459 11.282 38.0754 10.9657 38.2034 10.7845C38.3543 10.5713 40.1193 9.19486 40.2361 9.19937C40.2671 9.20064 40.4463 9.42275 40.6344 9.69311C40.9872 10.2004 41.3571 10.4692 41.702 10.4692C41.9527 10.4692 49.2247 5.01821 49.5105 4.61605C50.1803 3.67377 50.1621 2.56974 49.4597 1.53686C48.5747 0.235571 47.4217 -0.270795 46.2762 0.138701ZM47.401 1.77512C47.6398 1.9031 47.8695 2.15712 48.1658 2.62053C48.3212 2.86358 48.3558 3.02552 48.3074 3.28355C48.2489 3.59598 47.9776 3.82485 45.1061 5.98436C43.3805 7.28212 41.9139 8.34877 41.8468 8.35464C41.6907 8.36853 40.3143 6.54073 40.4135 6.45129C41.018 5.90589 46.8474 1.66289 46.9923 1.66289C47.102 1.66289 47.2859 1.71338 47.401 1.77512ZM30.9613 13.8885C31.9856 15.2577 32.812 16.4113 32.7975 16.4519C32.7831 16.4925 32.002 17.1018 31.0619 17.8059C30.1217 18.5101 29.2976 19.1593 29.2304 19.2486C29.0176 19.5313 29.0857 19.9529 29.3938 20.2616C29.6962 20.5646 30.005 20.6172 30.3342 20.4219C30.489 20.33 33.1562 18.3579 33.766 17.8844C33.9086 17.7737 37.7453 22.8429 37.6692 23.0414C37.6101 23.1955 38.165 23.0692 28.6366 25.098C24.4284 25.994 20.923 26.7031 20.8467 26.6737C20.7703 26.6444 20.7079 26.5549 20.7079 26.4749C20.7079 26.3949 22.5168 22.9568 24.7277 18.8348C27.9588 12.8105 28.7818 11.346 28.9232 11.3694C29.0212 11.3859 29.9224 12.4997 30.9613 13.8885ZM13.382 28.3755V31.7023H7.52127H1.66054V30.0389V28.3755H2.63186C3.51302 28.3755 3.62818 28.354 3.87238 28.1436C4.24961 27.8185 4.24961 27.269 3.87238 26.944C3.62818 26.7336 3.51302 26.7121 2.63186 26.7121H1.66054V25.8804V25.0487H7.52127H13.382V28.3755ZM19.4381 25.0869C19.4381 25.1079 19.3511 25.3171 19.2449 25.5517C18.6496 26.8659 19.5471 28.3749 20.9246 28.3757C21.1908 28.3759 26.1535 27.3806 26.5442 27.2487C26.6395 27.2165 26.6663 27.7002 26.6663 29.4549V31.7023H20.8544H15.0425V28.3755V25.0487H17.2403C18.4491 25.0487 19.4381 25.0659 19.4381 25.0869ZM40.0483 28.3755V31.7023H34.1859H28.3234L28.3496 29.2813L28.3757 26.8602L32.527 25.9655L36.6784 25.0708L38.3633 25.0597L40.0483 25.0487V28.3755ZM6.30028 26.8251C5.79519 27.1018 5.69897 27.7331 6.10053 28.1353C6.33955 28.3748 6.34619 28.3755 8.32272 28.3724C10.3975 28.3691 10.4986 28.3501 10.7287 27.9172C10.9119 27.5726 10.8616 27.3034 10.5568 26.9981L10.2713 26.7121L8.38348 26.715C7.20674 26.7169 6.42209 26.7584 6.30028 26.8251ZM20.001 36.7171L19.9753 40.0684H14.1634H8.35154L8.32575 36.8402C8.31159 35.0646 8.32116 33.5565 8.34714 33.4889C8.38426 33.3919 9.62879 33.3658 14.2105 33.3658H20.0267L20.001 36.7171ZM33.3085 36.7415V40.1173H27.4966H21.6847V36.7415V33.3658H27.4966H33.3085V36.7415ZM46.6905 36.7423V40.1189L40.8542 40.0936L35.0178 40.0684L34.9921 36.8402C34.9779 35.0646 34.9875 33.5565 35.0135 33.4889C35.0506 33.3919 36.2949 33.3658 40.8755 33.3658H46.6905V36.7423ZM13.3588 45.0831L13.3332 48.3855L7.49685 48.4107L1.66054 48.436V45.1084V41.7807H7.52254H13.3846L13.3588 45.0831ZM26.6663 45.1076V48.4344H20.8544H15.0425V45.1076V41.7807H20.8544H26.6663V45.1076ZM40.0483 45.1076V48.4344H34.1876H28.3269V45.1076V41.7807H34.1876H40.0483V45.1076Z" fill="#FF4C13"/>
</svg>
