<svg width="50" height="50" viewBox="0 0 50 50" fill="none" xmlns="http://www.w3.org/2000/svg">
<path fill-rule="evenodd" clip-rule="evenodd" d="M12.816 0.148909C12.7009 0.230853 12.5824 0.420536 12.5527 0.570536C12.523 0.720536 12.3417 2.74058 12.1497 5.05952C11.9577 7.37847 11.7797 9.37698 11.7541 9.50069L11.7076 9.7256L9.2544 9.69911L6.80114 9.67262L6.67505 9.23879C6.51819 8.69881 6.13706 8.28542 5.60641 8.07956C5.27022 7.94921 4.84866 7.92718 3.19818 7.95377C1.21512 7.98581 1.19383 7.98849 0.801574 8.25238C0.560614 8.41448 0.323074 8.69206 0.194633 8.96161C-0.0102847 9.39147 -0.0156568 9.49802 0.0118871 12.5722L0.0402123 15.74L0.320143 16.1126C0.870434 16.845 0.949158 16.8645 3.3611 16.8631C5.4093 16.8619 5.52807 16.8514 5.89864 16.6382C6.32958 16.3903 6.72672 15.7754 6.72926 15.3522L6.73082 15.0794H9.07497H11.4191L11.4227 15.4018C11.4315 16.1927 10.6222 43.8433 10.5796 44.2084L10.5319 44.6173L9.82784 44.664C8.70626 44.7384 7.94372 45.2638 7.51015 46.2607C7.28287 46.7832 7.13362 48.5629 7.25962 49.2456C7.37996 49.8971 7.57198 50 8.66729 50C9.5441 50 9.64529 49.9802 9.83936 49.7704C10.3125 49.2588 9.91936 48.5119 9.17704 48.5119H8.78195V47.682C8.78195 46.7629 8.92055 46.4595 9.44008 46.2409C9.63913 46.1571 11.0831 46.1331 14.7159 46.1531L19.7177 46.1806L20.0369 46.5049C20.3395 46.8122 20.358 46.8732 20.3907 47.6705L20.4251 48.5119H16.2259C11.5597 48.5119 11.6844 48.4942 11.555 49.175C11.5065 49.4298 11.5435 49.5401 11.7456 49.7454L11.9963 50H16.7308H21.4653L21.6762 49.7277C21.8744 49.4716 21.885 49.369 21.8523 48.0164C21.8221 46.7701 21.7889 46.5227 21.6043 46.169C21.2786 45.5451 20.9597 45.2082 20.4396 44.9384C20.0352 44.7286 19.804 44.6876 18.8667 44.6591C17.8519 44.6284 17.7679 44.6109 17.7679 44.4314C17.7679 43.8621 16.9869 17.5969 16.9357 16.4435L16.875 15.0794H18.9331H20.9911L20.9932 17.1379C20.9956 19.4355 21.0632 19.7498 21.6653 20.2644C22.2001 20.7214 22.4668 20.7497 25.9309 20.716L29.1615 20.6845L29.5572 20.4184C29.7748 20.272 30.0573 19.9818 30.1848 19.7735C30.4072 19.4102 30.4178 19.3074 30.4478 17.2371L30.4791 15.0794H34.2815H38.0839V19.171V23.2627L35.0322 26.3635L31.9805 29.4643H31.042C30.229 29.4643 30.0593 29.4943 29.7717 29.6895C29.2532 30.0413 29.0983 30.4597 29.0982 31.5091L29.098 32.4132L28.5524 32.4783C27.864 32.5605 27.4807 32.7606 27.2383 33.1646C26.958 33.6313 26.958 35.6148 27.2383 36.0814C27.5802 36.6513 27.9096 36.7552 29.3749 36.7556L30.6774 36.756L30.9132 36.4776C31.1777 36.1655 31.1984 36.032 31.0379 35.6743C30.8836 35.3303 30.4877 35.2183 29.4253 35.2183H28.5119V34.623V34.0278H38.5234H48.5349V34.623V35.2183H40.9798C35.7156 35.2183 33.3308 35.2515 33.1151 35.3279C32.3494 35.599 32.4947 36.603 33.3219 36.7561C33.4968 36.7884 37.0901 36.8016 41.3071 36.7854C48.6531 36.7571 48.9873 36.748 49.2827 36.5665C49.8327 36.2284 50 35.7766 50 34.6294C50 33.5195 49.9066 33.224 49.4266 32.8137C49.2684 32.6786 48.9592 32.5388 48.7393 32.5031L48.3396 32.4381L48.3394 31.5216C48.3393 30.4588 48.1862 30.0426 47.6658 29.6895C47.3815 29.4965 47.2066 29.4643 46.4443 29.4643H45.5547L42.5518 26.4131L39.549 23.3619V19.2206V15.0794H41.79C43.9993 15.0794 44.0348 15.0761 44.297 14.847C44.8014 14.4064 44.7154 14.2118 43.0571 12.0417C42.2289 10.9579 41.4744 9.99276 41.3804 9.89673C41.2419 9.75546 41.0386 9.72222 40.3114 9.72222C39.4974 9.72222 39.3216 9.68571 38.4312 9.33145C37.891 9.11647 32.4628 6.92897 26.3686 4.47034L15.2881 0H14.1567C13.3087 0 12.9729 0.0373016 12.816 0.148909ZM14.447 1.68929C14.447 1.925 15.0016 8.4369 15.0868 9.20139L15.1448 9.72222H14.2098H13.2749L13.2744 9.4494C13.2738 9.08423 13.8501 2.22034 13.9158 1.81052C13.9577 1.54861 14.0124 1.4881 14.2072 1.4881C14.3829 1.4881 14.447 1.54177 14.447 1.68929ZM25.6841 5.80357L35.2764 9.67262L29.7855 9.72222L24.2946 9.77183L24.1079 10.0061C23.8541 10.3245 23.8734 10.6747 24.1611 10.9668L24.4008 11.2103L32.4877 11.2138L40.5745 11.2173L41.4292 12.3459C41.8993 12.9667 42.2838 13.5009 42.2838 13.5331C42.2838 13.5654 34.2954 13.5806 24.5317 13.5668L6.77966 13.5417L6.75211 12.376L6.72467 11.2103H14.3507H21.9767L22.2164 10.9668C22.522 10.6564 22.522 10.2761 22.2164 9.96577L21.9767 9.72222H19.2862C17.8065 9.72222 16.5958 9.6874 16.5958 9.64494C16.5958 9.48939 16.0136 2.71498 15.9643 2.29851C15.9361 2.05883 15.953 1.88343 16.0027 1.90169C16.0518 1.91974 20.4084 3.6756 25.6841 5.80357ZM5.14519 9.50734C5.24121 9.56925 5.26299 10.2271 5.24287 12.4572L5.21689 15.3274H3.3611H1.50531L1.47933 12.512C1.46097 10.5178 1.48577 9.65704 1.5646 9.56062C1.65094 9.45496 2.04905 9.4249 3.3486 9.42609C4.26877 9.42698 5.07721 9.46349 5.14519 9.50734ZM14.74 15.1314C14.74 15.16 14.3225 15.7474 13.8121 16.4366L12.8842 17.6898V16.3845V15.0794H13.8121C14.3225 15.0794 14.74 15.1028 14.74 15.1314ZM29.0003 17.0068C29.0003 18.6268 28.9758 18.9591 28.8468 19.0902C28.714 19.225 28.2935 19.246 25.7282 19.246C23.163 19.246 22.7425 19.225 22.6096 19.0902C22.4807 18.9591 22.4562 18.6268 22.4562 17.0068V15.0794H25.7282H29.0003V17.0068ZM15.5842 21.1994C15.5454 21.2389 13.3726 19.6399 13.3726 19.5718C13.3726 19.5051 13.8693 18.8191 14.8296 17.5595L15.4726 16.7163L15.541 18.9449C15.5787 20.1707 15.5982 21.1852 15.5842 21.1994ZM13.9215 21.8813C14.4791 22.2941 14.9354 22.6505 14.9354 22.6734C14.9354 22.7329 12.6804 25.8929 12.6379 25.8929C12.589 25.8929 12.6859 22.0718 12.7481 21.5526C12.7758 21.3206 12.8231 21.131 12.8532 21.131C12.8832 21.131 13.3639 21.4687 13.9215 21.8813ZM15.8033 28.2986C15.8094 29.1035 15.7932 29.7619 15.7674 29.7619C15.6741 29.7619 13.239 27.9161 13.2099 27.8233C13.1935 27.7709 13.7398 26.9469 14.4239 25.9921L15.6679 24.256L15.73 25.5456C15.7642 26.255 15.7971 27.4937 15.8033 28.2986ZM38.0839 27.4306V29.4643H36.058H34.0322L36.0327 27.4306C37.133 26.312 38.0446 25.3968 38.0586 25.3968C38.0725 25.3968 38.0839 26.312 38.0839 27.4306ZM41.5513 27.4802L43.5029 29.4643H41.526H39.549V27.4802C39.549 26.3889 39.5604 25.496 39.5743 25.496C39.5882 25.496 40.4779 26.3889 41.5513 27.4802ZM13.4214 29.9123C13.7975 30.1918 14.3576 30.6083 14.6662 30.8379L15.2273 31.2555L13.836 33.033C13.0708 34.0108 12.4227 34.8132 12.3959 34.8163C12.369 34.8192 12.3752 33.9177 12.4096 32.8127C12.444 31.7076 12.477 30.455 12.4829 30.0289C12.491 29.4373 12.5224 29.2719 12.6156 29.3292C12.6828 29.3703 13.0454 29.6327 13.4214 29.9123ZM46.8745 31.6964V32.4405H38.7188H30.5631V31.6964V30.9524H38.7188H46.8745V31.6964ZM16.0542 36.0936L16.1252 39.0027L14.5291 37.8368C13.6513 37.1956 12.9186 36.6605 12.9008 36.6477C12.8831 36.6349 13.541 35.7709 14.3627 34.7279C15.5175 33.262 15.8711 32.8714 15.9199 33.0079C15.9547 33.1051 16.015 34.4936 16.0542 36.0936ZM13.8681 39.1952L15.2351 40.1993L14.9075 40.6106C14.7273 40.8368 14.0162 41.7361 13.3272 42.6091L12.0743 44.1964L12.1372 42.0139C12.1718 40.8135 12.2001 39.4359 12.2003 38.9527C12.2005 38.2027 12.2225 38.0825 12.3508 38.1325C12.4335 38.1648 13.1163 38.6431 13.8681 39.1952ZM16.2789 44.601C16.253 44.6273 15.65 44.6363 14.939 44.621L13.6462 44.5933L14.9013 42.9978L16.1563 41.4025L16.2411 42.9779C16.2877 43.8443 16.3047 44.5747 16.2789 44.601Z" fill="#FF4C13"/>
</svg>
