<svg width="20" height="41" viewBox="0 0 20 41" fill="none" xmlns="http://www.w3.org/2000/svg">
<path d="M0 0.791687H20V17.0417C20 17.8056 19.8003 18.5174 19.401 19.1771C19.0017 19.8368 18.4549 20.375 17.7604 20.7917L10.5729 25.0104L11.9792 30.0625H18.2813L13.125 33.8125L15.1563 40.1667L10 36.3125L4.84375 40.1667L6.82292 33.8125L1.71875 30.0625H8.02083L9.375 25.0104L2.23958 20.8438C1.51042 20.4271 0.954861 19.8889 0.572917 19.2292C0.190972 18.5695 0 17.8403 0 17.0417V0.791687ZM2.34375 3.13544V17.0417C2.34375 17.4236 2.4566 17.7795 2.68229 18.1094C2.90799 18.4393 3.21181 18.7084 3.59375 18.9167L8.95833 21.9375V3.13544H2.34375ZM17.6563 3.13544H11.3542V21.9375L16.4062 18.9167C16.7882 18.7084 17.092 18.4393 17.3177 18.1094C17.5434 17.7795 17.6563 17.4236 17.6563 17.0417V3.13544Z" fill="#FF4C13"/>
</svg>
