<svg width="10" height="8" viewBox="0 0 10 8" fill="none" xmlns="http://www.w3.org/2000/svg">
<path d="M2.27285 3.78963C2.16168 3.78963 2.055 3.80553 1.94881 3.82002C1.98321 3.71154 2.01861 3.60119 2.07544 3.50205C2.13227 3.35803 2.221 3.23318 2.30924 3.1074C2.38302 2.97133 2.51313 2.87921 2.60885 2.76278C2.70905 2.64962 2.84564 2.57433 2.95382 2.48034C3.06001 2.38215 3.19909 2.33305 3.30976 2.26384C3.42542 2.20165 3.52612 2.13292 3.6338 2.10018L3.9025 1.99638L4.13879 1.90426L3.89701 0.998047L3.5994 1.06538C3.50418 1.08783 3.38803 1.11401 3.25592 1.14534C3.12082 1.16872 2.97675 1.23278 2.81623 1.29123C2.6577 1.35763 2.47425 1.40252 2.30376 1.50914C2.13227 1.61107 1.93436 1.69618 1.75988 1.83272C1.59088 1.97346 1.38699 2.09551 1.23643 2.2746C1.07192 2.442 0.909407 2.61782 0.783282 2.81795C0.637217 3.00873 0.538012 3.21822 0.433324 3.42537C0.338606 3.63252 0.262333 3.84434 0.200018 4.05008C0.08187 4.46251 0.0290272 4.85436 0.00858807 5.18963C-0.00836149 5.52537 0.00160884 5.80453 0.0225465 6.00653C0.0300243 6.10192 0.0439828 6.19451 0.0539531 6.25857L0.0664159 6.33712L0.0793773 6.33432C0.168044 6.72282 0.372158 7.07983 0.668107 7.36406C0.964056 7.64829 1.33975 7.84813 1.75172 7.94045C2.16369 8.03277 2.59511 8.0138 2.99607 7.88574C3.39703 7.75769 3.75115 7.52577 4.01746 7.21682C4.28377 6.90787 4.45139 6.53451 4.50093 6.13994C4.55046 5.74536 4.4799 5.34569 4.29739 4.98717C4.11488 4.62864 3.82789 4.32591 3.46961 4.11398C3.11134 3.90206 2.69642 3.7896 2.27285 3.78963ZM7.75653 3.78963C7.64536 3.78963 7.53867 3.80553 7.43249 3.82002C7.46689 3.71154 7.50228 3.60119 7.55911 3.50205C7.61594 3.35803 7.70468 3.23318 7.79292 3.1074C7.8667 2.97133 7.99681 2.87921 8.09253 2.76278C8.19273 2.64962 8.32932 2.57433 8.4375 2.48034C8.54368 2.38215 8.68277 2.33305 8.79344 2.26384C8.9091 2.20165 9.0098 2.13292 9.11748 2.10018L9.38618 1.99638L9.62247 1.90426L9.38069 0.998047L9.08308 1.06538C8.98786 1.08783 8.87171 1.11401 8.7396 1.14534C8.6045 1.16872 8.46043 1.23278 8.29991 1.29123C8.14188 1.3581 7.95793 1.40252 7.78743 1.5096C7.61594 1.61154 7.41803 1.69664 7.24355 1.83318C7.07456 1.97393 6.87066 2.09598 6.72011 2.2746C6.5556 2.442 6.39308 2.61782 6.26696 2.81795C6.12089 3.00873 6.02169 3.21822 5.917 3.42537C5.82228 3.63252 5.74601 3.84434 5.6837 4.05008C5.56555 4.46251 5.5127 4.85436 5.49227 5.18963C5.47532 5.52537 5.48529 5.80453 5.50622 6.00653C5.5137 6.10192 5.52766 6.19451 5.53763 6.25857L5.55009 6.33712L5.56306 6.33432C5.65172 6.72282 5.85584 7.07983 6.15178 7.36406C6.44773 7.64829 6.82342 7.84813 7.2354 7.94045C7.64737 8.03277 8.07879 8.0138 8.47975 7.88574C8.88071 7.75769 9.23483 7.52577 9.50114 7.21682C9.76745 6.90787 9.93507 6.53451 9.9846 6.13994C10.0341 5.74536 9.96357 5.34569 9.78107 4.98717C9.59856 4.62864 9.31157 4.32591 8.95329 4.11398C8.59501 3.90206 8.18009 3.7896 7.75653 3.78963Z" fill="#FF4C13"/>
</svg>
