<svg width="60" height="42" viewBox="0 0 60 42" fill="none" xmlns="http://www.w3.org/2000/svg">
<path opacity="0.2" d="M46.3629 25.2505C47.0299 25.2505 47.67 25.1551 48.3071 25.0681C48.1007 25.719 47.8884 26.3812 47.5474 26.976C47.2064 27.8401 46.674 28.5892 46.1446 29.3439C45.7019 30.1603 44.9212 30.713 44.3469 31.4116C43.7457 32.0906 42.9261 32.5423 42.2771 33.1062C41.64 33.6954 40.8055 33.99 40.1414 34.4052C39.4475 34.7784 38.8433 35.1908 38.1972 35.3872L36.585 36.01L35.1672 36.5627L36.6179 42L38.4036 41.596C38.9749 41.4613 39.6718 41.3042 40.4645 41.1162C41.2751 40.976 42.1395 40.5916 43.1026 40.2409C44.0538 39.8425 45.1545 39.5731 46.1775 38.9335C47.2064 38.3218 48.3939 37.8112 49.4407 36.992C50.4547 36.1475 51.6781 35.4152 52.5814 34.3407C53.5685 33.3363 54.5436 32.2814 55.3003 31.0806C56.1767 29.9359 56.7719 28.679 57.4001 27.4361C57.9684 26.1932 58.426 24.9222 58.7999 23.6878C59.5088 21.2132 59.8258 18.8621 59.9485 16.8505C60.0502 14.8361 59.9903 13.1611 59.8647 11.9491C59.8199 11.3768 59.7361 10.8212 59.6763 10.4369L59.6015 9.96554L59.5237 9.98237C58.9917 7.65138 57.7671 5.5093 55.9914 3.80391C54.2157 2.09852 51.9615 0.899509 49.4897 0.345589C47.0178 -0.208336 44.4293 -0.0945358 42.0236 0.673817C39.6178 1.44217 37.4931 2.83369 35.8952 4.68739C34.2974 6.54109 33.2917 8.78123 32.9944 11.1487C32.6972 13.5161 33.1206 15.9141 34.2157 18.0653C35.3107 20.2164 37.0327 22.0328 39.1823 23.3044C41.332 24.5759 43.8215 25.2507 46.3629 25.2505ZM13.4608 25.2505C14.1279 25.2505 14.768 25.1551 15.4051 25.0681C15.1987 25.719 14.9863 26.3812 14.6453 26.976C14.3043 27.8401 13.7719 28.5892 13.2425 29.3439C12.7998 30.1603 12.0191 30.713 11.4448 31.4116C10.8436 32.0906 10.0241 32.5423 9.37501 33.1062C8.7379 33.6954 7.90339 33.99 7.23936 34.4052C6.54543 34.7784 5.94123 35.1908 5.29515 35.3872L3.68295 36.01L2.26517 36.5627L3.71585 42L5.50154 41.596C6.07283 41.4613 6.76976 41.3042 7.5624 41.1162C8.37299 40.976 9.23742 40.5916 10.2005 40.2409C11.1487 39.8397 12.2524 39.5731 13.2754 38.9307C14.3043 38.319 15.4918 37.8084 16.5387 36.9892C17.5527 36.1447 18.776 35.4124 19.6793 34.3407C20.6664 33.3363 21.6415 32.2814 22.3982 31.0806C23.2746 29.9359 23.8699 28.679 24.498 27.4361C25.0663 26.1932 25.5239 24.9222 25.8978 23.6878C26.6067 21.2132 26.9238 18.8621 27.0464 16.8505C27.1481 14.8361 27.0883 13.1611 26.9627 11.9491C26.9178 11.3768 26.834 10.8212 26.7742 10.4369L26.6994 9.96554L26.6217 9.98237C26.0897 7.65138 24.865 5.5093 23.0893 3.80391C21.3136 2.09852 19.0595 0.899509 16.5876 0.345589C14.1158 -0.208336 11.5273 -0.0945358 9.1215 0.673817C6.71573 1.44217 4.59103 2.83369 2.99318 4.68739C1.39532 6.54109 0.38961 8.78123 0.0923805 11.1487C-0.204845 13.5161 0.218552 15.9141 1.3136 18.0653C2.40865 20.2164 4.1306 22.0328 6.28026 23.3044C8.42992 24.5759 10.9194 25.2507 13.4608 25.2505Z" fill="#FF4C13"/>
</svg>
