<svg width="32" height="26" viewBox="0 0 32 26" fill="none" xmlns="http://www.w3.org/2000/svg">
<path d="M24.1375 7.7125H26.2375V5.575H24.1375V7.7125ZM24.1375 13.975H26.2375V11.875H24.1375V13.975ZM24.1375 20.275H26.2375V18.175H24.1375V20.275ZM21.6625 25.75V24.0625H30.0625V1.9375H15.1375V6.175L13.45 5.0125V0.25H31.75V25.75H21.6625ZM0.25 25.75V12.1375L9.7375 5.35L19.225 12.1375V25.75H11.8V18.5875H7.675V25.75H0.25ZM1.9375 24.0625H5.9875V16.9H13.525V24.0625H17.5375V13.0375L9.7375 7.4875L1.9375 13.0375V24.0625ZM13.525 24.0625V16.9H5.9875V24.0625V16.9H9.7375H13.525V24.0625Z" fill="#FF4C13"/>
</svg>
