<svg width="80" height="80" viewBox="0 0 80 80" fill="none" xmlns="http://www.w3.org/2000/svg">
<path opacity="0.05" d="M23.6631 41.856L24.3668 41.1513L23.665 40.4447L2.31639 18.9505L2.3145 18.9486C1.86492 18.4983 1.54049 18.0135 1.32659 17.4933C1.10107 16.9448 1 16.4416 1 15.977C1 15.5124 1.10107 15.0092 1.32659 14.4607C1.54049 13.9405 1.86492 13.4557 2.3145 13.0054L12.874 2.43074C13.3325 1.97161 13.8315 1.61899 14.3718 1.36435L13.9483 0.46569L14.3718 1.36435C14.912 1.10979 15.3981 1 15.8393 1C16.2829 1 16.7944 1.11097 17.3839 1.37336C17.9461 1.6236 18.3965 1.95847 18.7525 2.37439L18.7783 2.40458L18.8065 2.43262L40.3847 23.9269L41.0923 24.6317L41.798 23.925L63.8353 1.85602C64.0174 1.67366 64.2274 1.55131 64.4816 1.48191C64.8283 1.3872 65.1411 1.34483 65.4232 1.34483C65.7991 1.34483 66.1215 1.39187 66.3981 1.47496C66.6223 1.54232 66.8784 1.67279 67.1655 1.89603L78.141 13.0018L78.1446 13.0054C78.3599 13.2211 78.5119 13.4531 78.6122 13.7043L79.5409 13.3333L78.6122 13.7043C78.713 13.9567 78.7704 14.2505 78.7704 14.5977C78.7704 14.9449 78.713 15.2387 78.6122 15.4911L79.5161 15.8521L78.6122 15.4911C78.5119 15.7423 78.3599 15.9743 78.1446 16.19L56.1073 38.2589L55.4017 38.9655L56.1073 39.6721L77.6855 61.2813C78.0452 61.6415 78.3626 62.1092 78.6269 62.7045L79.5409 62.2988L78.6269 62.7045C78.889 63.2952 79 63.8079 79 64.2529C79 64.6954 78.8902 65.1829 78.6358 65.7241C78.3733 66.2828 78.0484 66.79 77.6608 67.2485L67.0189 77.6766L66.9876 77.7072L66.9591 77.7405C66.6023 78.1574 66.1771 78.4655 65.6733 78.6732C65.1411 78.8927 64.6009 79 64.0459 79C63.5826 79 63.0807 78.8989 62.5333 78.6732C62.0295 78.4655 61.6043 78.1574 61.2475 77.7405L61.2208 77.7093L61.1916 77.6804L39.6134 56.3011L38.9077 55.6019L38.2038 56.303L16.4592 77.9655H2.033V63.5172L23.6631 41.856ZM26.0356 38.1779L26.7394 38.8827L27.447 38.1817L38.1213 27.607L38.8345 26.9004L38.1251 26.19L28.8281 16.8796L28.113 16.1635L27.4055 16.8871L22.7185 21.6807L20.4589 19.4179L25.1626 14.6072L25.8534 13.9006L25.1552 13.2014L16.5469 4.58076L15.8355 3.86829L15.1279 4.58459L4.56835 15.2742L3.87037 15.9808L4.57216 16.6836L26.0356 38.1779ZM63.2235 75.5342L63.9311 76.2428L64.6387 75.5342L75.3131 64.8445L76.0187 64.1379L75.3131 63.4313L66.7048 54.8106L65.9971 54.102L65.2895 54.8106L60.4878 59.6193L58.2281 57.3563L63.0319 52.5457L63.7418 51.8347L63.0275 51.1281L53.7305 41.9327L53.019 41.229L52.3158 41.9409L41.7563 52.6306L41.0583 53.3371L41.7601 54.0399L63.2235 75.5342ZM5.31277 73.7931V74.7931H6.31277H14.5768H14.9907L15.2835 74.5006L62.3423 27.4891L63.0496 26.7825L62.3432 26.075L53.9644 17.6842L53.2568 16.9756L52.5492 17.6842L5.60515 64.6957L5.31277 64.9885V65.4023V73.7931ZM64.6009 23.81L65.3085 24.5187L66.0161 23.81L74.3948 15.4192L75.1004 14.7126L74.3948 14.006L66.0161 5.61524L65.3085 4.90661L64.6009 5.61524L56.2221 14.006L55.5165 14.7126L56.2221 15.4192L64.6009 23.81Z" stroke="#000F57" stroke-width="2"/>
</svg>
