<svg width="27" height="36" viewBox="0 0 27 36" fill="none" xmlns="http://www.w3.org/2000/svg">
<path fill-rule="evenodd" clip-rule="evenodd" d="M15.3557 0.123898C15.0344 0.321651 14.9772 0.578679 14.9772 1.82489V2.93411L7.78465 2.96177C2.01465 2.98395 0.55518 3.00782 0.40528 3.0823C-0.0349252 3.3011 -0.12004 3.94617 0.245953 4.29021C0.394447 4.42982 0.514874 4.46326 0.948255 4.48515L1.47139 4.51162V7.49586V10.4802H1.08226C0.583387 10.4802 0.243773 10.6237 0.104353 10.8935C-0.0347845 11.1629 -0.0347845 11.3462 0.104353 11.6156C0.243773 11.8854 0.583387 12.029 1.08226 12.029H1.47139V19.5188V27.0086L0.948255 27.0351C0.514874 27.057 0.394447 27.0904 0.245953 27.23C0.00179377 27.4596 -0.0601078 27.8274 0.0964048 28.1182C0.256223 28.4152 0.465352 28.5024 1.01747 28.5024H1.47139V31.5296V34.5568H1.01747C0.465352 34.5568 0.256223 34.644 0.0964048 34.9411C-0.0603892 35.2324 0.001864 35.5998 0.247149 35.8303L0.427578 36H13.5H26.5724L26.7529 35.8303C26.9981 35.5998 27.0604 35.2324 26.9036 34.9411C26.7438 34.644 26.5346 34.5568 25.9825 34.5568H25.5286V31.5296V28.5024H25.9825C26.5346 28.5024 26.7438 28.4152 26.9036 28.1182C27.0601 27.8274 26.9982 27.4596 26.754 27.23C26.6056 27.0904 26.4851 27.057 26.0517 27.0351L25.5286 27.0086V19.5188V12.029H25.9177C26.4166 12.029 26.7562 11.8854 26.8956 11.6156C27.0348 11.3462 27.0348 11.1629 26.8956 10.8935C26.7562 10.6237 26.4166 10.4802 25.9177 10.4802H25.5286V7.49586V4.51162L26.0517 4.48515C26.4851 4.46326 26.6056 4.42982 26.754 4.29021C27.1103 3.95532 27.0348 3.29068 26.6191 3.10109C26.5273 3.05928 25.5982 3.00507 24.4846 2.9767L22.5125 2.92636L22.4906 1.67114L22.4687 0.415845L22.2737 0.220838L22.0787 0.0258316L18.8269 0.00731656C15.7265 -0.0102833 15.5649 -0.00486256 15.3557 0.123898ZM21.0115 2.22582L21.0316 2.94741H18.7782H16.5247V2.20723V1.46705L18.7581 1.48564L20.9915 1.50422L21.0115 2.22582ZM23.9811 7.48818V10.4802H13.5H3.01893V7.48818V4.4962H13.5H23.9811V7.48818ZM23.9811 19.5265V27.0241H13.5H3.01893V19.5265V12.029H13.5H23.9811V19.5265ZM13.0926 14.392C12.9095 14.5203 12.1356 15.5335 11.3752 16.6401C9.93123 18.7416 9.10653 20.4298 9.01931 21.4625C8.89635 22.9193 9.84654 24.3418 11.4197 25.0556C12.47 25.5322 13.7288 25.6388 14.7982 25.3417C16.7911 24.7879 18.1243 23.1629 17.9807 21.4625C17.8839 20.3161 16.921 18.4506 15.1301 15.9393C14.1204 14.5236 13.8867 14.2817 13.5277 14.2817C13.3749 14.2817 13.1792 14.3314 13.0926 14.392ZM14.0875 17.067C15.2687 18.7532 16.2218 20.4584 16.4236 21.2468C16.603 21.9477 16.38 22.5916 15.7553 23.1764C14.5779 24.2786 12.4219 24.2784 11.2443 23.1761C10.486 22.4662 10.3385 21.7436 10.7459 20.734C11.2073 19.5909 13.3061 16.2704 13.5218 16.3423C13.5634 16.3562 13.8179 16.6824 14.0875 17.067ZM23.9811 31.4944V34.4864H13.5H3.01893V31.4944V28.5024H13.5H23.9811V31.4944Z" fill="#FF4C13"/>
</svg>
