<svg width="22" height="29" viewBox="0 0 22 29" fill="none" xmlns="http://www.w3.org/2000/svg">
<path d="M11 28.425C10.375 28.425 9.8375 28.2562 9.3875 27.9187C8.9375 27.5812 8.675 27.1375 8.6 26.5875H7.775C7.35 26.5875 6.9625 26.4188 6.6125 26.0813C6.2625 25.7438 6.0875 25.35 6.0875 24.9V19.95C4.4375 18.95 3.15625 17.6562 2.24375 16.0687C1.33125 14.4812 0.875 12.75 0.875 10.875C0.875 8.05 1.85625 5.65625 3.81875 3.69375C5.78125 1.73125 8.175 0.75 11 0.75C13.825 0.75 16.2188 1.73125 18.1813 3.69375C20.1438 5.65625 21.125 8.05 21.125 10.875C21.125 12.75 20.6687 14.4812 19.7562 16.0687C18.8437 17.6562 17.5625 18.95 15.9125 19.95V24.9C15.9125 25.35 15.7375 25.7438 15.3875 26.0813C15.0375 26.4188 14.65 26.5875 14.225 26.5875H13.4C13.325 27.1375 13.0625 27.5812 12.6125 27.9187C12.1625 28.2562 11.625 28.425 11 28.425ZM7.775 24.9H14.225V23.2875H7.775V24.9ZM7.775 21.9375H14.225V20.4375H7.775V21.9375ZM7.4375 18.75H10.2875V13.575L6.9875 10.2375L7.925 9.3L11 12.375L14.075 9.3L15.0125 10.2375L11.7125 13.575V18.75H14.5625C16.0125 18.05 17.1875 16.9937 18.0875 15.5812C18.9875 14.1687 19.4375 12.6 19.4375 10.875C19.4375 8.525 18.6188 6.53125 16.9813 4.89375C15.3438 3.25625 13.35 2.4375 11 2.4375C8.65 2.4375 6.65625 3.25625 5.01875 4.89375C3.38125 6.53125 2.5625 8.525 2.5625 10.875C2.5625 12.6 3.0125 14.1687 3.9125 15.5812C4.8125 16.9937 5.9875 18.05 7.4375 18.75Z" fill="#FF4C13"/>
</svg>
