<svg width="100" height="80" viewBox="0 0 100 80" fill="none" xmlns="http://www.w3.org/2000/svg">
<path opacity="0.05" d="M42.9048 14.4122V1H99V79H68.9762V75.7059H94.6429H95.6429V74.7059V5.29412V4.29412H94.6429H47.2619H46.2619V5.29412V16.6977L42.9048 14.4122ZM22.5714 57.5294V79H1V37.8118L30.119 17.2247L59.2381 37.8118V79H37.6667V57.5294V56.5294H36.6667H23.5714H22.5714V57.5294ZM4.35714 74.7059V75.7059H5.35714H18.2143H19.2143V74.7059V53.2353H30.119H41.1429V74.7059V75.7059H42.1429H54.881H55.881V74.7059V40.1176V39.5983L55.4562 39.2996L30.6942 21.8879L30.119 21.4834L29.5438 21.8879L4.78194 39.2996L4.35714 39.5983V40.1176V74.7059ZM81.5 17.7059V22.4118H76.8333V17.7059H81.5ZM81.5 37.4706V42.0588H76.8333V37.4706H81.5ZM81.5 57.2353V61.8235H76.8333V57.2353H81.5Z" stroke="#000F57" stroke-width="2"/>
</svg>
