<svg width="45" height="60" viewBox="0 0 45 60" fill="none" xmlns="http://www.w3.org/2000/svg">
<path fill-rule="evenodd" clip-rule="evenodd" d="M25.5929 0.206497C25.0573 0.536084 24.962 0.964466 24.962 3.04149V4.89018L12.9744 4.93629C3.35775 4.97325 0.9253 5.01303 0.675466 5.13716C-0.0582086 5.50183 -0.200066 6.57695 0.409922 7.15036C0.657411 7.38303 0.858123 7.43876 1.58043 7.47525L2.45232 7.51937V12.4931V17.4669H1.80376C0.972312 17.4669 0.406288 17.7062 0.173922 18.1559C-0.0579741 18.6048 -0.0579741 18.9104 0.173922 19.3593C0.406288 19.809 0.972312 20.0483 1.80376 20.0483H2.45232V32.5314V45.0144L1.58043 45.0585C0.858123 45.095 0.657411 45.1507 0.409922 45.3834C0.00298963 45.766 -0.10018 46.379 0.160675 46.8637C0.427039 47.3587 0.775587 47.5041 1.69579 47.5041H2.45232V52.5494V57.5947H1.69579C0.775587 57.5947 0.427039 57.7401 0.160675 58.2351C-0.100649 58.7206 0.00310666 59.333 0.411915 59.7172L0.712631 60H22.5H44.2874L44.5881 59.7172C44.9969 59.333 45.1007 58.7206 44.8393 58.2351C44.573 57.7401 44.2244 57.5947 43.3042 57.5947H42.5477V52.5494V47.5041H43.3042C44.2244 47.5041 44.573 47.3587 44.8393 46.8637C45.1002 46.379 44.997 45.766 44.5901 45.3834C44.3426 45.1507 44.1419 45.095 43.4196 45.0585L42.5477 45.0144V32.5314V20.0483H43.1962C44.0277 20.0483 44.5937 19.809 44.8261 19.3593C45.058 18.9104 45.058 18.6048 44.8261 18.1559C44.5937 17.7062 44.0277 17.4669 43.1962 17.4669H42.5477V12.4931V7.51937L43.4196 7.47525C44.1419 7.43876 44.3426 7.38303 44.5901 7.15036C45.1838 6.59221 45.058 5.48447 44.3651 5.16849C44.2122 5.0988 42.6636 5.00845 40.8076 4.96116L37.5209 4.87727L37.4843 2.78523L37.4478 0.693075L37.1228 0.368064L36.7979 0.0430527L31.3782 0.0121943C26.2108 -0.0171389 25.9415 -0.00810427 25.5929 0.206497ZM35.0192 3.7097L35.0527 4.91235H31.2969H27.5412V3.67872V2.44509L31.2635 2.47606L34.9858 2.50704L35.0192 3.7097ZM39.9684 12.4803V17.4669H22.5H5.03156V12.4803V7.49367H22.5H39.9684V12.4803ZM39.9684 32.5442V45.0401H22.5H5.03156V32.5442V20.0483H22.5H39.9684V32.5442ZM21.8211 23.9866C21.5159 24.2005 20.2259 25.8892 18.9587 27.7335C16.5521 31.236 15.1776 34.0497 15.0322 35.7708C14.8273 38.1989 16.4109 40.5696 19.0328 41.7594C20.7834 42.5537 22.8813 42.7313 24.6636 42.2361C27.9852 41.3131 30.2071 38.6049 29.9678 35.7708C29.8065 33.8602 28.2017 30.751 25.2169 26.5655C23.534 24.2059 23.1445 23.8029 22.5462 23.8029C22.2916 23.8029 21.9653 23.8856 21.8211 23.9866ZM23.4792 28.445C25.4478 31.2553 27.0363 34.0973 27.3726 35.4113C27.6717 36.5795 27.3001 37.6526 26.2589 38.6273C24.2966 40.4644 20.7032 40.464 18.7405 38.6268C17.4767 37.4436 17.2309 36.2393 17.9099 34.5567C18.6789 32.6514 22.1768 27.1173 22.5363 27.2372C22.6057 27.2603 23.0299 27.8039 23.4792 28.445ZM39.9684 52.4907V57.4774H22.5H5.03156V52.4907V47.5041H22.5H39.9684V52.4907Z" fill="#FF4C13"/>
</svg>
