<?xml version="1.0" encoding="utf-8"?>
<!-- Generator: Adobe Illustrator 23.0.3, SVG Export Plug-In . SVG Version: 6.00 Build 0)  -->
<svg version="1.1" id="katman_1" xmlns="http://www.w3.org/2000/svg" xmlns:xlink="http://www.w3.org/1999/xlink" x="0px" y="0px"
	 viewBox="0 0 1900 414" style="enable-background:new 0 0 1900 414;" xml:space="preserve">
<style type="text/css">
	.st0{clip-path:url(#SVGID_2_);}
	.st1{fill:#B6EF00;}
	.st2{fill-rule:evenodd;clip-rule:evenodd;fill:#1b1b1b;}
</style>
<g>
	<defs>
		<rect id="SVGID_1_" width="1900" height="414"/>
	</defs>
	<clipPath id="SVGID_2_">
		<use xlink:href="#SVGID_1_"  style="overflow:visible;"/>
	</clipPath>
	<g id="logo-monday" class="st0">
		<g id="g853" transform="translate(2 2)">
			<g id="g847" transform="translate(0 98.974)">
				<path id="path841" class="st1" d="M46.7,225.1c-16.9,0-32.5-9-40.9-23.7c-8.2-14.6-7.7-32.5,1.3-46.7L91.3,22.6
					c13.6-22.2,42.6-29.2,64.8-15.7c7.1,4.4,13,10.5,17,17.9c7.8,14.8,6.9,32.7-2.5,46.6L86.4,203.5C77.7,217,62.8,225.2,46.7,225.1
					z"/>
				<path id="path843" class="st1" d="M191,225.1c-16.9,0.1-32.5-9-40.8-23.7c-8.2-14.6-7.7-32.5,1.3-46.5l84-131.8
					C248.8,0.7,277.7-6.7,300,6.6c7.4,4.4,13.5,10.7,17.5,18.3c7.8,14.9,6.6,33-3,46.8l-84,131.8C221.9,217,207,225.2,191,225.1z"/>
				<ellipse id="ellipse845" class="st1" cx="332.1" cy="183.8" rx="43.3" ry="42.4"/>
			</g>
			<path id="path851" class="st2" d="M1896.3,109.7h-63.3l-44.4,114.4l-44.1-114.4h-63.3l77,180.8L1710.2,410h62.8L1896.3,109.7z
				 M1511.3,210.3c0,28.9,25.2,47.9,50,47.9c24.4,0,48.3-17.7,48.3-47.9s-23.9-47.9-48.3-47.9
				C1536.5,162.4,1511.3,181.4,1511.3,210.3L1511.3,210.3z M1609.6,311.2v-22.9c-12.8,19.4-42.8,26.8-58.2,26.8
				c-50.9,0-101.8-40.1-101.8-104.9c0-64.7,50.9-104.8,101.8-104.8c12.8,0,42.8,4.3,58.2,26.7v-22.4h59v201.4L1609.6,311.2
				L1609.6,311.2z M1432.9,311.2h-59v-25c-9.9,18.5-33.8,29.3-58.6,29.3c-51.3,0-96.7-41-96.7-104.5c0-64.7,45.3-105.7,96.7-105.7
				c24.8,0,48.8,10.3,58.6,28.9V0h59V311.2z M1372.6,209.8c0-30.2-21.8-47.9-46.2-47.9c-25.2,0-46.2,19-46.2,47.9
				c0,29.8,21,48.7,46.2,48.7C1351.2,258.6,1372.6,238.7,1372.6,209.8L1372.6,209.8z M1072.7,204.6c0-30.6,15.8-41,36.8-41
				c20.1,0,34.6,13.4,34.6,40.1v107.4h59.4V190.8c0-57.4-28.2-85.4-73.1-85.4c-23.5,0-47,13.4-57.7,33.7v-29.3h-59.4v201.5h59.4
				L1072.7,204.6z M892.6,314.7c-56.4,0-103.5-41.4-103.5-104.8c0-63.5,47-104.5,103.5-104.5s103.9,41,103.9,104.5
				S949.1,314.7,892.6,314.7L892.6,314.7z M892.6,256c24.8,0,45.3-18.1,45.3-46.2c0-27.2-20.5-45.7-45.3-45.7
				c-12.1-0.2-23.7,4.6-32.1,13.2c-8.5,8.7-13.1,20.4-12.8,32.5C847.7,237.9,868.3,256,892.6,256L892.6,256z M682.5,163.7
				c17.5,0,32.9,13.8,32.9,40.1v107.5h59V196.8c0-60.8-29.6-91.5-77-91.5c-14.1,0-40.6,4.3-59.9,35.8
				c-11.1-23.3-32.5-35.4-64.1-35.4c-22.4-0.1-42.8,12.9-52.2,33.2v-29.2h-59.5v201.4h59.4V204.6c0-30.6,16.7-41,34.6-41
				c17.1,0,32.5,13.4,32.9,38.8v108.7h59.4V204.6C648.3,175.3,663.7,163.7,682.5,163.7L682.5,163.7z"/>
		</g>
	</g>
</g>
</svg>
