<?xml version="1.0" encoding="utf-8"?>
<!-- Generator: Adobe Illustrator 23.0.3, SVG Export Plug-In . SVG Version: 6.00 Build 0)  -->
<svg version="1.1" id="katman_1" xmlns="http://www.w3.org/2000/svg" xmlns:xlink="http://www.w3.org/1999/xlink" x="0px" y="0px"
	 viewBox="0 0 1900 502" style="enable-background:new 0 0 1900 502;" xml:space="preserve">
<style type="text/css">
	.st0{clip-path:url(#SVGID_2_);}
	.st1{fill:#1b1b1b;}
</style>
<g>
	<defs>
		<rect id="SVGID_1_" width="1900" height="502"/>
	</defs>
	<clipPath id="SVGID_2_">
		<use xlink:href="#SVGID_1_"  style="overflow:visible;"/>
	</clipPath>
	<g id="logo-pingdom" class="st0">
		<g id="Page-1" transform="translate(1.999 2)">
			<g id="pingdom" transform="translate(0.001 0)">
				<path id="Shape" class="st1" d="M865.3,346c-14.4,7.4-28.6,12.5-43.7,14.6c-34.3,4.9-66.3-1.3-95.2-20.9
					c-33.5-22.7-53.9-53.9-59.2-94.1c-5.3-40.3,5.1-76.3,32.1-107c42.5-48.2,110.9-60.8,166.6-29.2c43.8,24.8,68.1,63.3,69.4,114
					c1.3,47.2,0.8,94.4,0.2,141.6c-0.8,66-50.2,121.6-115.6,130.9c-7.2,1.1-14.5,1.4-21.8,1.1c-16.9-1-30.5-14.1-32.2-30.9
					c-1.7-17.9,9-33.6,26.1-37.8c4-0.9,8.1-1.3,12.2-1.4c33.2-1.4,60.2-28.6,61.1-61.8C865.4,358.9,865.3,352.9,865.3,346z
					 M865.3,227.7c0.2-35.7-28.5-64.8-64.2-65.1c-35.7-0.2-64.8,28.5-65.1,64.2c-0.2,35.7,28.4,64.8,64.1,65.1
					C836.4,292.2,865.2,263.8,865.3,227.7L865.3,227.7z"/>
				<path id="Shape-2" class="st1" d="M1746.2,252.7c0,24.4,0.3,48.8-0.1,73.2c-0.4,24.8-23.4,41-46.9,33.3
					c-14.3-4.6-23.5-18.5-23.5-35.8c-0.1-38.3-0.1-76.6,0-114.9c0-10.3,0.1-20.7,0-31c-0.1-10.2-6.3-16.1-16.6-15.9
					c-34.4,0.9-62.2,28.8-62.5,63.2c-0.3,33.1,0,66.3-0.1,99.4c-0.1,19.1-12.1,33.8-29.5,36.4c-21.7,3.3-40.3-11.8-40.6-34.7
					c-0.5-37.6-0.7-75.2,0.9-112.7c1.3-32.7,16.1-60.4,39.1-83.1c25.2-24.9,55.9-38.1,91.6-38.9c16.1-0.5,32.1,2.1,47.1,7.8
					c3.6,1.5,7.6,1.6,11.3,0.3c52.7-17.4,99.7-6.9,139.6,31.2c25.4,24.3,39,55.1,39.7,90.6c0.7,34.7,0.3,69.5,0.2,104.2
					c-0.1,17.4-11.5,31.7-27.3,35.1c-16.4,3.5-32.5-4-39.3-19.4c-2.5-5.7-3.5-12.4-3.5-18.6c-0.3-31.9,0-63.8-0.2-95.7
					c-0.2-31.6-20.5-56.8-50.7-63.5c-3.8-0.8-7.7-1.3-11.6-1.4c-10.5-0.5-16.7,5.6-16.9,16.1c0,0.2,0,0.4,0,0.5L1746.2,252.7
					C1746.2,252.7,1746.2,252.7,1746.2,252.7z"/>
				<path id="Shape-3" class="st1" d="M70.7,346.1c0,24.2,0,47.5,0,70.8c0,15.4-6.3,27.2-20.3,34.3C28.9,462.1,2,446.7,0.3,422.6
					c-0.1-1.4-0.2-2.8-0.2-4.3c0-64.5-0.5-129,0.2-193.4c0.5-46.5,21-83.6,59.6-109.3c45.2-30.1,93-31.6,140.6-6.1
					c65.6,35.1,89,120.4,51.8,184.8C216.2,356.8,139,380,74.4,347.8C73.4,347.3,72.5,346.9,70.7,346.1z M199.6,227.3
					c0.2-35.6-28.5-64.6-64.1-64.8c-35.6-0.2-64.6,28.5-64.8,64.1c0,0.1,0,0.3,0,0.4c-0.1,36.3,28.3,65,64.5,64.9
					c35.5,0.1,64.3-28.6,64.4-64.1C199.6,227.7,199.6,227.5,199.6,227.3z"/>
				<path id="Shape-4" class="st1" d="M1152.2,108.6c0-3.1,0-5.2,0-7.3c0.2-23.3-0.2-46.7,0.6-70c0.6-17.6,16.5-31.3,34.4-31.3
					c18,0,33.6,14.1,34.9,31.7c0.1,1.4,0.2,2.8,0.2,4.3c0,64.7,0.5,129.4-0.2,194c-0.6,46.3-21,83.2-59.4,108.9
					c-45.4,30.3-93.3,31.8-141,6.1c-65.4-35.2-88.6-120.1-51.6-184.5c35.5-62.2,113.4-85.9,177.5-54
					C1148.8,107.1,1149.9,107.5,1152.2,108.6z M1022.9,227.6c0.3,36.2,28.9,64.6,65.1,64.4c35.7-0.3,64.4-29.4,64.2-65.1
					c-0.3-35.7-29.4-64.4-65.1-64.2C1051.5,162.9,1022.8,191.9,1022.9,227.6L1022.9,227.6z"/>
				<path id="Shape-5" class="st1" d="M1509.1,226.6c-0.6,75.2-61.2,135.3-135.7,134.7c-74.5-0.5-134.5-61.3-134-135.9
					c0-0.2,0-0.3,0-0.5c0.7-74.3,61.6-134.5,135.5-133.8C1449.8,91.7,1509.8,152.2,1509.1,226.6z M1309.8,226.3
					c0,35.7,29,64.6,64.7,64.6c35.7,0,64.6-29,64.6-64.7s-29-64.6-64.7-64.6c-0.1,0-0.3,0-0.4,0c-35.5,0.1-64.2,28.9-64.2,64.5
					C1309.8,226.1,1309.8,226.2,1309.8,226.3L1309.8,226.3z"/>
				<path id="Shape-6" class="st1" d="M649,269.4c0,18.5,0.1,37.1,0,55.6c-0.2,19.8-12.2,34.3-30.3,36.7
					c-20.7,2.8-38.6-11.8-39.9-32.7c-0.4-7.5-0.2-15-0.2-22.4c0-26.7,0.2-53.5-0.1-80.2c-0.3-30.2-21-55.5-50.5-62.2
					c-39.3-9-78,20.6-78.7,61c-0.6,33.5-0.1,67-0.2,100.5c-0.1,18.5-12,33.3-28.7,36c-22.5,3.5-41.1-11.3-41.4-34.8
					c-0.4-37.6-0.9-75.2,0.9-112.7c1.6-34,17.3-62.5,42.1-85.5c29.6-27.4,64.9-39.1,105-35.4c33.9,3.1,62.4,17.7,85.5,42.5
					c25.3,27.1,36.8,59.5,36.3,96.4C648.9,244.5,649,257,649,269.4z"/>
				<path id="Shape-7" class="st1" d="M357.4,227.8c0,32.6,0.1,65.2,0,97.8c-0.1,19.8-12.4,33.9-31.3,36.3
					c-18.1,2.3-34.9-9.9-38.4-27.9c-0.5-2.6-0.7-5.3-0.8-8c0-65.7,0-131.4,0-197.2c0-17.5,9.8-30.6,25.7-35.1
					c18.6-5.3,38,5.6,43.3,24.2c0.5,1.7,0.8,3.4,1,5.1c0.4,4.6,0.6,9.2,0.4,13.9C357.4,167.2,357.4,197.5,357.4,227.8z"/>
				<path id="Shape-8" class="st1" d="M321.8,0c19.4-0.1,35.3,15.5,35.5,35c0.1,19.4-15.5,35.3-35,35.5
					c-19.4,0.1-35.3-15.5-35.5-34.9C286.8,16.1,302.4,0.2,321.8,0z"/>
			</g>
		</g>
	</g>
</g>
</svg>
