<?xml version="1.0" encoding="utf-8"?>
<!-- Generator: Adobe Illustrator 23.0.3, SVG Export Plug-In . SVG Version: 6.00 Build 0)  -->
<svg version="1.1" id="katman_1" xmlns="http://www.w3.org/2000/svg" xmlns:xlink="http://www.w3.org/1999/xlink" x="0px" y="0px"
	 viewBox="0 0 1900 380" style="enable-background:new 0 0 1900 380;" xml:space="preserve">
<style type="text/css">
	.st0{clip-path:url(#SVGID_2_);}
	.st1{clip-path:url(#SVGID_4_);}
	.st2{fill:#B6EF00;}
	.st3{fill:#1b1b1b;}
</style>
<g>
	<defs>
		<rect id="SVGID_1_" width="1900" height="380"/>
	</defs>
	<clipPath id="SVGID_2_">
		<use xlink:href="#SVGID_1_"  style="overflow:visible;"/>
	</clipPath>
	<g id="logo-woocommerce" class="st0">
		<g>
			<defs>
				<rect id="SVGID_3_" x="50" y="7" width="1800" height="365.7"/>
			</defs>
			<clipPath id="SVGID_4_">
				<use xlink:href="#SVGID_3_"  style="overflow:visible;"/>
			</clipPath>
			<g id="logo-woocommerce_" transform="translate(50 7)" class="st1">
				<g id="_1012803_coding_development_logo_woocommerce_icon" transform="translate(1.895 1.895)">
					<path id="Path_8" class="st2" d="M56.5,0h495.3c31.3,0,56.7,25.3,56.7,56.6c0,0,0,0,0,0.1v188.9c0,31.3-25.4,56.7-56.7,56.7
						c0,0,0,0-0.1,0H374.2l24.4,59.6l-107.2-59.7H56.7C25.4,302.3,0,276.9,0,245.6c0,0,0,0,0-0.1V56.7C-0.1,25.5,25.1,0.1,56.2,0
						C56.3,0,56.4,0,56.5,0z"/>
					<path id="Path_9" class="st3" d="M54.4,51.5c3.5-4.7,8.7-7.2,15.7-7.7c12.7-1,19.9,5,21.6,17.9c7.7,52,16.1,96,25.1,132.1
						l54.5-103.7c5-9.5,11.2-14.4,18.7-14.9c10.9-0.7,17.7,6.2,20.4,20.9c6.2,33.1,14.2,61.2,23.6,85.1
						c6.5-63.2,17.4-108.8,32.8-136.8c3.7-7,9.2-10.4,16.4-10.9c5.7-0.5,11.3,1.3,15.7,5c4.5,3.4,7.3,8.6,7.7,14.2
						c0.3,4.1-0.5,8.3-2.5,11.9c-9.7,17.9-17.7,48-24.1,89.8c-6.2,40.5-8.5,72.1-7,94.8c0.6,5.6-0.4,11.3-3,16.4
						c-3,5.5-7.5,8.5-13.2,9c-6.5,0.5-13.2-2.5-19.7-9.2c-23.1-23.6-41.5-59-55-106c-16.2,31.8-28.1,55.7-35.8,71.6
						c-14.7,28.1-27.1,42.5-37.6,43.3c-6.7,0.5-12.4-5.2-17.4-17.2c-12.7-32.6-26.4-95.5-41-188.8C49.6,61.7,50.9,56,54.4,51.5z"/>
					<path id="Path_10" class="st3" d="M574.2,90.4c-9-15.7-22.1-25.1-39.8-28.9c-4.4-1-8.9-1.5-13.4-1.5
						c-23.9,0-43.3,12.4-58.5,37.3c-12.9,21.1-19.4,44.5-19.4,70.2c0,19.2,4,35.6,11.9,49.3c9,15.7,22.1,25.1,39.8,28.9
						c4.4,1,8.9,1.5,13.4,1.5c24.1,0,43.5-12.4,58.5-37.3c12.9-21.2,19.6-45.6,19.4-70.4C586.1,120.1,582.1,103.9,574.2,90.4
						L574.2,90.4z M542.8,159.4c-3.5,16.4-9.7,28.6-18.9,36.8c-7.2,6.5-13.9,9.2-20.2,8c-6-1.2-10.9-6.5-14.7-16.2
						c-2.9-7.2-4.4-14.9-4.5-22.6c-0.1-6.1,0.5-12.2,1.7-18.2c2.3-10.7,6.8-20.7,13.2-29.6c8.2-12.2,16.9-17.2,25.9-15.4
						c6,1.2,10.9,6.5,14.7,16.2c2.9,7.2,4.4,14.9,4.5,22.6C544.5,147.1,543.9,153.3,542.8,159.4L542.8,159.4z"/>
					<path id="Path_11" class="st3" d="M424.2,90.4c-9-15.7-22.4-25.1-39.8-28.9c-4.4-1-8.9-1.5-13.4-1.5
						c-23.9,0-43.3,12.4-58.5,37.3c-12.9,21.1-19.4,44.5-19.4,70.2c0,19.2,4,35.6,11.9,49.3c9,15.7,22.1,25.1,39.8,28.9
						c4.4,1,8.9,1.5,13.4,1.5c24.1,0,43.5-12.4,58.5-37.3c12.9-21.2,19.6-45.6,19.4-70.4C436.1,120.1,432.2,103.9,424.2,90.4
						L424.2,90.4z M392.9,159.4c-3.5,16.4-9.7,28.6-18.9,36.8c-7.2,6.5-13.9,9.2-20.2,8c-6-1.2-10.9-6.5-14.7-16.2
						c-2.9-7.2-4.4-14.9-4.5-22.6c-0.1-6.1,0.5-12.2,1.7-18.2c2.3-10.7,6.8-20.7,13.2-29.6c8.2-12.2,16.9-17.2,25.9-15.4
						c6,1.2,10.9,6.5,14.7,16.2c2.9,7.2,4.4,14.9,4.5,22.6C394.7,147.1,394.1,153.3,392.9,159.4L392.9,159.4z"/>
					<g id="Group_2" transform="translate(646.381 63.575)">
						<g id="Group_1">
							<path id="Path_12" class="st3" d="M24.9,24.6C8.2,41,0,61.9,0,87.3c0,27.1,8.2,49.3,24.6,65.9s37.8,25.1,64.4,25.1
								c8.8-0.1,17.5-1.4,25.9-4v-40.3c-8.7,2.5-16.2,3.7-22.6,3.7c-13.2,0-23.6-4.5-31.6-13.2c-8-9-11.9-20.9-11.9-36.1
								c0-14.2,4-25.9,11.7-34.8c8-9.2,17.7-13.7,29.6-13.7c8.4,0.1,16.8,1.4,24.9,3.7V3.5c-8.9-2.3-18-3.4-27.1-3.2
								C62.4,0,41.5,8.2,24.9,24.6z M197.5,0c-22.9,0-40.8,7.7-53.7,22.9s-19.2,36.6-19.2,63.9c0,29.6,6.5,52.2,19.2,67.9
								s31.3,23.6,55.7,23.6c23.6,0,41.8-8,54.5-23.6c12.7-15.7,19.2-37.8,19.2-66.2s-6.5-50.3-19.4-65.7C240.6,7.7,221.9,0,197.5,0
								L197.5,0z M217.2,129.4c-4.5,7-11.2,10.4-19.7,10.4c-8,0-13.9-3.5-18.2-10.4c-4.2-7-6.2-20.9-6.2-42
								c0-32.6,8.2-48.8,24.9-48.8c17.4,0,26.4,16.4,26.4,49.5C224.1,108.5,221.7,122.4,217.2,129.4L217.2,129.4z M396,4.7
								l-8.9,38.1c-2.2,9.7-4.5,19.7-6.5,29.9l-5,26.4c-4.7-26.4-11.2-57.7-19.4-94.3h-57.7l-21.6,169.4h43.3l11.7-116.7l29.6,116.7
								h30.8l28.4-116.4l12.2,116.4h45.3L455.3,4.7L396,4.7z M603.3,4.7l-9,38.1c-2.2,9.7-4.5,19.7-6.5,29.9l-5,26.4
								c-4.7-26.4-11.2-57.7-19.4-94.3h-57.7l-21.6,169.4h43.3l11.7-116.7l29.6,116.7h30.8l28.1-116.4l12.2,116.4h45.3L662.2,4.7
								L603.3,4.7L603.3,4.7z M744.1,107.2h40.5V72.1h-40.5V41h46.8V5h-92.5v169.4h92.8v-36.1h-47L744.1,107.2z M920,80.4
								c4.7-7.7,7.2-15.7,7.2-23.9c0-15.9-6.2-28.6-18.7-37.8s-29.6-13.9-51-13.9h-53.2v169.4H850V97h0.7l37.1,77.1h48.3l-36.6-76.4
								C908.3,93.8,915.2,88.1,920,80.4L920,80.4z M849.8,77.6V37.3c10.9,0.2,18.7,2,23.4,5.5s7,9,7,16.9
								C880.2,71.4,870,77.4,849.8,77.6L849.8,77.6z M954,24.6c-16.7,16.4-24.9,37.3-24.9,62.7c0,27.1,8.2,49.3,24.6,65.9
								s37.8,25.1,64.4,25.1c8.8-0.1,17.5-1.4,25.9-4v-40.3c-8.7,2.5-16.2,3.7-22.6,3.7c-13.2,0-23.6-4.5-31.6-13.2
								c-8-9-11.9-20.9-11.9-36.1c0-14.2,4-25.9,11.7-34.8c8-9.2,17.7-13.7,29.6-13.7c8.4,0.1,16.8,1.4,24.9,3.7V3.5
								c-8.9-2.3-18-3.4-27.1-3.2C991.9,0,970.7,8.2,954,24.6L954,24.6z M1102.6,137.8V107h40.5V71.9h-40.5V40.8h47V4.7H1057v169.4
								h92.8v-36.1h-47.3L1102.6,137.8z"/>
						</g>
					</g>
				</g>
			</g>
		</g>
	</g>
</g>
</svg>
