<svg width="26" height="41" viewBox="0 0 26 41" fill="none" xmlns="http://www.w3.org/2000/svg">
<path fill-rule="evenodd" clip-rule="evenodd" d="M12.6286 0.652463C12.4389 0.802651 11.8376 2.5438 10.2759 7.46618L10.1581 7.83735H6.43775C2.83682 7.83735 2.71244 7.84227 2.564 7.99168C2.35267 8.20438 2.29661 8.48803 2.41967 8.72191C2.47666 8.83014 3.83338 9.87583 5.43467 11.0458C7.03595 12.2157 8.36116 13.1861 8.37964 13.2022C8.39804 13.2183 8.01614 14.4529 7.5309 15.9457C6.18512 20.086 6.13799 20.2519 6.23054 20.519C6.32883 20.8028 6.73573 20.9982 7.00995 20.8932C7.11181 20.8543 8.49734 19.8683 10.0888 18.7021L12.9824 16.5819L13.4032 16.8736C13.7378 17.1055 13.8037 17.1843 13.7247 17.2583C13.6701 17.3096 11.6865 18.7308 9.31657 20.4166C6.94667 22.1024 4.91154 23.5726 4.79415 23.6837L4.58065 23.8856V29.8832V35.8809L2.47759 35.905L0.374526 35.9293L0.187263 36.1485C0.00116477 36.3665 0 36.3786 0 38.157C0 40.0564 0.0331513 40.2631 0.361561 40.4138C0.497738 40.4762 4.05294 40.5005 13.0425 40.5005H25.5342L25.7521 40.3121L25.97 40.1237L25.9948 38.4171C26.011 37.3019 25.9891 36.6071 25.9316 36.4115C25.788 35.9235 25.6245 35.8902 23.3716 35.8902H21.4281L21.4256 24.3448C21.4238 15.3923 21.402 12.7715 21.3286 12.6753C21.2045 12.5127 20.9322 12.3696 20.7467 12.3696C20.6652 12.3696 20.0098 12.7893 19.2901 13.3024C18.5705 13.8155 17.9596 14.2216 17.9326 14.2048C17.8311 14.1416 17.5991 13.2229 17.669 13.1607C17.7082 13.1259 18.9631 12.2073 20.4576 11.1194C21.9522 10.0314 23.2711 9.05229 23.3885 8.94352C23.6679 8.68472 23.6835 8.25423 23.4223 8.00723C23.243 7.83774 23.2346 7.83735 19.5435 7.83735H15.8443L14.8658 4.80936C14.3275 3.14393 13.8169 1.56203 13.7309 1.29385C13.492 0.548691 13.0699 0.303092 12.6286 0.652463ZM13.8937 6.04009C14.4359 7.72201 14.8238 8.80177 14.925 8.91086C15.0867 9.08527 15.0953 9.08582 18.0289 9.10621L20.9706 9.12669L18.6314 10.8367C17.0458 11.9959 16.2668 12.6126 16.2134 12.7512C16.1474 12.9223 16.2389 13.2805 16.7747 14.9482C17.8374 18.2554 17.924 18.5455 17.8329 18.4888C17.7846 18.4587 16.7658 17.7161 15.5689 16.8384C14.3719 15.9606 13.3166 15.207 13.2236 15.1636C13.1307 15.1202 12.9735 15.1058 12.8743 15.1317C12.775 15.1577 11.6632 15.9324 10.4035 16.8533C9.14383 17.7743 8.10581 18.5209 8.09688 18.5124C8.08787 18.5038 8.46069 17.3151 8.92528 15.8706C9.38994 14.4262 9.77992 13.1795 9.79195 13.1C9.85468 12.6871 9.73411 12.5748 7.36467 10.8418L5.01977 9.12669L7.99028 9.08762L10.9608 9.04854L11.1081 8.86538C11.1891 8.76466 11.3452 8.39544 11.455 8.04489C11.9973 6.3139 12.9854 3.29935 13.0038 3.32037C13.0152 3.3335 13.4156 4.55736 13.8937 6.04009ZM20.1083 25.1066V35.8902H12.9656H5.82286V30.1984V24.5067L10.0347 21.5077C12.3513 19.8582 14.4047 18.3956 14.5981 18.2574L14.9495 18.0061L16.8107 19.3755C17.8344 20.1286 18.7838 20.7942 18.9206 20.8544C19.3496 21.0437 19.7902 20.7713 19.7952 20.3136C19.7966 20.1916 19.479 19.1015 19.0894 17.8912C18.6998 16.6809 18.3766 15.666 18.3713 15.6359C18.3636 15.5934 20.0052 14.3422 20.0889 14.3267C20.0995 14.3247 20.1083 19.1757 20.1083 25.1066ZM24.6889 38.1954V39.1721H13.0044H1.31985V38.1954V37.2186H13.0044H24.6889V38.1954Z" fill="white"/>
</svg>
