<svg width="40" height="41" viewBox="0 0 40 41" fill="none" xmlns="http://www.w3.org/2000/svg">
<path fill-rule="evenodd" clip-rule="evenodd" d="M19.4502 0.614514C18.9395 0.799611 18.709 1.08433 18.0667 2.32308L17.4749 3.4644L17.0312 3.55392C16.7871 3.6032 16.2184 3.70678 15.7672 3.78408C14.7709 3.95495 14.3552 4.17677 14.0551 4.69753C13.7898 5.15777 13.7535 5.82243 13.9707 6.23989C14.0461 6.38484 14.5073 6.93178 14.9954 7.45536L15.883 8.40728L15.7251 9.60237C15.5377 11.0208 15.54 11.2987 15.7429 11.7132C16.0001 12.2385 16.4641 12.5478 17.0608 12.5918C17.5515 12.6279 17.6293 12.6027 18.7861 12.0338L19.9976 11.4381L21.199 12.0235C22.1487 12.4862 22.4846 12.6089 22.802 12.6089C23.4522 12.6089 24.1029 12.1812 24.3138 11.6149C24.4434 11.2672 24.432 10.7989 24.2628 9.52059L24.1157 8.40878L25.0039 7.45615C25.4924 6.93213 25.952 6.38589 26.0252 6.24217C26.242 5.81663 26.2076 5.15338 25.9449 4.69762C25.6318 4.15419 25.2407 3.96048 24.0172 3.74253C23.4471 3.64107 22.8779 3.53653 22.7525 3.51044C22.5626 3.4709 22.4251 3.27105 21.9317 2.31684C21.3017 1.09838 20.9882 0.729244 20.4559 0.578935C20.0356 0.460252 19.8585 0.46649 19.4502 0.614514ZM20.1889 2.04513C20.26 2.12964 20.5414 2.63371 20.8142 3.16519C21.3555 4.21981 21.6291 4.57454 22.0388 4.75296C22.1861 4.81709 22.7887 4.9522 23.3779 5.05314C23.9671 5.15408 24.5137 5.25634 24.5925 5.28041C24.9462 5.38855 24.8352 5.60325 23.9442 6.53435C23.452 7.04879 22.9852 7.59627 22.9069 7.75088C22.7323 8.09568 22.729 8.61988 22.8941 9.7099C23.074 10.8965 23.0661 11.2033 22.8553 11.2033C22.7627 11.2033 22.1747 10.9464 21.5485 10.6323C20.0369 9.87418 19.963 9.87418 18.4515 10.6323C17.8253 10.9464 17.2372 11.2033 17.1446 11.2033C16.9339 11.2033 16.9259 10.8965 17.1058 9.7099C17.2671 8.6457 17.2673 8.20057 17.1066 7.80947C17.0357 7.63694 16.5689 7.06909 16.0692 6.54744C15.141 5.57848 15.0384 5.36694 15.4522 5.27487C15.5539 5.25221 16.1036 5.15021 16.6736 5.04805C17.2437 4.94597 17.8268 4.81156 17.9695 4.74936C18.3707 4.57454 18.6474 4.2141 19.1857 3.16519C19.6718 2.21827 19.8807 1.89139 20 1.89139C20.0328 1.89139 20.1178 1.96062 20.1889 2.04513ZM7.42969 7.10352C7.28714 7.16932 6.7623 7.51799 6.26338 7.87826C5.76455 8.23853 5.31349 8.55952 5.26105 8.59168C5.20861 8.62383 4.59297 8.46957 3.89293 8.2488C2.85889 7.92271 2.54978 7.85814 2.24507 7.90461C1.5401 8.01205 0.96498 8.59212 0.862691 9.29903C0.820877 9.58761 0.893015 9.94691 1.20075 10.982L1.59193 12.298L1.19781 12.8708C0.00705386 14.601 -3.05176e-05 14.6147 -3.05176e-05 15.1985C-3.05176e-05 15.6426 0.0428204 15.8062 0.237637 16.1055C0.633404 16.7137 0.953576 16.8218 2.54744 16.8856L3.92628 16.9408L4.68455 17.9572C5.47487 19.0166 5.82442 19.331 6.31634 19.4248C6.90105 19.5364 7.55142 19.2636 7.92533 18.7501C8.01656 18.6248 8.27669 17.9765 8.50338 17.3093L8.91556 16.0963L10.1085 15.6772C10.7646 15.4467 11.4022 15.1822 11.5254 15.0894C12.0304 14.7092 12.2986 14.0479 12.1889 13.4533C12.0966 12.9531 11.7874 12.5977 10.7456 11.794L9.74606 11.023L9.6918 9.62091C9.62926 8.00573 9.52213 7.67419 8.93474 7.27896C8.52118 7.00065 7.82744 6.91975 7.42969 7.10352ZM31.4164 7.0806C31.0312 7.23749 30.7084 7.52933 30.5326 7.87966C30.3857 8.17255 30.3479 8.46307 30.3053 9.62679L30.2542 11.0227L29.2546 11.7938C28.2125 12.5977 27.9033 12.953 27.811 13.4533C27.7013 14.0479 27.9696 14.7092 28.4745 15.0894C28.5977 15.1822 29.2353 15.4467 29.8915 15.6772L31.0844 16.0963L31.4966 17.3093C31.7233 17.9765 31.9834 18.6248 32.0746 18.7501C32.4485 19.2636 33.0989 19.5364 33.6836 19.4248C34.1755 19.331 34.5251 19.0166 35.3154 17.9572L36.0737 16.9408L37.4525 16.8856C39.0464 16.8218 39.3665 16.7137 39.7623 16.1055C39.9571 15.8062 40 15.6426 40 15.1985C40 14.6147 39.9929 14.601 38.8021 12.8708L38.408 12.298L38.7997 10.982C39.1022 9.96598 39.1793 9.58682 39.1383 9.31862C39.026 8.58456 38.4328 7.99844 37.7077 7.90514C37.4002 7.86552 37.0691 7.93624 36.0784 8.25302C35.3945 8.47168 34.7919 8.62418 34.7393 8.59194C34.6866 8.55961 34.2354 8.23844 33.7365 7.87808C33.2375 7.51782 32.7042 7.16976 32.5513 7.10475C32.234 6.96991 31.7154 6.95884 31.4164 7.0806ZM8.26571 8.83256C8.29785 9.04937 8.32697 9.67871 8.33051 10.2312C8.33958 11.6492 8.40498 11.7659 9.77111 12.8016C10.5693 13.4068 10.8423 13.6618 10.8239 13.7851C10.8046 13.9145 10.5344 14.043 9.60921 14.3627C7.86839 14.9641 7.80213 15.0315 7.21068 16.8016C6.8963 17.7424 6.7699 18.0172 6.64265 18.0368C6.52144 18.0555 6.27064 17.7779 5.67548 16.9663C4.64014 15.5542 4.61371 15.5405 2.82157 15.4824C1.99548 15.4556 1.45906 15.4015 1.39738 15.3388C1.27841 15.2178 1.29811 15.1818 2.24308 13.7907C2.89129 12.8366 2.93094 12.7514 2.92731 12.3201C2.92498 12.0333 2.78615 11.4229 2.556 10.6868C2.06666 9.12158 2.05431 9.13502 3.55245 9.60501C5.46295 10.2045 5.37906 10.2155 6.85094 9.17112C7.4544 8.74295 8.00645 8.40298 8.07772 8.41554C8.15928 8.42995 8.229 8.58456 8.26571 8.83256ZM33.1573 9.18009C34.1887 9.91485 34.6496 10.1119 35.0997 10.0103C35.229 9.98109 35.8358 9.79977 36.4483 9.60738C37.9557 9.13388 37.9328 9.10497 37.4087 10.8173C36.8871 12.5212 36.8886 12.5319 37.8588 13.9426C38.268 14.5378 38.6062 15.1038 38.6102 15.2004C38.6195 15.4184 38.1957 15.4889 36.8091 15.5002C35.4636 15.5111 35.3364 15.5863 34.3245 16.9663C33.7293 17.7779 33.4785 18.0555 33.3573 18.0368C33.23 18.0172 33.1036 17.7424 32.7893 16.8016C32.1978 15.0315 32.1315 14.9641 30.3907 14.3627C29.4632 14.0422 29.1953 13.9147 29.176 13.7845C29.1575 13.6604 29.4205 13.4139 30.1968 12.8276C30.7734 12.3922 31.3267 11.9 31.4303 11.7304C31.5951 11.4605 31.6248 11.2494 31.6733 10.0042C31.7036 9.22392 31.757 8.53853 31.7919 8.48116C31.8926 8.31548 32.0742 8.40842 33.1573 9.18009ZM18.9633 14.3291C16.8299 14.5801 15.0915 15.1396 13.53 16.0779C10.3368 17.9966 8.19245 21.0134 7.37137 24.7424C7.19781 25.5306 7.1706 25.8928 7.1706 27.4114C7.1706 28.9299 7.19781 29.2921 7.37137 30.0803C8.54191 35.3962 12.5059 39.3099 17.7537 40.3308C18.9832 40.57 21.1206 40.5544 22.3955 40.2968C27.5707 39.2515 31.4653 35.3631 32.6286 30.0803C32.8021 29.2921 32.8293 28.9299 32.8293 27.4114C32.8293 25.8928 32.8021 25.5306 32.6286 24.7424C31.7385 20.7003 29.2651 17.4691 25.6344 15.6054C24.8566 15.2062 23.4691 14.7432 22.4532 14.5438C21.5776 14.372 19.6217 14.2517 18.9633 14.3291ZM22.1362 15.903C24.4719 16.3562 26.5813 17.5318 28.2736 19.3233C29.86 21.0027 30.8075 22.818 31.2942 25.1104C31.509 26.122 31.509 28.7007 31.2942 29.7123C30.2869 34.4566 26.7571 37.9973 22.1027 38.9326C20.9845 39.1572 18.8477 39.1396 17.7526 38.8967C13.1026 37.8652 9.69483 34.4142 8.71021 29.7393C8.59107 29.1739 8.55289 28.6086 8.55289 27.4114C8.55289 26.2141 8.59107 25.6488 8.71021 25.0834C9.03185 23.5563 9.60083 22.1737 10.4268 20.9129C10.9764 20.0737 12.2955 18.6521 13.0759 18.0579C14.6505 16.8587 16.6896 16.0241 18.6619 15.7715C19.4794 15.6667 21.2674 15.7345 22.1362 15.903ZM14.9305 22.5177C14.3315 22.7353 13.9196 23.0318 13.6102 23.4682C13.1603 24.1025 13.1003 25.0098 13.5042 25.0682C13.7423 25.1025 13.9525 24.9447 13.9525 24.7316C13.9525 24.6467 14.0754 24.4549 14.2257 24.3055C15.1112 23.4252 17.0617 23.661 17.5002 24.7013C17.6449 25.0445 17.696 25.0915 17.8986 25.0673C18.4406 25.0024 18.3085 24.0125 17.6619 23.2931C16.9367 22.4863 15.8591 22.1803 14.9305 22.5177ZM23.6663 22.4373C23.1712 22.5675 22.4838 23.0143 22.2025 23.3889C21.6796 24.0852 21.6212 25.0097 22.0966 25.0669C22.293 25.0905 22.3515 25.0365 22.5228 24.6739C22.8144 24.0567 23.3275 23.8096 24.3178 23.8096C24.97 23.8096 25.1013 23.8379 25.4691 24.0577C25.7048 24.1986 25.9236 24.4075 25.9751 24.5409C26.1476 24.9873 26.1969 25.0394 26.4457 25.0394C26.6857 25.0394 26.6965 25.0216 26.7213 24.5834C26.7525 24.0365 26.5631 23.6107 26.0764 23.133C25.4805 22.5483 24.4147 22.2406 23.6663 22.4373ZM14.1684 28.8061C13.6537 29.053 13.4191 29.2959 13.1822 29.8272C12.9027 30.454 12.9413 31.0647 13.3098 31.8465C14.0716 33.463 15.3325 34.7398 16.9119 35.4939C17.9381 35.984 18.7586 36.1614 20 36.1618C22.1663 36.1624 23.8738 35.4039 25.4111 33.7583C26.7532 32.3216 27.2954 30.8093 26.8367 29.7825C26.6583 29.3832 26.1543 28.8972 25.7326 28.7181C25.5016 28.62 24.4323 28.5975 20.0243 28.5982L14.6004 28.5991L14.1684 28.8061ZM25.4156 30.1939C25.8072 30.568 25.6122 31.2504 24.7994 32.3499C24.5784 32.6489 24.2859 32.989 24.1494 33.1059L23.9012 33.3182L23.3502 32.7716C21.5382 30.9738 18.4649 30.9689 16.661 32.7611C16.1614 33.2575 16.1081 33.2881 15.942 33.1754C15.6547 32.9801 14.9449 32.0251 14.6531 31.4412C14.3167 30.7681 14.3057 30.43 14.6121 30.185C14.8366 30.0053 14.9099 30.0029 20.0276 30.0029H25.2156L25.4156 30.1939ZM20.8915 32.9454C21.1644 33.0177 21.5408 33.1563 21.7282 33.2534C22.13 33.4619 22.7032 34.0195 22.6336 34.134C22.6068 34.1781 22.2657 34.3218 21.8756 34.4532C21.2462 34.6653 21.0349 34.6925 20 34.6942C18.945 34.6961 18.7677 34.6729 18.1425 34.452C17.7624 34.3177 17.4192 34.1758 17.3799 34.1367C17.2852 34.0422 17.8853 33.455 18.2938 33.2425C19.0884 32.8291 20.0412 32.7201 20.8915 32.9454Z" fill="white"/>
</svg>
