<svg width="40" height="37" viewBox="0 0 40 37" fill="none" xmlns="http://www.w3.org/2000/svg">
<path d="M18.6978 36.75V34.4062H34.6874C34.8957 34.4062 35.0607 34.3455 35.1822 34.2239C35.3037 34.1024 35.3645 33.9375 35.3645 33.7291V17.9479C35.3645 15.934 34.9392 14.0156 34.0885 12.1927C33.2378 10.3698 32.1006 8.75519 30.677 7.34894C29.2534 5.94269 27.6214 4.8229 25.7812 3.98956C23.9409 3.15623 22.0138 2.73956 19.9999 2.73956C17.986 2.73956 16.0589 3.15623 14.2187 3.98956C12.3784 4.8229 10.7464 5.94269 9.32283 7.34894C7.89922 8.75519 6.76207 10.3698 5.91138 12.1927C5.06068 14.0156 4.63534 15.934 4.63534 17.9479V30.6041H3.85409C2.84714 30.6041 1.98777 30.2482 1.27596 29.5364C0.564155 28.8246 0.208252 27.9653 0.208252 26.9583V22.7916C0.208252 22.0972 0.399224 21.4635 0.781169 20.8906C1.16311 20.3177 1.66659 19.8403 2.29159 19.4583L2.39575 16.75C2.56936 14.3541 3.16832 12.1493 4.19263 10.1354C5.21693 8.12151 6.5277 6.39408 8.12492 4.9531C9.72214 3.51213 11.5364 2.39234 13.5676 1.59373C15.5989 0.795119 17.743 0.395813 19.9999 0.395813C22.2569 0.395813 24.4096 0.795119 26.4583 1.59373C28.5069 2.39234 30.3211 3.51213 31.901 4.9531C33.4808 6.39408 34.7829 8.11283 35.8072 10.1094C36.8315 12.1059 37.4305 14.3021 37.6041 16.6979L37.7083 19.4062C38.3333 19.7187 38.8367 20.1441 39.2187 20.6823C39.6006 21.2205 39.7916 21.8194 39.7916 22.4791V27.2708C39.7916 27.8958 39.6006 28.4774 39.2187 29.0156C38.8367 29.5538 38.3333 29.9791 37.7083 30.2916V33.7291C37.7083 34.5625 37.4131 35.2743 36.8228 35.8646C36.2326 36.4548 35.5207 36.75 34.6874 36.75H18.6978ZM14.1666 21.9583C13.7499 21.9583 13.4027 21.8107 13.1249 21.5156C12.8471 21.2205 12.7083 20.8646 12.7083 20.4479C12.7083 20.066 12.8471 19.7361 13.1249 19.4583C13.4027 19.1805 13.7499 19.0416 14.1666 19.0416C14.5833 19.0416 14.9305 19.1805 15.2083 19.4583C15.486 19.7361 15.6249 20.0833 15.6249 20.5C15.6249 20.8819 15.4773 21.2205 15.1822 21.5156C14.8871 21.8107 14.5485 21.9583 14.1666 21.9583ZM25.8333 21.9583C25.4513 21.9583 25.1128 21.8107 24.8176 21.5156C24.5225 21.2205 24.3749 20.8646 24.3749 20.4479C24.3749 20.066 24.5225 19.7361 24.8176 19.4583C25.1128 19.1805 25.4687 19.0416 25.8853 19.0416C26.2673 19.0416 26.5971 19.1805 26.8749 19.4583C27.1527 19.7361 27.2916 20.0833 27.2916 20.5C27.2916 20.8819 27.1527 21.2205 26.8749 21.5156C26.5971 21.8107 26.2499 21.9583 25.8333 21.9583ZM8.28117 18.9375C8.14228 17.0278 8.41138 15.283 9.08846 13.7031C9.76554 12.1232 10.6683 10.7864 11.7968 9.69269C12.9253 8.59894 14.2187 7.75692 15.677 7.16665C17.1353 6.57637 18.611 6.28123 20.1041 6.28123C23.0902 6.28123 25.6076 7.21873 27.6562 9.09373C29.7048 10.9687 30.9548 13.3125 31.4062 16.125C28.3506 16.0903 25.6336 15.2656 23.2551 13.651C20.8767 12.0364 19.0624 9.94442 17.8124 7.37498C17.2569 10.0139 16.1371 12.3576 14.453 14.4062C12.769 16.4548 10.7117 17.9653 8.28117 18.9375Z" fill="#FF4C13"/>
</svg>
