<svg width="58" height="50" viewBox="0 0 58 50" fill="none" xmlns="http://www.w3.org/2000/svg">
<path fill-rule="evenodd" clip-rule="evenodd" d="M3.62785 24.0366V48.1335H1.81392H0V49.0668V50H28.5547H57.1093V49.0668V48.1335H55.822H54.5347V46.1445V44.1554L54.9736 43.9804C55.8068 43.6482 56.1924 43.4072 56.7269 42.8841C58.1469 41.4945 58.4141 39.1992 57.3512 37.5218C57.0383 37.028 57.0201 36.9341 57.0771 36.104C57.122 35.4503 57.0863 35.0591 56.9419 34.626C56.5401 33.4203 55.2679 32.4437 53.9179 32.3048C51.7311 32.0799 49.7422 34.2524 50.1975 36.3687C50.3042 36.8646 50.2966 37.0024 50.1542 37.1593C50.0592 37.2638 49.8389 37.6599 49.6645 38.0397C49.2581 38.9246 49.162 40.126 49.4253 41.0292C49.7969 42.3029 50.8827 43.4754 52.0852 43.9011L52.6623 44.1053V46.1195V48.1335H50.6728H48.6834V28.797V9.4605L37.1854 4.77367C30.8615 2.19596 25.596 0.0518526 25.4841 0.00915713C25.2936 -0.0637519 25.2788 0.20607 25.25 4.29924L25.2194 8.66701L14.6284 4.36935C8.80338 2.0057 3.94522 0.0420538 3.83264 0.00565764C3.63803 -0.0572191 3.62785 1.13966 3.62785 24.0366ZM10.0876 4.53395L14.5102 6.31293L14.5108 23.5486L14.5114 40.7843H10.0058H5.50028V21.7696C5.50028 11.3116 5.53738 2.75497 5.58267 2.75497C5.62808 2.75497 7.65534 3.55545 10.0876 4.53395ZM37.1722 6.7736L46.7524 10.6682L46.782 27.5928L46.8117 44.5172H36.981H27.1503V23.6283C27.1503 3.21039 27.1554 2.74085 27.3712 2.8091C27.4925 2.84748 31.903 4.63159 37.1722 6.7736ZM20.9144 8.95713L25.2779 10.7263V12.1033V13.4802L23.7858 13.5128L22.2937 13.5455L22.2595 14.4496L22.2254 15.3536H23.7516H25.2779V17.6867V20.0198H23.7565H22.2352V20.9531V21.8863H23.7565H25.2779V24.2194V26.5525H23.7516H22.2254L22.2595 27.4565L22.2937 28.3606L23.7858 28.3933L25.2779 28.4259V31.1055V33.785H23.7565H22.2352V34.7183V35.6515H23.7565H25.2779V38.2179V40.7843H20.8309H16.3838V40.0844V39.3844H17.7882H19.1925V38.4512V37.518H17.7882H16.3838V35.0682V32.6185H17.7882H19.1925V31.6853V30.752H17.7882H16.3838V28.244V25.7359H17.7882H19.1925V24.8027V23.8694H17.7882H16.3838V21.4197V18.9699H17.7882H19.1925V18.0367V17.1035H17.7882H16.3838V14.6537V12.204H17.7882H19.1925V11.2707V10.3375H17.7882H16.3838V8.76267C16.3838 7.89651 16.4214 7.18784 16.4674 7.18784C16.5133 7.18784 18.5144 7.984 20.9144 8.95713ZM7.48975 16.6368V17.5701H9.12813H10.7665V16.6368V15.7036H9.12813H7.48975V16.6368ZM30.5441 16.6368V17.5701H32.1825H33.8209V16.6368V15.7036H32.1825H30.5441V16.6368ZM40.0233 16.6337V17.5701H41.7251H43.427L43.3928 16.666L43.3586 15.7619L41.691 15.7296L40.0233 15.6972V16.6337ZM7.48975 20.9531V21.8863H9.12813H10.7665V20.9531V20.0198H9.12813H7.48975V20.9531ZM30.5441 20.9531V21.8863H32.1825H33.8209V20.9531V20.0198H32.1825H30.5441V20.9531ZM40.0233 20.9531V21.8863H41.7202H43.4171V20.9531V20.0198H41.7202H40.0233V20.9531ZM7.48975 25.2693V26.2025H9.12813H10.7665V25.2693V24.336H9.12813H7.48975V25.2693ZM30.5441 25.2693V26.2025H32.1825H33.8209V25.2693V24.336H32.1825H30.5441V25.2693ZM40.0233 25.2724V26.2089L41.691 26.1765L43.3586 26.1442L43.3928 25.2401L43.427 24.336H41.7251H40.0233V25.2724ZM7.48975 29.4688V30.4021H9.12813H10.7665V29.4688V28.5356H9.12813H7.48975V29.4688ZM30.5441 29.4688V30.4021H32.1825H33.8209V29.4688V28.5356H32.1825H30.5441V29.4688ZM40.0233 29.4657V30.4021H41.7251H43.427L43.3928 29.498L43.3586 28.5939L41.691 28.5616L40.0233 28.5292V29.4657ZM7.48975 33.785V34.7183H9.12813H10.7665V33.785V32.8518H9.12813H7.48975V33.785ZM30.5441 33.785V34.7183H32.1825H33.8209V33.785V32.8518H32.1825H30.5441V33.785ZM40.0233 33.785V34.7183H41.7202H43.4171V33.785V32.8518H41.7202H40.0233V33.785ZM54.4287 34.4324C54.8993 34.6749 55.2361 35.2568 55.2357 35.8265C55.2355 36.2701 55.1389 36.5375 54.7602 37.1439C54.6025 37.3965 54.6234 37.4384 55.1408 37.9021C56.4093 39.0389 56.4991 40.4925 55.3707 41.6176C54.1304 42.8538 52.2253 42.5576 51.4507 41.0082C50.8949 39.8966 51.0783 38.9529 52.03 38.0268C52.3778 37.6884 52.6623 37.3802 52.6623 37.3419C52.6623 37.3036 52.5306 37.0791 52.3697 36.8431C52.0265 36.3397 51.98 35.5939 52.2584 35.0573C52.6326 34.336 53.6651 34.0386 54.4287 34.4324ZM7.48975 38.1012V39.0345H9.12813H10.7665V38.1012V37.168H9.12813H7.48975V38.1012ZM30.5441 38.1012V39.0345H32.1825H33.8209V38.1012V37.168H32.1825H30.5441V38.1012ZM40.0233 38.1044V39.0409L41.691 39.0085L43.3586 38.9762L43.3928 38.0721L43.427 37.168H41.7251H40.0233V38.1044ZM8.54299 45.3922V48.1335H7.02164H5.50028V45.3922V42.6508H7.02164H8.54299V45.3922ZM12.5219 45.3967V48.1426L11.4979 48.1089L10.4739 48.0752L10.4423 45.5116C10.4249 44.1016 10.4365 42.881 10.4679 42.7994C10.508 42.6951 10.8228 42.6508 11.5236 42.6508H12.5219V45.3967ZM16.3838 45.3922V48.1335H15.3891H14.3944V45.3922V42.6508H15.3891H16.3838V45.3922ZM20.3628 45.3922V48.1335H19.3095H18.2563V45.3922V42.6508H19.3095H20.3628V45.3922ZM25.2779 45.3922V48.1335H23.698H22.1182V45.3922V42.6508H23.698H25.2779V45.3922ZM46.8109 47.2586V48.1335H36.9806H27.1503V47.2586V46.3837H36.9806H46.8109V47.2586Z" fill="#FF4C13"/>
</svg>
