<svg width="29" height="32" viewBox="0 0 29 32" fill="none" xmlns="http://www.w3.org/2000/svg">
<path fill-rule="evenodd" clip-rule="evenodd" d="M13.6442 0.182688C13.5466 0.283188 13.4668 0.405188 13.4668 0.453813C13.4668 0.513063 13.2919 0.586187 12.9358 0.675812C11.3992 1.06237 10.2475 2.18994 9.43311 4.10488C8.9449 5.25288 8.55556 6.88312 8.45803 8.1875C8.43873 8.44531 8.40953 8.74769 8.39308 8.85938L8.36316 9.0625H7.51323C6.1766 9.0625 6.16143 9.08325 6.19408 10.8589L6.21411 11.9486L6.38441 12.0992L6.55472 12.25H15.5535H24.5523L24.6995 12.0889C24.8425 11.9322 24.8472 11.8958 24.8655 10.7834C24.8865 9.50738 24.8342 9.23894 24.5421 9.12463C24.4549 9.09044 24.0049 9.0625 23.5422 9.0625H22.7008L22.6644 8.70312C22.4969 7.0475 22.3385 6.17144 22.023 5.15625C21.8014 4.44313 21.3599 3.44769 21.0339 2.92594C20.2742 1.71012 19.3345 0.983562 18.125 0.676875C17.7377 0.578625 17.5934 0.515312 17.592 0.442937C17.5895 0.313375 17.4751 0.1635 17.3096 0.0726875C17.218 0.0225 16.6584 0 15.4994 0H13.8216L13.6442 0.182688ZM16.5621 3.71875V6.375H17.078H17.5939V4.00562V1.63625L17.9125 1.716C19.167 2.02994 20.1639 3.0985 20.8307 4.84375C21.2015 5.81425 21.5247 7.363 21.6232 8.64062L21.6557 9.0625H17.0454H12.4351V9.59375V10.125H18.1401H23.8452V10.6562V11.1875H15.5607H7.27623V10.6562V10.125H9.33976H11.4033V9.59375V9.0625H10.4121H9.42079L9.44415 8.70312C9.48658 8.0495 9.64632 6.97881 9.80551 6.28125C10.3932 3.70662 11.6158 2.06656 13.2251 1.69419L13.4668 1.63831V4.00663V6.375H13.9827H14.4986V3.71875V1.0625H15.5304H16.5621V3.71875ZM7.42522 12.9659C7.27635 13.1192 7.27623 13.1204 7.27623 14.4509V15.7825L6.76489 16.0061L6.25356 16.2297L5.41449 15.3606C4.95299 14.8826 4.49865 14.4496 4.40482 14.3984C4.09365 14.2287 3.92219 14.3525 2.67418 15.6485C1.15086 17.2304 1.1698 17.0339 2.41563 18.3356L3.32073 19.2812L3.2113 19.5C3.1511 19.6203 3.06764 19.8368 3.02583 19.9811L2.94978 20.2434L1.62475 20.2623C0.339103 20.2807 0.295647 20.2855 0.161638 20.4235C0.0254451 20.5638 0.0232602 20.5904 0.00565944 22.3119C-0.0147332 24.3017 -0.000227616 24.3814 0.402951 24.4967C0.528038 24.5325 1.14934 24.5626 1.78358 24.5635L2.93673 24.5653L3.12196 25.0483L3.30726 25.5312L2.40883 26.4769C1.1837 27.7666 1.1559 27.5426 2.74379 29.1763C4.0392 30.5091 4.13043 30.5737 4.45659 30.3883C4.52195 30.3511 4.95287 29.9297 5.41425 29.4519L6.25308 28.5833L6.74948 28.7892L7.24588 28.9953L7.27914 30.3883C7.29747 31.1544 7.31792 31.7876 7.32466 31.7952C7.33139 31.803 7.41752 31.8522 7.51596 31.9046C7.66375 31.9833 7.98669 32 9.36374 32H11.0323L11.2026 31.8493L11.373 31.6986L11.3915 30.3464L11.41 28.9942L11.5735 28.9247C11.6635 28.8865 11.8771 28.7926 12.0482 28.7159L12.3593 28.5766L13.2003 29.4443C14.1204 30.3937 14.3267 30.5396 14.5997 30.4349C14.8003 30.358 16.9514 28.1789 17.0871 27.9151C17.1434 27.8055 17.1635 27.6728 17.1388 27.5714C17.1156 27.4757 16.727 27.0202 16.2153 26.4889C15.555 25.8032 15.3404 25.5427 15.3657 25.4576C15.3843 25.395 15.4685 25.175 15.5527 24.9688L15.706 24.5938L17.0195 24.5625L18.333 24.5312L18.4793 24.3559L18.6257 24.1805V22.3824V20.5843L18.4692 20.4328C18.316 20.2844 18.2856 20.2806 17.0079 20.25L15.7031 20.2188L15.5154 19.7302L15.3277 19.2416L16.1811 18.3552C16.6506 17.8676 17.0672 17.4029 17.107 17.3223C17.1468 17.2417 17.1614 17.1013 17.1394 17.0098C17.0946 16.8239 14.9366 14.5469 14.6661 14.4001C14.3723 14.2407 14.2118 14.3444 13.2724 15.2999L12.38 16.2077L11.9068 16.0149L11.4336 15.8221L11.4033 14.4784C11.3736 13.1627 11.3699 13.1314 11.2258 12.9736L11.0787 12.8125H9.32641H7.57416L7.42522 12.9659ZM22.5047 12.8926C22.3237 13.0357 22.2672 13.2419 22.2672 13.7597V14.2776L21.874 13.8763C21.2685 13.2584 21.256 13.2621 20.1711 14.3773C19.0996 15.4788 19.0969 15.4877 19.6574 16.0888C19.8577 16.3036 20.0216 16.4981 20.0216 16.5209C20.0216 16.5438 19.7826 16.5634 19.4905 16.5645C18.6589 16.5676 18.6257 16.6277 18.6257 18.1311C18.6257 19.6445 18.6902 19.75 19.6154 19.75H20.0408L19.6671 20.1508C19.3473 20.4937 19.2933 20.5849 19.2933 20.7818C19.2933 20.9925 19.3587 21.0807 20.0671 21.8244C20.8451 22.6413 21.0586 22.8125 21.299 22.8125C21.3773 22.8125 21.5964 22.6464 21.8482 22.396L22.2672 21.9795V22.4929C22.2672 23.0274 22.358 23.3256 22.5431 23.3987C22.5971 23.42 23.1865 23.4375 23.8529 23.4375C25.0584 23.4375 25.0653 23.4368 25.2135 23.2841C25.3501 23.1434 25.3625 23.0829 25.3625 22.5551V21.9795L25.7815 22.396C26.0333 22.6464 26.2524 22.8125 26.3307 22.8125C26.5691 22.8125 26.7825 22.642 27.5626 21.8279C28.277 21.0825 28.3364 21.0025 28.3364 20.7861C28.3364 20.5844 28.2851 20.4966 27.9686 20.1572L27.6007 19.7628L28.1491 19.7407C28.9805 19.7074 28.9689 19.7276 28.9928 18.2686C29.0135 16.9992 28.9994 16.8703 28.8205 16.6859C28.7189 16.5813 28.6173 16.5625 28.1544 16.5625C27.8539 16.5625 27.6081 16.5405 27.6081 16.5137C27.6081 16.4868 27.772 16.2979 27.9723 16.0938C28.2929 15.767 28.3364 15.6937 28.3364 15.48C28.3364 15.2528 28.2856 15.1841 27.5388 14.4018C26.4527 13.2642 26.3885 13.2475 25.7115 13.927L25.3625 14.2773V13.6983C25.3625 13.1669 25.3503 13.1067 25.2135 12.9659C25.065 12.8129 25.0609 12.8125 23.8328 12.8145C22.9603 12.8159 22.5729 12.8387 22.5047 12.8926ZM10.3715 15.1444C10.3715 16.6287 10.3561 16.5889 11.0207 16.8164C11.2478 16.8941 11.6521 17.0666 11.9192 17.1998C12.2577 17.3687 12.4507 17.4308 12.5565 17.4049C12.6406 17.3843 13.0936 16.9729 13.5733 16.4813L14.4384 15.5949L15.1811 16.3597L15.9238 17.1245L15.063 18.0154C14.5836 18.5116 14.1863 18.9755 14.1664 19.0625C14.1418 19.1703 14.1993 19.3641 14.3519 19.6875C14.4736 19.9453 14.6385 20.3515 14.7183 20.5901C14.9671 21.3338 14.9187 21.3125 16.3603 21.3125H17.5939V22.375V23.4375L16.5166 23.4379C15.9241 23.4381 15.3369 23.4675 15.2119 23.5033C14.963 23.5744 14.8887 23.6849 14.7095 24.25C14.6495 24.4391 14.4947 24.8187 14.3653 25.0938C14.2013 25.4423 14.1409 25.6411 14.1661 25.75C14.1861 25.8366 14.5855 26.303 15.0626 26.7968L15.9231 27.6873L15.1975 28.4366L14.4718 29.1858L13.6203 28.3166C13.0926 27.778 12.7036 27.4307 12.5972 27.4032C12.4649 27.3691 12.3047 27.4169 11.8992 27.6114C11.6098 27.7502 11.1886 27.9248 10.9632 27.9995C10.7235 28.0789 10.5158 28.1907 10.4625 28.269C10.3889 28.3772 10.3715 28.645 10.3715 29.6702V30.9375H9.34425H8.31692L8.29731 29.6627C8.27437 28.1768 8.28778 28.2113 7.64851 27.9926C7.42705 27.9169 7.02884 27.7469 6.76356 27.6149C6.49827 27.483 6.21356 27.375 6.13084 27.375C6.0185 27.375 5.75631 27.6039 5.09446 28.2801L4.20841 29.1852L3.46748 28.4222L2.72649 27.6592L3.60544 26.7467C4.25187 26.0757 4.48438 25.7942 4.48432 25.6828C4.48432 25.5994 4.39826 25.3484 4.29314 25.125C4.18796 24.9016 4.01711 24.4797 3.91339 24.1875C3.64974 23.4446 3.63384 23.4378 2.1629 23.4376L1.02492 23.4375V22.375V21.3125H2.25558C3.25112 21.3125 3.51112 21.2946 3.61624 21.2188C3.69077 21.165 3.80414 20.9453 3.88226 20.7032C3.95715 20.4711 4.12326 20.0578 4.25139 19.7846C4.49998 19.2547 4.52323 19.1331 4.41714 18.9177C4.38017 18.8427 3.9841 18.4012 3.53704 17.9366L2.72413 17.0919L3.45261 16.3438L4.1811 15.5956L5.04585 16.4817C5.55141 16.9997 5.97693 17.3843 6.07021 17.4075C6.182 17.4354 6.32736 17.3957 6.55575 17.2749C6.73503 17.1801 7.15484 17.0006 7.48865 16.876C8.31558 16.5672 8.30775 16.5848 8.30787 15.0469L8.30799 13.875H9.33976H10.3715V15.1444ZM24.3307 14.5344C24.3307 15.3227 24.399 15.502 24.7545 15.6485C25.221 15.8407 25.3245 15.8032 25.8871 15.2376L26.3968 14.7253L26.7586 15.0939L27.1203 15.4626L26.64 15.9694C26.3758 16.2481 26.142 16.5485 26.1204 16.6369C26.095 16.7413 26.1292 16.9126 26.2182 17.1254C26.3971 17.5538 26.5603 17.625 27.3634 17.625H27.9723V18.1562V18.6875H27.2494H26.5265L26.3709 18.8778C26.1633 19.1319 26.0633 19.5156 26.156 19.7029C26.1944 19.7804 26.4276 20.0554 26.6744 20.3142L27.1231 20.7846L26.76 21.1547L26.3968 21.5247L25.8871 21.0124C25.3317 20.4542 25.22 20.411 24.799 20.5922C24.3999 20.7639 24.3307 20.9269 24.3307 21.6959V22.375H23.8149H23.299L23.2976 21.6719C23.2961 20.8739 23.2519 20.7678 22.8516 20.599C22.4131 20.4143 22.3136 20.4514 21.7474 21.011L21.2306 21.5221L20.8992 21.185C20.7169 20.9997 20.5678 20.8209 20.5678 20.7876C20.5678 20.7544 20.7863 20.4968 21.0534 20.215C21.3204 19.9333 21.5389 19.6534 21.5389 19.593C21.5389 19.4078 21.4113 19.0322 21.2937 18.8714C21.1885 18.7276 21.1391 18.7169 20.4349 18.6875L19.6878 18.6562L19.6702 18.1406L19.6525 17.625L20.2771 17.6249C21.0684 17.6247 21.2692 17.5357 21.4365 17.1109C21.5115 16.9205 21.5382 16.7556 21.5116 16.6465C21.489 16.5534 21.262 16.2568 21.0072 15.9873L20.544 15.4971L20.9019 15.1247L21.2598 14.7523L21.7561 15.2511C22.1935 15.6908 22.2787 15.75 22.4747 15.75C22.7368 15.75 23.1474 15.55 23.2363 15.3789C23.2708 15.3125 23.299 14.947 23.299 14.5666V13.875H23.8149H24.3307V14.5344ZM23.3435 16.0643C22.7665 16.2136 22.2246 16.6669 21.9612 17.2204C21.7491 17.6659 21.7227 18.3983 21.9011 18.8876C22.2911 19.9576 23.5034 20.5247 24.5401 20.1219C25.6995 19.6716 26.2131 18.2358 25.6189 17.106C25.2026 16.3143 24.1824 15.8472 23.3435 16.0643ZM24.2688 17.2031C24.8972 17.5337 25.0357 18.2921 24.5679 18.8407C24.3464 19.1006 24.044 19.2127 23.6793 19.1704C23.3681 19.1343 23.149 18.9886 22.9447 18.6817C22.8256 18.5031 22.8065 18.4079 22.8254 18.0911C22.8529 17.6302 23.0255 17.3492 23.384 17.1816C23.7137 17.0274 23.9455 17.033 24.2688 17.2031ZM8.6574 18.1896C7.03522 18.4708 5.71467 19.7244 5.30203 21.375C5.17215 21.8946 5.17081 22.8351 5.29924 23.4C5.63857 24.8929 6.83281 26.1375 8.30799 26.5356C8.56399 26.6048 8.92627 26.6411 9.33976 26.6393C10.5027 26.6343 11.4384 26.2287 12.2636 25.3721C12.6382 24.9832 12.7831 24.7739 13.0034 24.3036C13.6143 22.9999 13.6133 21.7937 13.0004 20.5014C12.7698 20.0151 12.6307 19.8176 12.2242 19.3989C11.815 18.9776 11.6294 18.8394 11.1565 18.6044C10.3042 18.181 9.48822 18.0456 8.6574 18.1896ZM9.96307 19.2793C11.92 19.7064 12.9868 21.9746 12.0908 23.8036C11.3112 25.3952 9.50375 26.0326 7.97419 25.2552C6.05394 24.2793 5.63031 21.6932 7.13888 20.1562C7.91938 19.3611 8.9174 19.0511 9.96307 19.2793Z" fill="#FF4C13"/>
</svg>
