<svg width="56" height="60" viewBox="0 0 56 60" fill="none" xmlns="http://www.w3.org/2000/svg">
<path fill-rule="evenodd" clip-rule="evenodd" d="M26.3475 0.342539C26.159 0.530977 26.0049 0.759727 26.0049 0.850898C26.0049 0.961992 25.6672 1.0991 24.9794 1.26715C22.0123 1.99195 19.7882 4.10613 18.2157 7.69664C17.2729 9.84914 16.5211 12.9059 16.3327 15.3516C16.2955 15.835 16.2391 16.4019 16.2073 16.6113L16.1496 16.9922H14.5083C11.9272 16.9922 11.8979 17.0311 11.961 20.3605L11.9997 22.4036L12.3285 22.6861L12.6574 22.9688H30.0343H47.4114L47.6956 22.6666C47.9717 22.373 47.9808 22.3045 48.0161 20.2189C48.0567 17.8263 47.9557 17.323 47.3917 17.1087C47.2233 17.0446 46.3543 16.9922 45.4607 16.9922H43.836L43.7658 16.3184C43.4422 13.2141 43.1363 11.5714 42.5271 9.66797C42.0992 8.33086 41.2467 6.46441 40.6173 5.48613C39.1502 3.20648 37.3356 1.84418 34.9999 1.26914C34.2521 1.08492 33.9734 0.966211 33.9707 0.830508C33.9659 0.587578 33.7451 0.306562 33.4255 0.136289C33.2486 0.0421875 32.1679 0 29.9298 0H26.6901L26.3475 0.342539ZM31.9821 6.97266V11.9531H32.9782H33.9744V7.51055V3.06797L34.5897 3.2175C37.0121 3.80613 38.9372 5.80969 40.2248 9.08203C40.9407 10.9017 41.5649 13.8056 41.7552 16.2012L41.818 16.9922H32.9152H24.0125V17.9883V18.9844H35.0292H46.0459V19.9805V20.9766H30.0483H14.0506V19.9805V18.9844H18.0354H22.0202V17.9883V16.9922H20.1061H18.1919L18.237 16.3184C18.3189 15.0928 18.6274 13.0853 18.9348 11.7773C20.0696 6.94992 22.4305 3.8748 25.5381 3.1766L26.0049 3.07184V7.51242V11.9531H27.0011H27.9973V6.97266V1.99219H29.9897H31.9821V6.97266ZM14.3384 24.3111C14.0509 24.5985 14.0506 24.6008 14.0506 27.0955V29.5922L13.0632 30.0115L12.0758 30.4308L10.4556 28.8011C9.56439 27.9048 8.68704 27.0929 8.50585 26.997C7.90497 26.6788 7.57389 26.9109 5.16393 29.3409C2.22235 32.307 2.25892 31.9386 4.66466 34.3792L6.41245 36.1523L6.20114 36.5625C6.08487 36.7881 5.92373 37.194 5.84298 37.4645L5.69613 37.9563L3.13744 37.9918C0.654819 38.0263 0.570904 38.0353 0.312129 38.2941C0.0491354 38.557 0.0449162 38.607 0.0109286 41.8348C-0.0284502 45.5658 -0.000439534 45.7152 0.778112 45.9314C1.01966 45.9984 2.21942 46.0548 3.44415 46.0566L5.67093 46.0598L6.02862 46.9655L6.38643 47.8711L4.65153 49.6443C2.28576 52.0624 2.23208 51.6423 5.29835 54.7056C7.79984 57.2046 7.97599 57.3257 8.60582 56.978C8.73204 56.9082 9.56415 56.1183 10.4551 55.2224L12.0749 53.5936L13.0335 53.9798L13.992 54.3661L14.0563 56.978C14.0917 58.4145 14.1312 59.6017 14.1442 59.6161C14.1572 59.6306 14.3235 59.7229 14.5136 59.8212C14.799 59.9687 15.4226 60 18.0817 60H21.3038L21.6327 59.7173L21.9616 59.4348L21.9973 56.8995L22.0332 54.3641L22.3489 54.2338C22.5226 54.1622 22.935 53.9861 23.2655 53.8423L23.8662 53.5811L25.4903 55.2081C27.267 56.9882 27.6653 57.2618 28.1926 57.0655C28.5799 56.9213 32.7337 52.8354 32.9957 52.3409C33.1046 52.1353 33.1433 51.8865 33.0957 51.6963C33.0508 51.517 32.3005 50.663 31.3123 49.6666C30.0373 48.3811 29.6229 47.8927 29.6716 47.733C29.7076 47.6156 29.8701 47.2031 30.0328 46.8164L30.3287 46.1133L32.8652 46.0547L35.4016 45.9961L35.6841 45.6673L35.9668 45.3384V41.9671V38.5956L35.6647 38.3114C35.3689 38.0332 35.3102 38.0262 32.8429 37.9688L30.3232 37.9102L29.9607 36.9941L29.5982 36.0779L31.2463 34.416C32.1528 33.5018 32.9573 32.6304 33.0342 32.4793C33.1112 32.3282 33.1393 32.0648 33.0967 31.8934C33.0102 31.5448 28.843 27.2754 28.3207 27.0002C27.7534 26.7014 27.4434 26.8957 25.6294 28.6874L23.9061 30.3894L22.9924 30.0279L22.0788 29.6665L22.0202 27.1471C21.9627 24.68 21.9557 24.6213 21.6775 24.3255L21.3933 24.0234H18.0096H14.626L14.3384 24.3111ZM43.4573 24.1737C43.1077 24.442 42.9987 24.8286 42.9987 25.7994V26.7705L42.2394 26.0181C41.0702 24.8595 41.0461 24.8664 38.9511 26.9575C36.882 29.0227 36.8768 29.0394 37.9592 30.1665C38.346 30.5693 38.6624 30.9339 38.6624 30.9768C38.6624 31.0196 38.201 31.0563 37.6369 31.0584C36.0309 31.0643 35.9668 31.177 35.9668 33.9957C35.9668 36.8334 36.0914 37.0312 37.8781 37.0312H38.6995L37.9778 37.7828C37.3603 38.4258 37.256 38.5968 37.256 38.9659C37.256 39.3609 37.3823 39.5263 38.7503 40.9208C40.2527 42.4523 40.665 42.7734 41.1292 42.7734C41.2804 42.7734 41.7035 42.462 42.1897 41.9925L42.9987 41.2116V42.1741C42.9987 43.1763 43.1741 43.7354 43.5314 43.8725C43.6357 43.9125 44.774 43.9453 46.0608 43.9453C48.3887 43.9453 48.402 43.9439 48.6882 43.6576C48.952 43.3939 48.9759 43.2804 48.9759 42.2907V41.2116L49.7849 41.9925C50.2712 42.462 50.6943 42.7734 50.8454 42.7734C51.3058 42.7734 51.7179 42.4538 53.2243 40.9274C54.6039 39.5297 54.7186 39.3797 54.7186 38.974C54.7186 38.5957 54.6195 38.4312 54.0083 37.7947L53.2979 37.0552L54.3568 37.0139C55.9623 36.9513 55.94 36.9893 55.986 34.2536C56.026 31.8736 55.9989 31.6317 55.6533 31.2861C55.4571 31.09 55.261 31.0547 54.367 31.0547C53.7869 31.0547 53.3122 31.0134 53.3122 30.9632C53.3122 30.9128 53.6287 30.5585 54.0154 30.1758C54.6346 29.5631 54.7186 29.4257 54.7186 29.025C54.7186 28.599 54.6204 28.4701 53.1783 27.0034C51.081 24.8704 50.957 24.8391 49.6498 26.1131L48.9759 26.77V25.6843C48.9759 24.688 48.9522 24.575 48.6882 24.3111C48.4014 24.0243 48.3934 24.0234 46.0219 24.0272C44.3372 24.0298 43.5891 24.0725 43.4573 24.1737ZM20.0278 28.3958C20.0278 31.1788 19.998 31.1043 21.2813 31.5307C21.7199 31.6764 22.5007 31.9999 23.0164 32.2496C23.67 32.5663 24.0427 32.6828 24.2469 32.6343C24.4094 32.5956 25.2841 31.8241 26.2105 30.9025L27.881 29.2404L29.3152 30.6744L30.7494 32.1084L29.0871 33.7788C28.1614 34.7092 27.3943 35.5791 27.3559 35.7422C27.3083 35.9443 27.4194 36.3077 27.714 36.9141C27.949 37.3975 28.2674 38.1591 28.4216 38.6064C28.902 40.0009 28.8086 39.9609 31.5923 39.9609H33.9744V41.9531V43.9453L31.8942 43.946C30.7501 43.9464 29.6162 44.0016 29.3746 44.0686C28.8941 44.2021 28.7505 44.4093 28.4046 45.4688C28.2888 45.8232 27.9897 46.5352 27.7398 47.0508C27.4231 47.7043 27.3066 48.077 27.3552 48.2812C27.3938 48.4437 28.1651 49.3181 29.0864 50.244L30.7481 51.9137L29.3468 53.3186L27.9455 54.7234L26.3013 53.0937C25.2823 52.0838 24.531 51.4325 24.3256 51.3811C24.0701 51.3171 23.7608 51.4066 22.9778 51.7713C22.4189 52.0316 21.6055 52.359 21.1704 52.4991C20.7074 52.648 20.3064 52.8575 20.2035 53.0044C20.0614 53.2073 20.0278 53.7094 20.0278 55.6316V58.0078H18.0441H16.0603L16.0224 55.6175C15.9781 52.8315 16.004 52.8962 14.7695 52.4862C14.3419 52.3441 13.5729 52.0254 13.0607 51.778C12.5484 51.5306 11.9986 51.3281 11.8389 51.3281C11.6219 51.3281 11.1156 51.7574 9.83758 53.0252L8.12659 54.7223L6.69583 53.2916L5.26495 51.861L6.96222 50.1502C8.21051 48.892 8.6595 48.3642 8.65938 48.1553C8.65938 47.9989 8.49319 47.5283 8.2902 47.1094C8.0871 46.6904 7.75718 45.8994 7.55689 45.3516C7.04778 43.9586 7.01707 43.9458 4.17664 43.9455L1.97917 43.9453V41.9531V39.9609H4.35561C6.27802 39.9609 6.7801 39.9273 6.98309 39.7853C7.12701 39.6844 7.34593 39.2723 7.49677 38.8185C7.64139 38.3834 7.96216 37.6083 8.20957 37.0961C8.68962 36.1025 8.7345 35.8746 8.52964 35.4708C8.45827 35.33 7.69343 34.5022 6.83014 33.6312L5.26038 32.0474L6.66712 30.6445L8.07385 29.2417L9.7437 30.9032C10.72 31.8744 11.5417 32.5956 11.7218 32.6391C11.9377 32.6913 12.2184 32.6169 12.6594 32.3904C13.0056 32.2127 13.8162 31.8761 14.4608 31.6425C16.0577 31.0636 16.0426 31.0964 16.0428 28.2129L16.043 26.0156H18.0354H20.0278V28.3958ZM46.9835 27.252C46.9835 28.73 47.1152 29.0663 47.8018 29.3409C48.7026 29.7013 48.9024 29.631 49.9888 28.5705L50.9732 27.6098L51.6718 28.3011L52.3703 28.9923L51.4428 29.9426C50.9325 30.4652 50.4811 31.0284 50.4395 31.1943C50.3904 31.39 50.4565 31.7112 50.6282 32.1102C50.9738 32.9134 51.2888 33.0469 52.8397 33.0469H54.0154V34.043V35.0391H52.6195H51.2235L50.9231 35.3959C50.5223 35.8724 50.3292 36.5918 50.5081 36.9429C50.5822 37.0882 51.0326 37.6039 51.5093 38.0891L52.3757 38.9712L51.6745 39.665L50.9732 40.3589L49.9888 39.3982C48.9165 38.3516 48.7007 38.2706 47.8877 38.6104C47.1171 38.9323 46.9835 39.238 46.9835 40.6799V41.9531H45.9873H44.9911L44.9885 40.6348C44.9856 39.1386 44.9003 38.9395 44.1271 38.6231C43.2804 38.2767 43.0883 38.3463 41.9951 39.3956L40.997 40.3539L40.3571 39.7219C40.0051 39.3744 39.7172 39.0391 39.7172 38.9768C39.7172 38.9146 40.1391 38.4314 40.6548 37.9031C41.1704 37.375 41.5924 36.8501 41.5924 36.7369C41.5924 36.3896 41.3459 35.6853 41.1189 35.3838C40.9158 35.1142 40.8203 35.0943 39.4605 35.0391L38.0178 34.9805L37.9838 34.0137L37.9497 33.0469L39.1558 33.0466C40.6838 33.0464 41.0716 32.8795 41.3946 32.083C41.5395 31.7259 41.591 31.4167 41.5396 31.2122C41.4959 31.0377 41.0576 30.4815 40.5657 29.9761L39.6712 29.0571L40.3624 28.3588L41.0534 27.6606L42.0117 28.5959C42.8564 29.4202 43.021 29.5312 43.3993 29.5312C43.9056 29.5312 44.6984 29.1562 44.8701 28.8354C44.9366 28.7109 44.9911 28.0256 44.9911 27.3124V26.0156H45.9873H46.9835V27.252ZM45.0772 30.1206C43.9629 30.4005 42.9165 31.2504 42.4078 32.2882C41.9983 33.1236 41.9474 34.4968 42.2917 35.4143C43.0449 37.4205 45.3859 38.4838 47.3877 37.7286C49.6267 36.8842 50.6184 34.1922 49.4711 32.0738C48.6671 30.5893 46.6971 29.7136 45.0772 30.1206ZM46.864 32.2559C48.0773 32.8758 48.3448 34.2977 47.4415 35.3264C47.0137 35.8136 46.4299 36.0239 45.7256 35.9446C45.1246 35.8768 44.7015 35.6036 44.3069 35.0283C44.0771 34.6932 44.0401 34.5148 44.0766 33.9207C44.1297 33.0566 44.463 32.5298 45.1553 32.2154C45.7921 31.9263 46.2396 31.9369 46.864 32.2559ZM16.7177 34.1055C13.5852 34.6328 11.0352 36.9833 10.2384 40.0781C9.98759 41.0523 9.98502 42.8159 10.233 43.875C10.8883 46.6741 13.1944 49.0078 16.043 49.7543C16.5374 49.8839 17.2369 49.9521 18.0354 49.9487C20.281 49.9392 22.088 49.1788 23.6815 47.5726C24.4048 46.8435 24.6846 46.4511 25.1101 45.5693C26.2896 43.1248 26.2877 40.8632 25.1042 38.4401C24.659 37.5284 24.3904 37.1579 23.6054 36.373C22.8151 35.5829 22.4568 35.3239 21.5435 34.8833C19.8977 34.0894 18.3221 33.8354 16.7177 34.1055ZM19.239 36.1487C23.018 36.9495 25.078 41.2023 23.3478 44.6317C21.8423 47.6161 18.3521 48.8111 15.3984 47.3535C11.6904 45.5236 10.8723 40.6748 13.7854 37.793C15.2926 36.302 17.2198 35.7209 19.239 36.1487Z" fill="#FF4C13"/>
</svg>
