<svg width="26" height="28" viewBox="0 0 26 28" fill="none" xmlns="http://www.w3.org/2000/svg">
<path d="M17 27.125C16.775 27.125 16.575 27.0437 16.4 26.8812C16.225 26.7187 16.1375 26.5125 16.1375 26.2625C16.1375 26.0125 16.225 25.8125 16.4 25.6625C16.575 25.5125 16.775 25.4375 17 25.4375C18.525 25.4375 19.8125 25.125 20.8625 24.5C21.9125 23.875 22.4375 23.125 22.4375 22.25C22.4375 21.6 22.05 20.975 21.275 20.375C20.5 19.775 19.4375 19.325 18.0875 19.025L19.475 17.675C21.05 18.125 22.2187 18.7562 22.9812 19.5687C23.7437 20.3812 24.125 21.275 24.125 22.25C24.125 23.8 23.3938 25 21.9313 25.85C20.4688 26.7 18.825 27.125 17 27.125ZM5.2625 16.2875C3.7125 15.9125 2.59375 15.375 1.90625 14.675C1.21875 13.975 0.875 13.25 0.875 12.5C0.875 11.675 1.2 10.9375 1.85 10.2875C2.5 9.6375 3.9125 8.9 6.0875 8.075C7.7625 7.425 8.85625 6.89375 9.36875 6.48125C9.88125 6.06875 10.1375 5.5875 10.1375 5.0375C10.1375 4.3625 9.83125 3.78125 9.21875 3.29375C8.60625 2.80625 7.7 2.5625 6.5 2.5625C5.8 2.5625 5.1875 2.6625 4.6625 2.8625C4.1375 3.0625 3.675 3.3625 3.275 3.7625C3.125 3.9125 2.93125 4 2.69375 4.025C2.45625 4.05 2.25 4 2.075 3.875C1.85 3.725 1.7375 3.53125 1.7375 3.29375C1.7375 3.05625 1.8 2.85 1.925 2.675C2.325 2.15 2.94375 1.71875 3.78125 1.38125C4.61875 1.04375 5.525 0.875 6.5 0.875C8.1 0.875 9.39375 1.25625 10.3812 2.01875C11.3687 2.78125 11.8625 3.7875 11.8625 5.0375C11.8625 5.9625 11.5125 6.7625 10.8125 7.4375C10.1125 8.1125 8.7625 8.8375 6.7625 9.6125C5.1125 10.2625 4 10.7937 3.425 11.2062C2.85 11.6187 2.5625 12.05 2.5625 12.5C2.5625 12.95 2.9 13.375 3.575 13.775C4.25 14.175 5.275 14.5625 6.65 14.9375L5.2625 16.2875ZM23.3 9.9875L19.325 6.0125L20.8625 4.475C21.2375 4.1 21.6563 3.90625 22.1188 3.89375C22.5813 3.88125 23 4.075 23.375 4.475L24.8375 5.9375C25.2375 6.3125 25.4312 6.73125 25.4187 7.19375C25.4062 7.65625 25.2125 8.075 24.8375 8.45L23.3 9.9875ZM4.325 24.9875H5.8625L18.9125 11.9375L17.375 10.4L4.325 23.45V24.9875ZM2.6375 26.675V22.7375L17.375 7.9625L21.35 11.9375L6.575 26.675H2.6375ZM17.375 10.4L18.9125 11.9375L17.375 10.4Z" fill="#FF4C13"/>
</svg>
