<svg width="60" height="60" viewBox="0 0 60 60" fill="none" xmlns="http://www.w3.org/2000/svg">
<path fill-rule="evenodd" clip-rule="evenodd" d="M27.5977 0.127823C26.4512 0.393656 25.6248 0.753767 24.7481 1.36986C23.4909 2.25331 22.4116 3.68273 21.9904 5.02245L21.7934 5.6491L20.5939 5.65227C19.2752 5.65567 18.6104 5.823 17.4107 6.45317C16.5859 6.88645 15.4025 8.03175 15.005 8.7814C14.7521 9.25842 14.6675 9.32444 14.2324 9.38413C12.7236 9.59109 11.3282 10.6135 10.6369 12.0188C10.2779 12.7483 10.2539 12.8745 10.2539 14.0309C10.2539 15.124 10.2896 15.341 10.568 15.9351C11.728 18.4115 14.6257 19.4084 17.1319 18.1931C17.5549 17.9879 17.5782 17.989 18.1866 18.2436C21.1243 19.4729 24.8543 18.1457 26.3491 15.3394C26.6391 14.7952 26.7874 14.6255 26.9333 14.6713C28.6375 15.2076 30.685 15.0086 32.457 14.1344C34.3855 13.1832 35.9346 11.1755 36.3862 9.04219C37.181 5.28805 34.998 1.52031 31.3568 0.361761C30.188 -0.010194 28.6151 -0.108108 27.5977 0.127823ZM30.4052 2.01762C31.4259 2.28368 32.372 2.83763 33.0872 3.58787C34.8225 5.40836 35.1606 7.94955 33.9789 10.2917C32.7187 12.7898 29.5221 13.7885 26.6616 12.578C25.838 12.2296 25.1953 12.6358 25.1953 13.5047C25.1953 14.5774 24.1942 15.789 22.7344 16.4827C22.1555 16.7578 21.9525 16.789 20.7422 16.789C19.4318 16.789 19.3682 16.7768 18.44 16.3482C17.4035 15.8696 17.3386 15.8712 16.566 16.3949C14.6204 17.7134 12.1437 16.3904 12.1448 14.0333C12.1453 13.1819 12.4016 12.554 12.9677 12.0175C13.3979 11.6099 14.2522 11.2249 14.734 11.2216C14.9421 11.2202 15.3245 11.1341 15.5837 11.0304C15.982 10.8709 16.1087 10.7288 16.4033 10.1112C17.3302 8.168 19.6757 7.08908 21.7924 7.63212C23.046 7.95365 23.378 7.68254 23.4746 6.25839C23.5855 4.62259 24.525 3.37797 26.2879 2.53158C27.7468 1.83105 29.0604 1.66712 30.4052 2.01762ZM5.9127 19.0117C5.75449 19.17 5.62477 19.3942 5.62453 19.51C5.62418 19.6258 5.41348 24.1003 5.15625 29.4533C4.89902 34.8063 4.68832 39.2255 4.68797 39.274C4.68773 39.3224 3.7623 39.3619 2.63145 39.3619C0.60457 39.3619 0.571172 39.366 0.287695 39.6498L0 39.9375V49.681V59.4244L0.287695 59.7121C0.668203 60.093 1.2068 60.093 1.5873 59.7121L1.875 59.4244V50.3312V41.2381H9.375H16.875V50.3312V59.4244L17.1627 59.7121C17.5432 60.093 18.0818 60.093 18.4623 59.7121L18.75 59.4244V50.1158V40.8073L23.4375 37.6806L28.125 34.5538V46.9891V59.4244L28.4127 59.7121C28.7932 60.093 29.3318 60.093 29.7123 59.7121L30 59.4244V50.1158V40.8073L34.6875 37.6806L39.375 34.5538V46.9891V59.4244L39.6627 59.7121C40.0432 60.093 40.5818 60.093 40.9623 59.7121L41.25 59.4244V55.9597V52.4952H49.6875H58.125V55.9597V59.4244L58.4127 59.7121C58.594 59.8936 58.8342 60 59.0625 60C59.2908 60 59.531 59.8936 59.7123 59.7121L60 59.4244V49.1102C60 37.9512 59.9926 37.802 59.3667 36.386C58.9542 35.4525 58.1387 34.3352 57.3941 33.6831C56.629 33.0131 55.1398 32.2703 54.1699 32.075L53.4375 31.9275V28.8967V25.8661L53.1498 25.5784L52.8622 25.2905H37.9688H23.0753L22.7877 25.5784L22.5 25.8661V30.9547V36.0432L20.0071 37.7025L17.5141 39.3619H15.7996H14.085L14.0102 38.16C13.9303 36.8763 13.125 19.9341 13.125 19.5362C13.125 19.406 12.9955 19.17 12.8373 19.0117L12.5497 18.7238H9.375H6.20027L5.9127 19.0117ZM11.25 20.994C11.25 21.2108 11.2835 21.633 11.3245 21.9321L11.3991 22.4762H9.39094H7.38281L7.38387 22.1537C7.38434 21.9764 7.41809 21.5542 7.45875 21.2156L7.5327 20.6H9.39129H11.25V20.994ZM11.798 31.564C12.0027 35.4981 12.174 38.8621 12.1788 39.0394L12.1875 39.3619H9.36105H6.53449L6.60832 38.16C6.64887 37.499 6.78762 34.4516 6.91664 31.3881C7.04555 28.3246 7.18113 25.4871 7.21793 25.0826L7.28484 24.3471L9.35531 24.379L11.4258 24.411L11.798 31.564ZM33.75 31.6041V36.0416L31.875 37.2918L30 38.5419V35.5188C30 32.1442 29.9793 32.0471 29.2284 31.9062C28.8442 31.834 28.6697 31.9263 26.7428 33.2207C25.603 33.9864 24.604 34.655 24.5227 34.7066C24.405 34.7813 24.375 34.0251 24.375 30.9835V27.1667H29.0625H33.75V31.6041ZM51.5625 29.5471V31.9275L50.8301 32.0767C48.6915 32.5123 46.6863 34.1445 45.6846 36.2648C45.0373 37.6348 45.0042 38.038 45.002 44.6094L45 50.619H43.125H41.25V41.5574C41.25 31.5077 41.2941 32.0593 40.4784 31.9062C40.0942 31.834 39.9197 31.9263 37.9928 33.2207C36.853 33.9864 35.854 34.655 35.7727 34.7066C35.655 34.7813 35.625 34.0251 35.625 30.9835V27.1667H43.5938H51.5625V29.5471ZM53.8427 33.9129C55.864 34.4397 57.4208 36.0026 57.9502 38.036C58.0941 38.5887 58.125 39.7625 58.125 44.6633V50.619H52.5H46.875V44.6633C46.875 39.7625 46.9059 38.5887 47.0498 38.036C47.8385 35.006 50.9021 33.1464 53.8427 33.9129ZM54.6627 38.7117C54.3773 38.9971 54.375 39.0176 54.375 41.2381C54.375 43.4586 54.3773 43.4791 54.6627 43.7645C54.844 43.946 55.0842 44.0524 55.3125 44.0524C55.5408 44.0524 55.781 43.946 55.9623 43.7645C56.2477 43.4791 56.25 43.4586 56.25 41.2381C56.25 39.0176 56.2477 38.9971 55.9623 38.7117C55.781 38.5302 55.5408 38.4238 55.3125 38.4238C55.0842 38.4238 54.844 38.5302 54.6627 38.7117ZM4.9752 43.4022C4.68984 43.6876 4.6875 43.7081 4.6875 45.9286C4.6875 48.149 4.68984 48.1696 4.9752 48.455L5.26277 48.7429H9.375H13.4872L13.7748 48.455C14.0602 48.1696 14.0625 48.149 14.0625 45.9286C14.0625 43.7081 14.0602 43.6876 13.7748 43.4022L13.4872 43.1143H9.375H5.26277L4.9752 43.4022ZM20.9127 43.4022C20.6273 43.6876 20.625 43.7081 20.625 45.9286C20.625 48.9427 20.4253 48.7429 23.4375 48.7429C26.4497 48.7429 26.25 48.9427 26.25 45.9286C26.25 42.9145 26.4497 43.1143 23.4375 43.1143C21.2184 43.1143 21.1979 43.1166 20.9127 43.4022ZM32.1627 43.4022C31.8773 43.6876 31.875 43.7081 31.875 45.9286C31.875 48.9427 31.6753 48.7429 34.6875 48.7429C36.9066 48.7429 36.9271 48.7405 37.2123 48.455C37.4977 48.1696 37.5 48.149 37.5 45.9286C37.5 42.9145 37.6997 43.1143 34.6875 43.1143C32.4684 43.1143 32.4479 43.1166 32.1627 43.4022ZM12.1875 45.9286V46.8667H9.375H6.5625V45.9286V44.9905H9.375H12.1875V45.9286ZM24.375 45.9286V46.8667H23.4375H22.5V45.9286V44.9905H23.4375H24.375V45.9286ZM35.625 45.9286V46.8667H34.6875H33.75V45.9286V44.9905H34.6875H35.625V45.9286ZM54.375 45.9286V46.8667H55.3125H56.25V45.9286V44.9905H55.3125H54.375V45.9286ZM4.9752 50.9069C4.68984 51.1923 4.6875 51.2129 4.6875 53.4333C4.6875 55.6538 4.68984 55.6743 4.9752 55.9597L5.26277 56.2476H9.375H13.4872L13.7748 55.9597C14.0602 55.6743 14.0625 55.6538 14.0625 53.4333C14.0625 51.2129 14.0602 51.1923 13.7748 50.9069L13.4872 50.619H9.375H5.26277L4.9752 50.9069ZM20.9127 50.9069C20.6273 51.1923 20.625 51.2129 20.625 53.4333C20.625 56.4474 20.4253 56.2476 23.4375 56.2476C26.4497 56.2476 26.25 56.4474 26.25 53.4333C26.25 50.4192 26.4497 50.619 23.4375 50.619C21.2184 50.619 21.1979 50.6214 20.9127 50.9069ZM32.1627 50.9069C31.8773 51.1923 31.875 51.2129 31.875 53.4333C31.875 56.4474 31.6753 56.2476 34.6875 56.2476C36.9066 56.2476 36.9271 56.2453 37.2123 55.9597C37.4977 55.6743 37.5 55.6538 37.5 53.4333C37.5 50.4192 37.6997 50.619 34.6875 50.619C32.4684 50.619 32.4479 50.6214 32.1627 50.9069ZM12.1875 53.4333V54.3714H9.375H6.5625V53.4333V52.4952H9.375H12.1875V53.4333ZM24.375 53.4333V54.3714H23.4375H22.5V53.4333V52.4952H23.4375H24.375V53.4333ZM35.625 53.4333V54.3714H34.6875H33.75V53.4333V52.4952H34.6875H35.625V53.4333ZM43.4127 54.6593C43.1419 54.9303 43.125 55.0232 43.125 56.2476C43.125 57.4721 43.1419 57.5649 43.4127 57.8359C43.6835 58.1069 43.7763 58.1238 45 58.1238C46.2237 58.1238 46.3165 58.1069 46.5873 57.8359C46.7687 57.6545 46.875 57.4141 46.875 57.1857C46.875 56.587 46.4318 56.2476 45.6498 56.2476H45V55.5974C45 54.8149 44.6609 54.3714 44.0625 54.3714C43.8342 54.3714 43.594 54.4778 43.4127 54.6593ZM48.1002 54.6593C47.8294 54.9303 47.8125 55.0232 47.8125 56.2476C47.8125 57.4721 47.8294 57.5649 48.1002 57.8359C48.371 58.1069 48.4638 58.1238 49.6875 58.1238C50.9112 58.1238 51.004 58.1069 51.2748 57.8359C51.4562 57.6545 51.5625 57.4141 51.5625 57.1857C51.5625 56.587 51.1193 56.2476 50.3373 56.2476H49.6875V55.5974C49.6875 54.8149 49.3484 54.3714 48.75 54.3714C48.5217 54.3714 48.2815 54.4778 48.1002 54.6593ZM52.7877 54.6593C52.5169 54.9303 52.5 55.0232 52.5 56.2476C52.5 57.4721 52.5169 57.5649 52.7877 57.8359C53.0585 58.1069 53.1513 58.1238 54.375 58.1238C55.5987 58.1238 55.6915 58.1069 55.9623 57.8359C56.1437 57.6545 56.25 57.4141 56.25 57.1857C56.25 56.587 55.8068 56.2476 55.0248 56.2476H54.375V55.5974C54.375 54.8149 54.0359 54.3714 53.4375 54.3714C53.2092 54.3714 52.969 54.4778 52.7877 54.6593Z" fill="#FF4C13"/>
</svg>
