<svg width="27" height="27" viewBox="0 0 27 27" fill="none" xmlns="http://www.w3.org/2000/svg">
<path d="M1.13749 25.825V20.65L8.29999 13.4875L1.32499 6.475C1.14999 6.3 1.01874 6.10625 0.931238 5.89375C0.843738 5.68125 0.799988 5.475 0.799988 5.275C0.799988 5.075 0.843738 4.86875 0.931238 4.65625C1.01874 4.44375 1.14999 4.25 1.32499 4.075L4.77499 0.625C4.94999 0.45 5.14374 0.3125 5.35624 0.2125C5.56874 0.1125 5.77499 0.0625 5.97499 0.0625C6.17499 0.0625 6.38749 0.1125 6.61249 0.2125C6.83749 0.3125 7.02499 0.45 7.17499 0.625L14.225 7.6375L21.425 0.4375C21.525 0.3375 21.6437 0.26875 21.7812 0.23125C21.9187 0.19375 22.05 0.175 22.175 0.175C22.325 0.175 22.4625 0.19375 22.5875 0.23125C22.7125 0.26875 22.8375 0.3375 22.9625 0.4375L26.5625 4.075C26.6625 4.175 26.7375 4.2875 26.7875 4.4125C26.8375 4.5375 26.8625 4.675 26.8625 4.825C26.8625 4.975 26.8375 5.1125 26.7875 5.2375C26.7375 5.3625 26.6625 5.475 26.5625 5.575L19.3625 12.775L26.4125 19.825C26.5625 19.975 26.6875 20.1625 26.7875 20.3875C26.8875 20.6125 26.9375 20.825 26.9375 21.025C26.9375 21.225 26.8875 21.4313 26.7875 21.6438C26.6875 21.8563 26.5625 22.05 26.4125 22.225L22.925 25.6375C22.775 25.8125 22.5937 25.9437 22.3812 26.0312C22.1687 26.1188 21.95 26.1625 21.725 26.1625C21.525 26.1625 21.3187 26.1188 21.1062 26.0312C20.8937 25.9437 20.7125 25.8125 20.5625 25.6375L13.5125 18.6625L6.31249 25.825H1.13749ZM9.53749 12.2875L13.025 8.8375L9.98749 5.8L8.22499 7.6L7.02499 6.4L8.78749 4.6L5.97499 1.7875L2.52499 5.275L9.53749 12.2875ZM21.6875 24.475L25.175 20.9875L22.3625 18.175L20.5625 19.975L19.3625 18.775L21.1625 16.975L18.125 13.975L14.675 17.4625L21.6875 24.475ZM2.86249 24.1375H5.56249L20.9375 8.8L18.2 6.0625L2.86249 21.4V24.1375ZM22.1375 7.6L24.875 4.8625L22.1375 2.125L19.4 4.8625L22.1375 7.6Z" fill="#FF4C13"/>
</svg>
