<svg width="60" height="60" viewBox="0 0 60 60" fill="none" xmlns="http://www.w3.org/2000/svg">
<path fill-rule="evenodd" clip-rule="evenodd" d="M10.7158 0.146304C9.03092 0.521672 7.56315 1.32119 6.37205 2.51261C5.60112 3.28375 5.25915 3.7622 4.50885 5.11955C3.52186 6.90492 3.73088 7.23081 6.01261 7.46346L7.49187 7.61427V8.63518C7.49187 9.47481 7.53982 9.74675 7.76186 10.1667C8.1254 10.8543 8.80805 11.2174 9.73772 11.2174H10.4227V24.2002V37.1831L8.48836 39.1302C6.72469 40.9054 6.554 41.1135 6.554 41.4886C6.554 41.9915 6.95025 42.4101 7.42622 42.4101C7.69902 42.4101 8.2329 41.9384 10.5254 39.6716C13.5467 36.6841 13.655 36.6092 14.9362 36.6213C17.2509 36.643 18.7171 39.1181 17.648 41.199C17.2609 41.9525 9.65741 49.5406 8.92001 49.9094C6.83008 50.9546 4.40545 49.4117 4.41834 47.0449C4.42303 46.1894 4.63663 45.6569 5.26794 44.9272C5.66302 44.4706 5.73969 44.3034 5.71026 43.9612C5.66419 43.424 5.19783 43.0462 4.7269 43.1644C4.28693 43.2748 3.57016 44.0793 3.15257 44.9313C2.24682 46.7797 2.5725 48.9487 3.9793 50.4366L4.58271 51.0748L3.42596 54.6285L2.26921 58.1824L1.35279 58.241C0.570491 58.2911 0.403785 58.3401 0.212693 58.5765C-0.0917633 58.953 -0.0684337 59.367 0.276703 59.7121L0.564395 60H30.0008H59.4372L59.7249 59.7121C60.0917 59.3453 60.0917 58.8957 59.7249 58.5289L59.4372 58.241H51.9874H44.5378L44.5376 56.3354C44.5375 54.7531 44.5026 54.3617 44.3324 54.0278C43.9712 53.3191 43.6079 53.1472 42.3318 53.0813L41.1966 53.0227L41.138 50.814L41.0794 48.6054L40.6965 48.2634C40.3511 47.955 40.2337 47.9216 39.4949 47.9216C38.8666 47.9216 38.6761 47.8829 38.6761 47.7554C38.6761 47.6641 37.7793 40.66 36.6831 32.1907C35.587 23.7216 34.6902 16.6987 34.6902 16.5846C34.6902 16.4056 34.807 16.3764 35.5401 16.3719C36.9162 16.3636 37.5804 16.0307 37.9867 15.1458C38.1663 14.7547 38.2025 14.3698 38.2046 12.8298L38.2072 10.9828H38.5004C38.6617 10.9828 40.752 11.1939 43.1455 11.4519C45.5391 11.7099 47.5173 11.921 47.5417 11.921C47.566 11.921 47.5859 17.8599 47.5859 25.1187V38.3165L47.8737 38.6042C48.2937 39.0245 48.6309 38.9637 49.6569 38.2824C51.5674 37.0139 53.7571 34.4501 54.8675 32.1817C55.3072 31.2835 55.2692 30.8853 54.7143 30.5738C54.1302 30.2459 53.8285 30.4824 53.0022 31.9161C51.951 33.7401 50.8418 35.1457 49.8064 35.966L49.3444 36.332V22.2109V8.0899L52.1255 5.72804C53.6552 4.42897 54.9423 3.40442 54.9857 3.45121C55.0291 3.49812 55.2009 4.48632 55.3675 5.64725C56.6253 14.407 56.5176 20.8209 55.0118 26.8245C54.7491 27.8722 54.7178 28.1439 54.8314 28.3932C55.1532 29.0997 56.1103 29.0069 56.4142 28.2395C56.8658 27.0992 57.4707 24.0273 57.7212 21.6013C58.2653 16.3346 57.8999 9.53696 56.7165 2.90803C56.5032 1.71321 55.7945 1.1019 54.8604 1.30712C54.5875 1.36704 50.3362 4.84339 48.4542 6.54562C48.2126 6.76409 48.1598 6.75776 44.9372 6.12288C28.3707 2.85866 22.3645 1.7308 22.0954 1.83317C21.5304 2.04801 21.3821 2.80179 21.8237 3.21422C22.0448 3.42072 24.1407 3.86082 34.7646 5.93185C41.737 7.29096 47.474 8.403 47.5138 8.403C47.5534 8.403 47.5859 8.80475 47.5859 9.29586V10.1886L47.0876 10.1174C46.6128 10.0496 35.3482 8.83618 17.5154 6.93201C8.06397 5.92282 6.29948 5.72488 6.24239 5.66789C6.13371 5.55906 7.17838 4.16759 7.79867 3.59509C8.66925 2.79159 9.6709 2.25064 10.8443 1.95044C12.1451 1.61764 12.791 1.65575 15.8678 2.24654C17.3793 2.53677 18.7733 2.77423 18.9657 2.77423C19.3644 2.77423 19.8014 2.3176 19.8014 1.90107C19.8014 1.58867 19.4181 1.15737 19.0654 1.07294C18.9222 1.03858 17.7235 0.797482 16.4016 0.537034C13.5701 -0.0208 11.962 -0.131265 10.7158 0.146304ZM53.2717 7.56701C53.0783 7.68732 52.4849 8.16483 51.9529 8.62815C51.1099 9.36247 50.9857 9.52007 50.9857 9.85451C50.9857 10.3169 51.3919 10.7483 51.8274 10.7483C51.9918 10.7483 52.2785 10.6328 52.4646 10.4915C53.2869 9.86718 54.4965 8.72454 54.5656 8.50678C54.673 8.16823 54.4207 7.63584 54.0789 7.48011C53.7016 7.30808 53.6856 7.30984 53.2717 7.56701ZM11.3606 8.02939L13.1777 8.2271L13.2132 8.84556L13.2488 9.46414L11.2789 9.43189L9.309 9.39976L9.27429 8.60821C9.2485 8.01754 9.27816 7.81854 9.39153 7.82417C9.47512 7.82839 10.3612 7.92068 11.3606 8.02939ZM19.1566 8.87312C21.0265 9.0666 22.7279 9.25341 22.9374 9.28835L23.3185 9.3518L23.3192 11.8969C23.3199 14.7269 23.3956 15.1878 23.9515 15.7438C24.4051 16.1975 24.9938 16.3756 26.0441 16.3764C26.7282 16.377 26.8355 16.4057 26.8355 16.5884C26.8355 16.7047 25.9386 23.7304 24.8425 32.2011C23.7464 40.6718 22.8495 47.6742 22.8495 47.762C22.8495 47.8816 22.6411 47.9216 22.0172 47.9216C21.2269 47.9216 21.1646 47.9418 20.7862 48.3203L20.3876 48.719V50.9002V53.0813H19.2912C18.3466 53.0813 18.1398 53.1181 17.7965 53.3475C17.0864 53.822 16.9882 54.1855 16.9881 56.3388L16.9878 58.2478L15.4447 58.2151L13.9015 58.1824L13.3913 56.6579C13.1107 55.8195 12.5291 54.037 12.0989 52.6968L11.3167 50.2602L15.1423 46.4221C19.2917 42.2591 19.4227 42.0903 19.7127 40.5305C19.9929 39.0231 19.4027 37.3255 18.2045 36.1919C16.7224 34.7897 14.6739 34.4542 12.8091 35.3081L12.1812 35.5957V23.4198V11.2439L12.9855 11.1984C14.3343 11.1222 14.9948 10.4148 14.9948 9.04644V8.39233L15.3759 8.45682C15.5854 8.49224 17.2868 8.67963 19.1566 8.87312ZM30.6945 10.1053C33.4402 10.3968 35.858 10.6629 36.0676 10.6971L36.4487 10.759V12.5478C36.4487 13.7828 36.405 14.3803 36.308 14.4774C36.1054 14.68 25.4202 14.68 25.2176 14.4774C25.1174 14.3771 25.077 13.6514 25.077 11.9562V9.57566H25.3896C25.5616 9.57566 27.9487 9.81406 30.6945 10.1053ZM28.1512 12.1036C27.7973 12.3515 27.7895 13.0831 28.1374 13.3979C28.3629 13.6022 28.5882 13.6213 30.7628 13.6213C32.9374 13.6213 33.1627 13.6022 33.3883 13.3979C33.7361 13.0831 33.7284 12.3515 33.3744 12.1036C32.9897 11.834 28.536 11.834 28.1512 12.1036ZM30.0594 16.7964C29.8015 17.0222 29.3326 17.427 29.0173 17.696L28.4442 18.1852L28.531 17.369C28.5787 16.9203 28.6419 16.5133 28.6715 16.465C28.7009 16.4167 29.1308 16.3791 29.6267 16.3815L30.5283 16.3859L30.0594 16.7964ZM33.3327 20.0065C33.5615 21.7745 33.736 23.234 33.7202 23.2497C33.6653 23.3047 29.0043 20.2388 29.0043 20.1476C29.0043 20.0403 32.8207 16.696 32.8778 16.7533C32.899 16.7745 33.1037 18.2384 33.3327 20.0065ZM30.5755 23.3544C31.8704 24.1929 32.9304 24.9095 32.9308 24.9468C32.9322 25.0573 27.2955 28.1338 27.2235 28.0618C27.1629 28.0012 27.849 22.2641 27.9594 21.9082C27.9861 21.8222 28.0559 21.7694 28.1144 21.7909C28.173 21.8124 29.2804 22.5159 30.5755 23.3544ZM50.8257 26.4705C50.5383 26.6965 50.5167 26.7786 50.5167 27.6432C50.5167 28.7273 50.7103 29.0418 51.3778 29.0418C52.0146 29.0418 52.2166 28.7117 52.2166 27.6707C52.2166 26.8549 52.1937 26.7736 51.8877 26.5104C51.4847 26.1637 51.2278 26.154 50.8257 26.4705ZM34.5948 29.7161C34.8245 31.5058 34.9991 32.9858 34.9828 33.0048C34.9456 33.0483 28.3331 29.8795 28.2114 29.7599C28.124 29.674 33.8068 26.4672 34.0526 26.4637C34.1278 26.4627 34.343 27.754 34.5948 29.7161ZM30.2735 32.7417C32.0901 33.6155 33.6184 34.3726 33.6696 34.4237C33.7209 34.475 32.015 35.2682 29.8789 36.1865C27.7427 37.1048 25.9718 37.8329 25.9436 37.8045C25.9152 37.7762 26.0779 36.3378 26.3051 34.6083C26.5323 32.8786 26.7182 31.3936 26.7182 31.3081C26.7182 31.2226 26.775 31.1526 26.8444 31.1526C26.9138 31.1526 28.4568 31.8677 30.2735 32.7417ZM35.8015 39.0591C36.0285 40.7957 36.2142 42.3164 36.2142 42.4385C36.2142 42.7192 36.5376 42.8259 31.7007 40.9497C29.5084 40.0993 27.6092 39.364 27.4803 39.3156C27.3031 39.2492 28.234 38.8037 31.2904 37.4921C33.5149 36.5376 35.3471 35.7892 35.3619 35.8292C35.3768 35.8691 35.5746 37.3227 35.8015 39.0591ZM13.5225 38.0089C12.1484 38.6937 11.7988 40.4092 12.8007 41.5506C13.4923 42.3386 14.5331 42.6063 15.4366 42.2286C17.3566 41.4261 17.3566 38.7035 15.4366 37.901C14.815 37.6411 14.1894 37.6764 13.5225 38.0089ZM14.9714 39.6192C15.1943 39.8421 15.1423 40.3922 14.8853 40.5298C14.5273 40.7214 14.3118 40.6739 14.1048 40.358C13.927 40.0864 13.927 40.0432 14.1048 39.7716C14.3105 39.4575 14.7351 39.3828 14.9714 39.6192ZM34.9175 44.1229C34.9987 44.204 35.0271 44.1876 31.4013 46.1623L28.171 47.9216H26.3895C25.3226 47.9216 24.608 47.8762 24.608 47.8084C24.608 47.7462 24.819 46.0755 25.077 44.0959C25.3349 42.1164 25.5459 40.4854 25.5459 40.4716C25.5459 40.4316 34.8519 44.0573 34.9175 44.1229ZM10.3431 42.1977C10.0344 42.347 9.78801 42.8934 9.88778 43.2075C10.012 43.5994 11.3126 44.7554 11.6292 44.7554C12.0803 44.7554 12.5329 44.3302 12.5329 43.9065C12.5329 43.6172 12.3823 43.393 11.7905 42.801C11.0452 42.0556 10.826 41.9643 10.3431 42.1977ZM6.72985 44.8023C6.53641 44.8877 6.22562 45.1099 6.03934 45.2961C5.07931 46.256 5.17474 47.9941 6.23055 48.7781C7.28577 49.5618 8.44311 49.4821 9.32635 48.5647C10.7751 47.0602 9.741 44.6262 7.65998 44.6427C7.34181 44.6453 6.92328 44.7171 6.72985 44.8023ZM36.7919 46.671C36.8715 47.3054 36.9137 47.8474 36.8856 47.8754C36.8576 47.9035 35.7361 47.9122 34.3936 47.8948L31.9525 47.863L34.2299 46.6205C35.4824 45.9371 36.5388 45.4094 36.5773 45.4479C36.6157 45.4862 36.7123 46.0367 36.7919 46.671ZM8.14228 46.6825C8.28484 46.9001 8.29938 47.0234 8.20371 47.2022C7.91837 47.7356 7.14017 47.5897 7.14017 47.0028C7.14017 46.3726 7.8009 46.1613 8.14228 46.6825ZM39.3795 51.381V53.0813H30.7628H22.1461V51.381V49.6806H30.7628H39.3795V51.381ZM10.9533 54.8682L12.034 58.1824L10.056 58.2145C8.96808 58.2321 7.18823 58.2321 6.10077 58.2145L4.1235 58.1824L5.15387 55.0162L6.18412 51.85L6.51566 51.9087C7.24955 52.0385 8.61274 51.937 9.19176 51.7097C9.51415 51.583 9.79927 51.4961 9.82529 51.5166C9.85144 51.5372 10.3589 53.0453 10.9533 54.8682ZM42.7793 56.5407V58.241H30.7628H18.7463V56.5407V54.8403H30.7628H42.7793V56.5407Z" fill="#FF4C13"/>
</svg>
