<svg width="60" height="60" viewBox="0 0 60 60" fill="none" xmlns="http://www.w3.org/2000/svg">
<path fill-rule="evenodd" clip-rule="evenodd" d="M40.3518 0.279844C40.041 0.547266 40.0243 0.615117 39.9804 1.80328L39.9343 3.04688H20.3283C9.54504 3.04688 0.636914 3.07969 0.532617 3.11965C0.0854297 3.29121 0 3.76629 0 6.08145C0 8.26465 0.00539063 8.31352 0.282539 8.63602C0.564844 8.96461 0.566601 8.96484 2.27473 9.00281L3.98438 9.04078V18.5886C3.98438 29.2423 3.94359 28.7081 4.77562 28.9392C5.01715 29.0063 5.27695 29.0614 5.35277 29.0618C5.58105 29.063 5.97656 29.6578 5.97656 30C5.97656 30.5067 5.56523 30.9375 5.08148 30.9375C4.53703 30.9375 4.28133 30.7855 4.10344 30.356L3.9559 30H2.9741C2.23945 30 1.99219 30.0389 1.99219 30.1545C1.99219 30.4852 2.35348 31.5028 2.51988 31.641C2.61633 31.721 2.69531 31.8502 2.69531 31.9279C2.69531 32.0057 2.16352 32.7771 1.51359 33.6421C0.863672 34.5071 0.257227 35.3572 0.165937 35.5312C0.0394922 35.7724 0 36.3847 0 38.1038V40.3598L1.32398 41.6838L2.64797 43.0078H4.90406C6.60809 43.0078 7.23762 42.9677 7.47715 42.8439C7.65164 42.7536 8.28176 42.1759 8.87766 41.5601L9.96094 40.4402V38.0402V35.6404L8.61234 33.8298L7.26387 32.0194L7.61625 31.3494C7.88918 30.8306 7.96816 30.5299 7.96617 30.0173C7.96184 28.9037 7.25707 27.7396 6.35742 27.3601L5.97656 27.1995V18.1114V9.02344H22.9688H39.9609V9.47473C39.9609 10.6925 40.3774 11.0156 41.9473 11.0156H43.0078V34.5117V58.0078H41.0156H39.0234V38.0273V18.0469H38.0273H37.0312V20.0391V22.0312H34.043H31.0547V21.0352V20.0391H30H28.9453V21.0352V22.0312H25.957H22.9688V21.5039V20.9766H21.9727H20.9766V21.5039V22.0312H17.9883H15V20.5078V18.9844H21.5039H28.0078V17.9883V16.9922H21.5039H15V15V13.0078H14.0039H13.0078V35.5078V58.0078H12.2157H11.4236L9.08098 55.6522C7.7925 54.3566 6.56941 53.2232 6.36305 53.1334C6.08027 53.0105 5.90695 53.0009 5.65992 53.0943C5.47957 53.1625 4.24934 54.2959 2.92605 55.613C1.24535 57.2859 0.441797 58.0078 0.260039 58.0078C0.0118359 58.0078 0 58.053 0 59.0039V60H30H60V59.0039V58.0078H59.6484C59.4551 58.0078 59.2969 57.9881 59.2969 57.964C59.2969 57.9398 59.4286 57.6845 59.5896 57.3964C60.2304 56.2499 60.0448 54.8823 59.1232 53.9607C58.8408 53.6784 58.4248 53.37 58.1986 53.2755C57.7925 53.1059 57.7889 53.0982 57.9107 52.6573C58.1681 51.7248 57.8129 50.5632 57.0513 49.8471C56.3998 49.2346 55.9296 49.0494 55.0195 49.0468C54.3293 49.045 54.1007 49.099 53.578 49.3879C52.4479 50.0126 51.9531 51.0018 52.069 52.4054L52.1337 53.1898L51.7537 53.3152C51.5449 53.3842 51.1603 53.664 50.8992 53.9371C49.9677 54.9116 49.7746 56.1921 50.3844 57.3513L50.7296 58.0078H49.8571H48.9844V34.5117V11.0156H50.0314C50.6073 11.0156 51.2163 10.9632 51.3847 10.8991C51.7523 10.7595 52.0312 10.1561 52.0312 9.50062V9.03293L55.733 8.99883L59.4346 8.96484L59.7173 8.63602C59.9946 8.31352 60 8.265 60 6.08145C60 3.76629 59.9146 3.29121 59.4674 3.11965C59.3631 3.07969 57.652 3.04688 55.6651 3.04688H52.0526L52.0126 1.80609C51.9742 0.614062 51.9598 0.554062 51.6438 0.282656L51.315 0H45.9961H40.6772L40.3518 0.279844ZM46.0282 4.01367L46.0603 5.97656H44.0067H41.9531V3.98156V1.98668L43.9746 2.01867L45.9961 2.05078L46.0282 4.01367ZM50.0391 5.50934V9.02648L46.0254 8.99566L42.0117 8.96484V8.49609V8.02734L44.7333 7.96875C47.3701 7.91203 47.4633 7.90184 47.7216 7.64344C47.9811 7.38387 47.9892 7.30488 48.0255 4.68445L48.0627 1.99219H49.0509H50.0391V5.50934ZM4.18488 5.99297C4.97695 6.51762 5.625 6.96586 5.625 6.98906C5.625 7.01227 4.80762 7.03125 3.80859 7.03125H1.99219V6.03516V5.03906H2.36848C2.6434 5.03906 3.13301 5.29617 4.18488 5.99297ZM10.341 5.91949L9.02344 6.79992L7.7059 5.91949L6.38824 5.03906H9.02344H11.6586L10.341 5.91949ZM22.2941 5.91949L20.9766 6.79992L19.659 5.91949L18.3414 5.03906H20.9766H23.6118L22.2941 5.91949ZM35.4434 5.14066C35.1715 5.38863 33.1022 6.71871 32.9883 6.71871C32.8744 6.71871 30.8051 5.38863 30.5332 5.14066C30.47 5.08301 31.5332 5.03906 32.9883 5.03906C34.4434 5.03906 35.5065 5.08301 35.4434 5.14066ZM39.9609 6.03516V7.03125H38.1797C36.8991 7.03125 36.4342 6.99551 36.5256 6.9041C36.5955 6.83414 37.2257 6.38918 37.926 5.91527C38.8365 5.2991 39.3077 5.0516 39.5801 5.04633L39.9609 5.03906V6.03516ZM54.5996 5.08066C54.5728 5.10352 53.9839 5.5002 53.291 5.96215L52.0312 6.80215V5.92055V5.03906H53.3399C54.0595 5.03906 54.6265 5.05781 54.5996 5.08066ZM16.3808 6.12305L17.6367 6.97266L16.3184 7.00582C15.5933 7.02398 14.4068 7.02398 13.6816 7.00582L12.3633 6.97266L13.5938 6.12984C14.2705 5.66637 14.892 5.28398 14.9746 5.28023C15.0573 5.27648 15.6901 5.65582 16.3808 6.12305ZM28.4044 6.12305L29.6899 6.97266L28.3867 7.0057C27.67 7.02387 26.4655 7.02387 25.71 7.0057L24.3366 6.97266L25.6155 6.12363C26.319 5.65676 26.9449 5.27437 27.0067 5.27402C27.0683 5.27367 27.6973 5.65582 28.4044 6.12305ZM58.0078 6.15234V7.03125H56.6953C55.7535 7.03125 55.4187 6.99539 55.5097 6.90434C55.6963 6.71777 57.817 5.28902 57.9199 5.28059C57.9683 5.27672 58.0078 5.66895 58.0078 6.15234ZM46.0547 11.0779C46.0547 11.1122 45.8174 11.4939 45.5273 11.9263L45 12.7124V11.8639V11.0156H45.5273C45.8174 11.0156 46.0547 11.0436 46.0547 11.0779ZM46.9922 16.0246V18.6899L46.1063 17.364C45.619 16.6349 45.2367 15.9962 45.2566 15.9448C45.3064 15.8167 46.9263 13.3641 46.9629 13.3615C46.9789 13.3603 46.9922 14.5587 46.9922 16.0246ZM46.7578 21.9722C46.7578 22.0604 45.1043 24.6094 45.047 24.6094C45.0212 24.6094 45 23.4101 45 21.9442V19.2789L45.8789 20.5942C46.3623 21.3176 46.7578 21.9377 46.7578 21.9722ZM20.9766 24.8438V25.6641H17.9883H15V24.8438V24.0234H17.9883H20.9766V24.8438ZM28.9453 28.2641V32.5048L27.7954 31.3751C27.1629 30.7536 26.5003 30.1901 26.3229 30.1227C26.1455 30.0552 25.3182 30 24.4846 30H22.9688V27.0117V24.0234H25.957H28.9453V28.2641ZM37.0312 29.0039V33.9844H34.043H31.0547V29.0039V24.0234H34.043H37.0312V29.0039ZM46.9668 29.3176L46.9336 30.6274L46.0679 29.3176L45.2024 28.0078L46.0679 26.698L46.9336 25.3882L46.9668 26.698C46.9849 27.4184 46.9849 28.5973 46.9668 29.3176ZM20.9766 29.3479C20.9766 30.2782 21.0314 31.1836 21.0983 31.3597C21.3213 31.9462 21.4713 31.9845 23.5652 31.9884L25.5094 31.9922L27.5738 33.9844L29.6382 35.9766H33.3347H37.0312V46.9922V58.0078H26.0156H15V42.832V27.6562H17.9883H20.9766V29.3479ZM45.9375 32.6953L46.7898 33.9844L45.9375 35.2734C45.4688 35.9824 45.066 36.5625 45.0425 36.5625C45.0192 36.5625 45 35.4023 45 33.9844C45 32.5664 45.0192 31.4062 45.0425 31.4062C45.066 31.4062 45.4688 31.9863 45.9375 32.6953ZM6.24023 33.9734C6.6109 34.4787 6.91406 34.9252 6.91406 34.9656C6.91406 35.006 6.04395 35.0391 4.98047 35.0391C3.91699 35.0391 3.04688 35.0095 3.04688 34.9736C3.04688 34.9375 3.36562 34.4892 3.75527 33.9775L4.46367 33.0469L5.01504 33.0507L5.56641 33.0546L6.24023 33.9734ZM16.9922 34.9805V35.9766H17.9883H18.9844V34.9805V33.9844H17.9883H16.9922V34.9805ZM20.9766 34.9805V35.9766H21.9727H22.9688V34.9805V33.9844H21.9727H20.9766V34.9805ZM24.9609 34.9805V35.9766H25.957H26.9531V34.9805V33.9844H25.957H24.9609V34.9805ZM7.96875 38.3462V39.6612L7.29855 40.3384L6.62848 41.0156H5.04586H3.46336L2.72777 40.2866L1.99219 39.5576V38.2944V37.0312H4.98047H7.96875V38.3462ZM46.9668 41.2579L46.9336 42.5546L46.0766 41.3092C45.6053 40.6241 45.2361 40.0212 45.2563 39.9691C45.2764 39.9172 45.6621 39.3177 46.1133 38.637L46.9336 37.3993L46.9668 38.6801C46.9849 39.3846 46.9849 40.5445 46.9668 41.2579ZM16.9922 38.9648V39.9609H17.9883H18.9844V38.9648V37.9688H17.9883H16.9922V38.9648ZM20.9766 38.9648V39.9609H21.9727H22.9688V38.9648V37.9688H21.9727H20.9766V38.9648ZM25.0391 38.0469C24.9961 38.0898 24.9609 38.538 24.9609 39.043V39.9609H25.957H26.9531V38.9648V37.9688H26.0352C25.5302 37.9688 25.082 38.0039 25.0391 38.0469ZM29.0278 38.0426C28.9825 38.0879 28.9453 38.538 28.9453 39.043V39.9609H30.0047H31.0642L31.0301 38.9941L30.9961 38.0273L30.0532 37.9937C29.5345 37.9752 29.0732 37.9971 29.0278 38.0426ZM33.0469 38.9602V39.9609H34.0477H35.0486L35.0145 38.9941L34.9805 38.0273L34.0137 37.9934L33.0469 37.9593V38.9602ZM16.9922 42.9492V43.9453H17.9883H18.9844V42.9492V41.9531H17.9883H16.9922V42.9492ZM21.0547 42.0313C21.0117 42.0742 20.9766 42.5224 20.9766 43.0274V43.9453H21.9727H22.9688V42.9492V41.9531H22.0508C21.5459 41.9531 21.0976 41.9883 21.0547 42.0313ZM25.0391 42.0313C24.9961 42.0742 24.9609 42.5224 24.9609 43.0274V43.9453H25.957H26.9531V42.9492V41.9531H26.0352C25.5302 41.9531 25.082 41.9883 25.0391 42.0313ZM29.0278 42.027C28.9825 42.0723 28.9453 42.5224 28.9453 43.0274V43.9453H30.0047H31.0642L31.0301 42.9785L30.9961 42.0117L30.0532 41.9781C29.5345 41.9596 29.0732 41.9815 29.0278 42.027ZM33.0469 42.9445V43.9453H34.0477H35.0486L35.0145 42.9785L34.9805 42.0117L34.0137 41.9777L33.0469 41.9436V42.9445ZM46.7578 45.9961C46.7578 46.0308 46.3623 46.6512 45.8789 47.3746L45 48.6899V45.9961V43.3023L45.8789 44.6176C46.3623 45.341 46.7578 45.9614 46.7578 45.9961ZM16.9922 47.0508V48.0469H17.9883H18.9844V47.0508V46.0547H17.9883H16.9922V47.0508ZM21.0012 47.0215L21.0352 47.9883L22.002 48.0223L22.9688 48.0564V47.0555V46.0547H21.968H20.9671L21.0012 47.0215ZM24.9855 47.0215L25.0195 47.9883L25.9863 48.0223L26.9531 48.0564V47.0555V46.0547H25.9523H24.9514L24.9855 47.0215ZM28.9699 47.0215L29.0039 47.9883H30H30.9961L31.0301 47.0215L31.0642 46.0547H30H28.9358L28.9699 47.0215ZM33.0469 47.0555V48.0564L34.0137 48.0223L34.9805 47.9883L35.0145 47.0215L35.0486 46.0547H34.0477H33.0469V47.0555ZM46.9922 52.0597V54.6664L46.1045 53.3379L45.2168 52.0095L46.0618 50.7313C46.5267 50.0283 46.9262 49.4531 46.9496 49.4531C46.973 49.4531 46.9922 50.6261 46.9922 52.0597ZM16.9922 51.0352V52.0312H17.9883H18.9844V51.0352V50.0391H17.9883H16.9922V51.0352ZM20.9766 51.0352V52.0312H21.9727H22.9688V51.0352V50.0391H21.9727H20.9766V51.0352ZM24.9855 51.0059L25.0195 51.9727L25.9863 52.0066L26.9531 52.0407V51.0398V50.0391H25.9523H24.9514L24.9855 51.0059ZM28.9699 51.0059L29.0039 51.9727H30H30.9961L31.0301 51.0059L31.0642 50.0391H30H28.9358L28.9699 51.0059ZM33.0469 51.0398V52.0407L34.0137 52.0066L34.9805 51.9727L35.0145 51.0059L35.0486 50.0391H34.0477H33.0469V51.0398ZM55.6867 51.2909C56.1131 51.675 56.048 52.4416 55.5571 52.8185C55.2367 53.0645 54.6272 52.9972 54.3111 52.6811C53.7962 52.1663 54.0105 51.3286 54.7266 51.0568C54.9741 50.963 55.4522 51.0795 55.6867 51.2909ZM16.9922 55.0195V56.0156H17.9883H18.9844V55.0195V54.0234H17.9883H16.9922V55.0195ZM20.9766 55.0195V56.0156H21.9727H22.9688V55.0195V54.0234H21.9727H20.9766V55.0195ZM24.9609 55.0195V56.0156H25.957H26.9531V55.0195V54.0234H25.957H24.9609V55.0195ZM28.9699 54.9902L29.0039 55.957H30H30.9961L31.0301 54.9902L31.0642 54.0234H30H28.9358L28.9699 54.9902ZM33.0469 55.0195V56.0156H34.043H35.0391V55.0195V54.0234H34.043H33.0469V55.0195ZM53.3064 55.0908C54.3437 55.4524 54.0929 56.9388 52.9928 56.9494C51.8938 56.96 51.6859 55.427 52.7344 55.0437C52.8311 55.0084 52.9154 54.9752 52.922 54.9702C52.9284 54.9652 53.1014 55.0194 53.3064 55.0908ZM57.8719 55.5925C58.1836 56.2343 57.7264 56.9531 57.0064 56.9531C56.481 56.9531 56.0156 56.5227 56.0156 56.0367C56.0156 55.6202 56.396 55.1094 56.7504 55.05C57.1641 54.9806 57.7008 55.2402 57.8719 55.5925ZM7.32422 56.7188L8.6093 58.0078H6.03516H3.46102L4.74609 56.7188C5.45285 56.0098 6.03293 55.4297 6.03516 55.4297C6.03738 55.4297 6.61746 56.0098 7.32422 56.7188ZM45.9009 56.6602C46.2847 57.2402 46.6376 57.7808 46.6852 57.8613C46.7513 57.9732 46.5625 58.0078 45.8858 58.0078H45V56.6953C45 55.9474 45.0437 55.4307 45.1016 55.4941C45.1574 55.5553 45.5171 56.0801 45.9009 56.6602Z" fill="#FF4C13"/>
</svg>
