<svg width="74" height="80" viewBox="0 0 74 80" fill="none" xmlns="http://www.w3.org/2000/svg">
<path opacity="0.05" d="M7.6265 40.1722C9.48377 41.2847 12.1175 42.3382 15.4884 43.3458L12.9273 45.8646C8.62485 44.7515 5.636 43.2228 3.82638 41.3603C1.87826 39.3553 1 37.3827 1 35.4286C1 33.2073 1.85403 31.2049 3.65049 29.389C4.52495 28.5051 5.97547 27.5042 8.0701 26.3987C10.1522 25.2998 12.8167 24.1253 16.0735 22.8766L16.0735 22.8766L16.0806 22.8738C21.1155 20.8988 24.5562 19.2308 26.2394 17.8614C27.9691 16.4541 28.926 14.7206 28.926 12.6857C28.926 10.2775 27.8251 8.23536 25.7829 6.59229C23.6863 4.90551 20.6908 4.14286 16.9591 4.14286C14.7547 4.14286 12.7815 4.46094 11.0598 5.12394C9.3433 5.78492 7.82942 6.77814 6.52498 8.09671C6.25435 8.37028 5.89363 8.55071 5.37764 8.60561C4.87857 8.65872 4.50922 8.55296 4.20333 8.3321L4.19021 8.32263L4.17679 8.31358C3.73229 8.01404 3.6004 7.71508 3.6004 7.37143C3.6004 6.83697 3.73456 6.41868 3.97416 6.07452C5.03974 4.66712 6.73098 3.45007 9.13946 2.46897C11.5356 1.4929 14.1387 1 16.9591 1C21.6227 1 25.2878 2.12149 28.0456 4.27402C30.7776 6.40641 32.1268 9.18105 32.1268 12.6857C32.1268 15.2217 31.1903 17.4054 29.2631 19.2839C27.3081 21.1895 23.405 23.3398 17.3858 25.6975L17.3858 25.6974L17.3806 25.6995C12.4099 27.6789 8.9475 29.3372 7.10108 30.6762C5.25744 32.0131 4.08774 33.5886 4.08774 35.4286C4.08774 37.3506 5.51295 38.9061 7.6265 40.1722ZM67.6104 26.3495L57.0326 15.6571L60.9723 11.6747C61.9515 10.6849 62.9787 10.2296 64.0762 10.1996C65.1276 10.1709 66.1272 10.599 67.1033 11.6514L67.1142 11.6633L67.1256 11.6747L71.5349 16.1319L71.5463 16.1433L71.558 16.1544C72.5982 17.1402 73.0274 18.1557 72.9986 19.2304C72.9687 20.35 72.5138 21.393 71.5349 22.3824L67.6104 26.3495ZM9.40159 73.4857V74.4857H10.4016H15.0371H15.4545L15.748 74.189L55.0931 34.4176L55.7889 33.7143L55.0931 33.011L50.4577 28.3253L49.7467 27.6067L49.0358 28.3253L9.69069 68.0967L9.40159 68.3889V68.8V73.4857ZM48.6161 79C48.2101 79 47.8473 78.862 47.4915 78.528C47.177 78.2327 47.0157 77.8735 47.0157 77.3714C47.0157 76.8697 47.1752 76.5471 47.462 76.2986C47.8136 75.994 48.1859 75.8571 48.6161 75.8571C53.3515 75.8571 57.4217 74.8757 60.777 72.8569C64.1142 70.8489 66.0099 68.2885 66.0099 65.1429C66.0099 62.7253 64.576 60.562 62.1214 58.6411C59.991 56.9739 57.2274 55.6948 53.8695 54.7749L56.359 52.3264C60.7186 53.6544 63.8718 55.4495 65.9165 57.6518C68.069 59.9703 69.0977 62.4587 69.0977 65.1429C69.0977 69.4779 67.1114 72.8232 62.9771 75.2521C58.7329 77.7455 53.9543 79 48.6161 79ZM6.31386 77.6286V67.0389L49.7477 23.0228L60.3236 33.7134L16.7686 77.6286H6.31386Z" stroke="#000F57" stroke-width="2"/>
</svg>
