<svg width="58" height="80" viewBox="0 0 58 80" fill="none" xmlns="http://www.w3.org/2000/svg">
<path opacity="0.05" d="M23.1168 73.8686L22.9988 73.0037H22.1259H19.763C18.8423 73.0037 17.9725 72.6488 17.1275 71.8339C16.303 71.0388 15.9296 70.1644 15.9296 69.1704V54.9926V54.4293L15.4479 54.1374C10.8585 51.3559 7.31216 47.7701 4.78735 43.3776C2.26309 38.9861 1 34.1999 1 29C1 21.1685 3.70886 14.5683 9.13859 9.13859C14.5683 3.70886 21.1685 1 29 1C36.8315 1 43.4317 3.70887 48.8614 9.13859C54.2911 14.5683 57 21.1685 57 29C57 34.1999 55.7369 38.9861 53.2126 43.3776C50.6878 47.7701 47.1415 51.3559 42.5521 54.1374L42.0704 54.4293V54.9926V69.1704C42.0704 70.1644 41.697 71.0388 40.8725 71.8339C40.0275 72.6488 39.1577 73.0037 38.237 73.0037H35.8741H35.0012L34.8832 73.8686C34.7051 75.175 34.0967 76.208 33.0185 77.0167C31.9219 77.8391 30.5991 78.2667 29 78.2667C27.4009 78.2667 26.0781 77.8391 24.9815 77.0167C23.9033 76.208 23.2949 75.175 23.1168 73.8686ZM18.763 69.1704V70.1704H19.763H38.237H39.237V69.1704V64.5518V63.5518H38.237H19.763H18.763V64.5518V69.1704ZM18.763 60.6852V61.6852H19.763H38.237H39.237V60.6852V56.3889V55.3889H38.237H19.763H18.763V56.3889V60.6852ZM18.3615 52.4561L18.5675 52.5556H18.7963H26.9593H27.9593V51.5556V36.7333V36.3224L27.6703 36.0302L18.9176 27.1781L20.1926 25.9031L28.2929 34.0034L29 34.7105L29.7071 34.0034L37.8074 25.9031L39.0824 27.1781L30.3297 36.0302L30.0407 36.3224V36.7333V51.5556V52.5556H31.0407H39.2037H39.4324L39.6385 52.4561C43.9658 50.3671 47.47 47.2127 50.1434 43.017C52.8266 38.8058 54.1667 34.1251 54.1667 29C54.1667 22.0083 51.7193 16.0422 46.8386 11.1614C41.9578 6.28066 35.9917 3.83333 29 3.83333C22.0083 3.83333 16.0422 6.28066 11.1614 11.1614C6.28066 16.0422 3.83333 22.0083 3.83333 29C3.83333 34.1251 5.17338 38.8058 7.85665 43.017C10.53 47.2127 14.0342 50.3671 18.3615 52.4561Z" stroke="#000F57" stroke-width="2"/>
</svg>
