<?xml version="1.0" encoding="utf-8"?>
<!-- Generator: Adobe Illustrator 23.0.3, SVG Export Plug-In . SVG Version: 6.00 Build 0)  -->
<svg version="1.1" id="katman_1" xmlns="http://www.w3.org/2000/svg" xmlns:xlink="http://www.w3.org/1999/xlink" x="0px" y="0px"
	 viewBox="0 0 1900 455" style="enable-background:new 0 0 1900 455;" xml:space="preserve">
<style type="text/css">
	.st0{clip-path:url(#SVGID_2_);}
	.st1{fill:#FFFFFF;}
	.st2{fill:#1b1b1b;}
</style>
<g>
	<defs>
		<rect id="SVGID_1_" width="1900" height="455"/>
	</defs>
	<clipPath id="SVGID_2_">
		<use xlink:href="#SVGID_1_"  style="overflow:visible;"/>
	</clipPath>
	<g id="logo-walmart" class="st0">
		<g id="walmart" transform="translate(386.5 -303.5)">
			<path id="Path_1" class="st1" d="M1281.8,457.3c10.6,0,19.3-5.5,20.4-12.6l10.4-118c0-11.7-13.7-21.2-30.8-21.2
				c-17.2,0-30.8,9.6-30.8,21.2l10.4,118C1262.6,451.8,1271.3,457.3,1281.8,457.3L1281.8,457.3 M1218,494.1c5.3-9.1,4.9-19.4-0.7-24
				l-97-68c-10.1-5.8-25.2,1.2-33.8,16.1c-8.6,14.9-7.1,31.5,3,37.3l107.4,50C1203.7,508,1212.8,503.2,1218,494.1L1218,494.1
				 M1345.6,494.1c5.3,9.1,14.4,13.9,21.1,11.4l107.4-50c10.1-5.8,11.6-22.4,3-37.3c-8.6-14.9-23.8-21.9-33.8-16.1l-97,68
				C1340.8,474.7,1340.4,485,1345.6,494.1L1345.6,494.1 M1281.8,604.6c10.6,0,19.3,5.4,20.4,12.5l10.4,117.9
				c0,11.7-13.7,21.2-30.8,21.2c-17.2,0-30.8-9.6-30.8-21.2l10.4-117.9C1262.6,610.1,1271.3,604.6,1281.8,604.6L1281.8,604.6
				 M1345.6,567.8c5.3-9.2,14.4-13.9,21.1-11.4l107.4,50c10.1,5.8,11.6,22.5,3,37.3c-8.6,14.8-23.8,21.9-33.8,16l-97-68
				C1340.8,587.2,1340.4,576.9,1345.6,567.8L1345.6,567.8 M1218,567.8c5.3,9.1,4.9,19.4-0.7,24l-97,68c-10.1,5.8-25.2-1.2-33.8-16
				c-8.6-14.9-7.1-31.5,3-37.3l107.4-50C1203.7,553.9,1212.8,558.6,1218,567.8L1218,567.8"/>
			<path id="Path_2" class="st2" d="M670.2,591.6c0.1,3.6-0.4,7.2-1.3,10.6c-4.1,13.6-18.2,25.1-35.9,25.1c-14.7,0-26.4-8.4-26.4-26
				c0-27,29.7-34.5,63.6-34.3L670.2,591.6L670.2,591.6z M723.3,544.5c0-44.5-19-83.7-83.3-83.7c-33,0-59.2,9.3-73.5,17.5l10.5,35.8
				c13.1-8.2,33.9-15.1,53.6-15.1c32.6-0.1,38,18.5,38,30.3v2.8c-71.1-0.1-116,24.5-116,74.7c0,30.6,22.9,59.3,62.7,59.3
				c24.5,0,44.9-9.8,57.2-25.4h1.2c0,0,8.1,34,52.9,21c-2.3-14.1-3.1-29.2-3.1-47.3L723.3,544.5 M-384.5,400.1
				c0,0,46.5,190.4,53.9,221.3c8.7,36.1,24.3,49.3,69.2,40.4l29-118c7.4-29.3,12.3-50.2,17-80h0.8c3.3,30.1,8,50.8,14.1,80.1
				c0,0,11.8,53.6,17.9,81.7s22.9,45.9,67,36.2l69.1-261.7h-55.8l-23.6,113.1c-6.3,32.9-12.1,58.7-16.5,88.8h-0.8
				c-4-29.8-9.2-54.5-15.6-86.6l-24.6-115.3h-58.1l-26.3,112.4c-7.4,34.2-14.4,61.7-18.8,90.8h-0.8c-4.5-27.4-10.6-62.1-17.1-95.1
				c0,0-15.6-80.4-21.1-108.1L-384.5,400.1 M59,591.6c0.1,3.6-0.4,7.2-1.3,10.6c-4.1,13.6-18.2,25.1-35.9,25.1
				c-14.7,0-26.4-8.4-26.4-26c0-27,29.7-34.5,63.6-34.3L59,591.6L59,591.6z M112.1,544.5c0-44.5-19-83.7-83.3-83.7
				c-33,0-59.2,9.3-73.5,17.5l10.5,35.8c13.1-8.2,33.9-15.1,53.6-15.1c32.6-0.1,38,18.5,38,30.3v2.8c-71.1-0.1-116,24.5-116,74.7
				c0,30.6,22.9,59.3,62.6,59.3c24.5,0,44.9-9.8,57.2-25.4h1.2c0,0,8.1,34,52.9,21c-2.3-14.1-3.1-29.2-3.1-47.3L112.1,544.5
				 M200.7,606.2V400.1h-53.1v261.6h53.1L200.7,606.2 M895.9,400.1v193c0,26.6,5,45.3,15.7,56.7c9.4,10,24.8,16.4,43.3,16.4
				c15.7,0,31.2-3,38.5-5.7l-0.7-41.5c-6.6,1.6-13.4,2.4-20.2,2.4c-18.1,0-24.2-11.6-24.2-35.5v-73.9h46.3V462h-46.3v-61.9
				L895.9,400.1 M758.7,465.2v196.6h54.8V561.1c-0.1-4.9,0.3-9.7,1.2-14.5c4.1-21.1,20.2-34.6,43.3-34.6c5.3,0.1,10.6,0.5,15.8,1.4
				V462c-4-0.9-8-1.3-12.1-1.2c-20.5,0-43.7,13.2-53.5,41.5h-1.5v-37.1H758.7 M237.9,465.2v196.6h53.4V546.5
				c-0.1-5.5,0.7-10.9,2.5-16.1c4.4-11.6,15.2-25.2,32.5-25.2c21.6,0,31.6,18.2,31.6,44.5v112h53.4V545.1
				c-0.1-5.4,0.7-10.8,2.2-15.9c4.4-13.2,16-23.9,32-23.9c21.8,0,32.3,17.9,32.3,48.9v107.7h53.4V546c0-61-31-85.2-66-85.2
				c-15.5,0-27.7,3.9-38.8,10.7c-9.3,5.7-17.6,13.8-24.9,24.5h-0.8c-8.4-21.2-28.3-35.1-54.2-35.1c-33.2,0-48.2,16.9-57.2,31.1h-0.8
				v-26.7L237.9,465.2"/>
			<path id="Path_3" class="st1" d="M1501,652.2h0.8c1.1,0,1.8-0.4,1.8-1.1c0-0.7-0.6-1.2-1.6-1.2c-0.3,0-0.7,0.1-0.9,0.1
				L1501,652.2L1501,652.2z M1500.9,657.5h-2.8v-9.2c1.3-0.2,2.7-0.4,4.1-0.4c2.1,0,3,0.3,3.7,0.8c0.7,0.5,1,1.2,1,2
				c0,0.9-0.9,1.8-2.2,2.1v0.1c1.1,0.3,1.8,1.3,1.9,2.4c0.1,0.8,0.3,1.5,0.6,2.2h-3.2c-0.3-0.6-0.5-1.3-0.6-2
				c-0.2-0.9-0.6-1.4-1.6-1.4h-0.9L1500.9,657.5L1500.9,657.5z M1502.1,645.2c-4.1,0-7.3,3.3-7.3,7.4c0,4.1,3.3,7.3,7.4,7.3
				s7.3-3.3,7.3-7.4C1509.4,648.5,1506.2,645.3,1502.1,645.2L1502.1,645.2z M1502.2,642.7c5.9,0,10.7,4.8,10.7,10.7
				c0,5.9-4.8,10.7-10.7,10.7s-10.7-4.8-10.7-10.7C1491.5,647.5,1496.3,642.8,1502.2,642.7L1502.2,642.7"/>
		</g>
	</g>
</g>
</svg>
