<?xml version="1.0" encoding="utf-8"?>
<!-- Generator: Adobe Illustrator 23.0.3, SVG Export Plug-In . SVG Version: 6.00 Build 0)  -->
<svg version="1.1" id="katman_1" xmlns="http://www.w3.org/2000/svg" xmlns:xlink="http://www.w3.org/1999/xlink" x="0px" y="0px"
	 viewBox="0 0 1900 304" style="enable-background:new 0 0 1900 304;" xml:space="preserve">
<style type="text/css">
	.st0{clip-path:url(#SVGID_2_);}
	.st1{fill:#1b1b1b;}
	.st2{fill:#B6EF00;}
</style>
<g>
	<defs>
		<rect id="SVGID_1_" width="1900" height="304"/>
	</defs>
	<clipPath id="SVGID_2_">
		<use xlink:href="#SVGID_1_"  style="overflow:visible;"/>
	</clipPath>
	<g id="logo-awwwards" class="st0">
		<g id="awwwards-seeklogo.com" transform="translate(207.625 34.667)">
			<path id="logo-a1" class="st1" d="M6.3,109.9c5.3-27.5,29.6-46.5,63.4-46.5c39.1,0,69.7,16.9,69.7,69.7v98.3h-33.8l-4.2-21.1
				c-11.6,14.8-27.5,24.3-50.7,24.3c-28.5,0-50.7-18-50.7-50.7S29.6,130,70.8,130h27.5v-7.4c0-19-13.7-24.3-29.6-24.3
				c-11.6,0-23.2,4.2-28.5,19L6.3,109.9z M60.2,199.7c19,0,38-12.7,38-33.8v-3.2H71.8c-18-1.1-28.5,6.3-28.5,21.1
				C43.3,191.3,49.7,199.7,60.2,199.7z"/>
			<path id="logo-a2" class="st1" d="M799.3,109.9c5.3-27.5,29.6-46.5,63.4-46.5c39.1,0,69.7,16.9,69.7,69.7v98.3h-33.8l-4.2-21.1
				c-11.6,14.8-27.5,24.3-50.7,24.3c-28.5,0-50.7-18-50.7-50.7s29.6-53.9,70.8-53.9h27.5v-7.4c0-19-13.7-24.3-29.6-24.3
				c-11.6,0-23.2,4.2-28.5,19L799.3,109.9z M853.1,199.7c19,0,38-12.7,38-33.8v-3.2h-27.5c-18,0-28.5,6.3-28.5,21.1
				C836.2,191.3,842.6,199.7,853.1,199.7z"/>
			<path id="logo-r" class="st1" d="M968.6,232.5V65.6h41.2V93c11.6-20.1,30.6-29.6,48.6-29.6c6.8-0.1,13.6,1,20.1,3.2l-7.4,38
				c-5.3-3.2-10.6-5.3-16.9-5.3c-24.3,0-44.4,20.1-44.4,72.9v59.2L968.6,232.5z"/>
			<path id="logo-d" class="st1" d="M1165.5,64.2c16.9,0,32.8,8.4,40.1,17.9V0h41.2v232.5h-41.2v-16.8c-5.3,8.4-20.1,20-40.1,20
				c-49.7,0-75-34.7-75-85.2S1115.8,64.2,1165.5,64.2z M1171.8,199.9c21.1,0,38-17.9,38-50.5s-16.9-50.5-38-50.5
				c-21.1,0-38,17.9-38,50.5S1150.7,199.9,1171.8,199.9z"/>
			<path id="logo-s" class="st1" d="M1393.6,89.9l-24.3,22.2c-6.3-9-16.5-14.5-27.5-14.8c-8.5,0-15.8,5.3-15.8,13.7
				c0,7.4,6.3,12.7,15.8,15.8c23.2,8.5,60.2,15.8,60.2,50.7c0,30.6-23.2,54.9-59.2,54.9c-34.9,0-58.1-24.3-65.5-44.4l32.8-18
				c6.3,15.8,16.9,27.5,33.8,27.5c12.7,0,21.1-6.3,21.1-18c0-13.7-21.1-16.9-41.2-25.4c-18-7.4-33.8-19-33.8-44.4
				s21.1-48.6,52.8-48.6C1364,62.4,1384.1,74,1393.6,89.9z"/>
			<path id="logo-w2" class="st1" d="M546.5,65.6l-29.6,115.2L488.4,65.6h-38l-27.5,115.2l-23.2-66.6l-3.2,7.4l-12.7,43.3l21.1,67.6
				h35.9l28.5-107.8l28.5,107.8h37l52.8-166.9H546.5z"/>
			<path id="logo-w3" class="st1" d="M743.1,65.6l-29.6,115.2L685,65.6h-38l-27.5,115.2l-23.2-66.6l-3.2,7.4l-13.7,43.3l22.2,67.6
				h35.9l28.5-107.8l28.5,107.8h35.9l53.9-166.9H743.1z"/>
			<path id="logo-w1" class="st1" d="M392,65.6l-52.8,165.9h-35.9l-28.5-106.7l-28.5,107.8h-35.9L157.4,66.6h41.2l29.6,114.1
				l28.5-114.1h38l28.5,114.1l29.6-114.1L392,65.6z"/>
			<path id="logo-p" class="st2" d="M1456,178.6c15.8,0,27.5,11.6,27.5,27.5s-11.6,27.5-27.5,27.5s-27.5-11.6-27.5-27.5
				S1440.1,178.6,1456,178.6z"/>
		</g>
	</g>
</g>
</svg>
