<?xml version="1.0" encoding="utf-8"?>
<!-- Generator: Adobe Illustrator 23.0.3, SVG Export Plug-In . SVG Version: 6.00 Build 0)  -->
<svg version="1.1" id="katman_1" xmlns="http://www.w3.org/2000/svg" xmlns:xlink="http://www.w3.org/1999/xlink" x="0px" y="0px"
	 viewBox="0 0 1900 363" style="enable-background:new 0 0 1900 363;" xml:space="preserve">
<style type="text/css">
	.st0{clip-path:url(#SVGID_2_);}
	.st1{clip-path:url(#SVGID_4_);}
	.st2{fill:#B6EF00;}
	.st3{fill:#1b1b1b;}
</style>
<g>
	<defs>
		<rect id="SVGID_1_" width="1900" height="363"/>
	</defs>
	<clipPath id="SVGID_2_">
		<use xlink:href="#SVGID_1_"  style="overflow:visible;"/>
	</clipPath>
	<g id="logo-envato" class="st0">
		<g>
			<defs>
				<rect id="SVGID_3_" x="239" y="38" width="1420.6" height="270"/>
			</defs>
			<clipPath id="SVGID_4_">
				<use xlink:href="#SVGID_3_"  style="overflow:visible;"/>
			</clipPath>
			<g id="logo-envato-2" transform="translate(239.008 37.329)" class="st1">
				<g id="Envato_Logo-ar" transform="translate(1.46 1.461)">
					<path id="Path_1" class="st2" d="M181.8,27.1c-7.1-4-27.6-1.5-52.2,6.1c-43,29.4-79.3,72.6-81.8,142.1
						c-0.5,1.7-4.7-0.2-5.5-0.7c-11.6-22.2-16.2-45.6-6.5-79.4c1.8-3-4.1-6.7-5.2-5.6c-2.1,2.1-11,11.6-16.9,21.8
						c-29.2,50.6-10.1,115.4,41,143.8c51.1,28.4,115.5,10.1,144-41C231.6,155.2,201.1,37.8,181.8,27.1L181.8,27.1z"/>
					<path id="Path_2" class="st3" d="M364.6,55.1c-60.6,0-104.5,45-104.5,107.1c0,62.5,43.8,106.2,106.6,106.2
						c31.7,0,56.8-9.9,76.8-30.3c6-6.4,6.6-12.6,6.6-15c0-10.1-7.5-17.5-17.9-17.5c-5.2,0-9.6,2-14.6,6.6
						c-11.3,10.5-26.2,21.3-50.9,21.3c-34.4,0-62.3-25.8-64.1-58.9h136.8c14.9,0,22.1-7,22.1-21.3c0.1-4.4-0.2-8.9-0.8-13.2
						C453.3,86.9,417.4,55.1,364.6,55.1L364.6,55.1z M364.6,88.3c32.8,0,53.9,20.9,55.2,54.7H302.7
						C305.8,111.8,332.2,88.3,364.6,88.3L364.6,88.3z"/>
					<path id="Path_3" class="st3" d="M592.1,55.1c-27.5,0-54.8,15.8-65.4,37.8V79.3c0-21-16.3-22.1-19.6-22.1
						c-9.7,0-20,5.8-20,22.1v164c0,21.8,17.4,22.9,20.8,22.9s20.8-1.1,20.8-22.9v-87.9c0-38.3,21.7-65,52.7-65
						c30.1,0,44.7,19.7,44.7,60.3v92.6c0,21.8,17.4,22.9,20.8,22.9s20.8-1.1,20.8-22.9V137.7C667.9,97.8,648,55.1,592.1,55.1
						L592.1,55.1z"/>
					<path id="Path_4" class="st3" d="M856.4,57.2c-9.6,0-16.6,5.6-20.8,16.7l-57,143.4L722.1,73.9c-4.4-11.2-11.4-16.7-21.2-16.7
						c-11.5,0-20.8,9-20.8,20c0,4.1,0.9,8.1,2.6,11.8l65.5,154.7c7.8,18.7,20.6,22.6,30.1,22.6s22.2-3.9,30.1-22.6l65.9-155.6
						c1.6-3.6,2.5-7.4,2.6-11.4C876.8,65.7,868.1,57.2,856.4,57.2L856.4,57.2z"/>
					<path id="Path_5" class="st3" d="M977.5,55.1c-26.7,0-51.5,7.4-69.9,20.9c-6.2,4.3-9.3,9.7-9.3,16.4c-0.2,9,6.9,16.4,15.8,16.6
						c0.1,0,0.2,0,0.4,0c4.5-0.2,8.8-1.7,12.4-4.4c15.8-10.6,30.7-15.5,46.8-15.5c30.8,0,48.5,15.7,48.5,43v4.5
						c-69.2,0.1-139.5,8.4-139.5,68.6c0,43.3,37,62.7,73.7,62.7c29.2,0,52.5-11.6,67.5-33.5V245c0,15.7,10.5,21.3,19.6,21.3
						c1.9,0,18.7-0.6,18.7-21.3V134.7C1062.2,84.9,1030.5,55.1,977.5,55.1L977.5,55.1z M1013.4,167.4h8.8v9.6
						c0,35.1-22.4,57.8-56.9,57.8c-9.4,0-40-2.2-40-30.3C925.2,171.2,975.6,167.4,1013.4,167.4L1013.4,167.4z"/>
					<path id="Path_6" class="st3" d="M1170.7,95.3c18.2,0,19.2-14.2,19.2-17c0-8.4-5-17.4-19.2-17.4h-37.5V22.9
						c0-16.9-11-22.9-20.4-22.9c-3.5,0-20.8,1.1-20.8,22.9v179.9c0,41.5,20.5,63.5,59.3,63.5c10,0,19.8-1.8,26.2-4.8
						c7.3-3.7,11.5-9.7,11.5-16.5c0-9.6-7-16.6-16.6-16.6c-2.5,0.1-5,0.5-7.4,1.3c-2.8,0.8-5.7,1.2-8.6,1.2
						c-15.8,0-23.1-10.3-23.1-32.4V95.2L1170.7,95.3L1170.7,95.3z"/>
					<path id="Path_7" class="st3" d="M1308.4,55.1c-63,0-108.7,44.7-108.7,106.2c0,30,11.1,57.3,31.2,76.9
						c20,19.5,47.5,30.2,77.6,30.2c62.2,0,109.2-46,109.2-107.1C1417.6,99.8,1371.7,55.1,1308.4,55.1L1308.4,55.1z M1308.4,233.1
						c-43.2,0-65.8-36.1-65.8-71.7c0-49,34.1-71.3,65.8-71.3s65.8,22.3,65.8,71.3C1374.3,210.6,1340.1,233.1,1308.4,233.1
						L1308.4,233.1z"/>
				</g>
			</g>
		</g>
	</g>
</g>
</svg>
